<?xml version="1.0" encoding="utf-8"?>
<!-- Generator: Adobe Illustrator 15.1.0, SVG Export Plug-In . SVG Version: 6.00 Build 0)  -->
<!DOCTYPE svg PUBLIC "-//W3C//DTD SVG 1.1//EN" "http://www.w3.org/Graphics/SVG/1.1/DTD/svg11.dtd">
<svg version="1.1" id="Layer_1" xmlns="http://www.w3.org/2000/svg" xmlns:xlink="http://www.w3.org/1999/xlink" x="0px" y="0px"
	 width="612px" height="792px" viewBox="0 0 612 792" enable-background="new 0 0 612 792" xml:space="preserve">
<path fill-rule="evenodd" clip-rule="evenodd" stroke="#000000" stroke-width="2.9999" stroke-linecap="round" stroke-linejoin="round" stroke-miterlimit="22.9256" d="
	M349.278,685.485c-1.318,0-2.934-0.215-4.334-0.107c-1.399,0.107-2.584,0.538-4.039,0.592c-1.454,0.054-3.177-0.269-4.361,0.001
	c-1.186,0.269-1.831,1.131-2.963,1.83c-1.131,0.7-2.746,1.239-4.685,1.4c-1.938,0.162-4.2-0.054-6.193,0.484
	c-1.992,0.539-3.716,1.831-5.224,1.616c-1.508-0.216-2.8-1.938-4.039-3.339c-1.238-1.4-2.423-2.478-3.608-3.932
	c-1.185-1.454-2.369-3.285-3.393-4.738c-1.023-1.455-1.885-2.531-1.292-3.124c0.592-0.593,2.639-0.7,3.23-2.154
	c0.593-1.454-0.269-4.254-1.615-6.731c-1.346-2.478-3.177-4.631-4.954-7.755c-1.777-3.124-3.5-7.216-5.008-10.501
	c-1.508-3.285-2.8-5.763-4.632-7.809c-1.831-2.047-4.2-3.662-6.085-6.247c-1.885-2.585-3.285-6.14-4.039-9.155
	c-0.754-3.016-0.862-5.493-1.077-7.701s-0.539-4.146-1.185-6.408s-1.616-4.847-1.777-7.862s0.485-6.463-0.7-10.071
	c-1.185-3.607-4.201-7.377-6.085-9.963c-1.885-2.584-2.639-3.984-3.77-6.031c-1.131-2.046-2.639-4.738-3.904-6.974
	c-1.266-2.234-2.289-4.012-3.393-5.52s-2.289-2.747-3.258-3.959s-1.723-2.396-2.127-4.012c-0.404-1.615-0.458-3.662-0.188-5.708
	c0.27-2.047,0.862-4.093,0.916-5.682s-0.431-2.72-0.27-3.501c0.162-0.78,0.969-1.211,1.535-2.073
	c0.565-0.861,0.889-2.154,1.319-3.312c0.431-1.158,0.97-2.182,1.319-3.985c0.351-1.804,0.512-4.389,0.808-6.301
	c0.296-1.911,0.727-3.149,1.104-4.442c0.377-1.292,0.7-2.639,1.373-3.932c0.673-1.292,1.696-2.53,2.935-3.204
	c1.239-0.673,2.693-0.78,3.581-1.696c0.889-0.915,1.212-2.639,1.32-5.062c0.107-2.424,0-5.548-0.835-7.971
	c-0.835-2.424-2.397-4.146-3.555-6.517c-1.158-2.369-1.912-5.385-1.75-7.594c0.162-2.208,1.239-3.607,1.266-4.954
	c0.027-1.346-0.996-2.639-1.508-4.551c-0.512-1.911-0.512-4.443-1.373-7.001c-0.862-2.558-2.585-5.143-3.877-7.513
	c-1.293-2.369-2.154-4.523-2.693-6.139c-0.539-1.615-0.754-2.692-3.016-5.17c-2.262-2.478-6.57-6.354-9.64-9.909
	c-3.069-3.554-4.9-6.785-6.678-9.424c-1.777-2.64-3.5-4.686-4.577-6.463c-1.077-1.776-1.508-3.285-1.185-5.331
	c0.323-2.047,1.399-4.632,2.046-7.324s0.862-5.493,0.916-7.54c0.053-2.046-0.054-3.338,0.646-4.792s2.208-3.069,2.962-5.439
	c0.754-2.369,0.754-5.493,0.431-7.54s-0.969-3.016-1.562-3.931s-1.131-1.777-2.154-2.154c-1.023-0.377-2.532-0.27-3.447-0.97
	c-0.916-0.7-1.238-2.208-1.777-3.365c-0.539-1.158-1.292-1.966-2.1-2.074c-0.808-0.108-1.669,0.485-3.042,0.728
	c-1.374,0.242-3.258,0.134-4.604,0.081c-1.346-0.054-2.154-0.054-3.07,0.108c-0.916,0.161-1.939,0.484-2.962,0.781
	c-1.023,0.296-2.046,0.565-3.393,0.673c-1.346,0.107-3.016,0.054-4.362-0.619c-1.347-0.674-2.37-1.966-2.935-3.366
	c-0.565-1.4-0.673-2.908-0.754-4.146c-0.081-1.239-0.135-2.208-0.646-2.962c-0.512-0.754-1.481-1.292-2.72-2.235
	s-2.747-2.289-3.877-3.15c-1.131-0.862-1.885-1.239-3.097-1.104s-2.881,0.781-4.254,0.754s-2.45-0.727-3.339-0.727
	c-0.888,0-1.589,0.7-2.612,1.104c-1.023,0.403-2.37,0.511-3.797,0.727c-1.427,0.215-2.935,0.539-4.281,0.7s-2.531,0.162-3.393,0.781
	c-0.862,0.619-1.4,1.858-2.451,2.451c-1.05,0.592-2.611,0.538-4.254,0.511s-3.366-0.027-4.847,0.35
	c-1.481,0.377-2.72,1.131-4.12,2.154c-1.4,1.023-2.962,2.315-4.604,3.177c-1.643,0.861-3.366,1.292-5.089,1.616
	c-1.723,0.323-3.446,0.539-4.739,0.162s-2.154-1.346-3.474-1.912c-1.319-0.565-3.097-0.727-5.169-0.942
	c-2.074-0.216-4.443-0.485-5.978-0.808c-1.535-0.323-2.235-0.7-3.5-0.673c-1.266,0.027-3.097,0.458-4.766,0.673
	c-1.67,0.215-3.178,0.215-4.712,0.485c-1.535,0.269-3.096,0.808-4.766,1.696c-1.669,0.888-3.446,2.127-5.224,3.016
	s-3.554,1.427-5.358,1.562c-1.804,0.135-3.635-0.134-4.847-1.077c-1.211-0.942-1.804-2.558-2.747-3.662s-2.235-1.696-3.851-2.72
	c-1.616-1.023-3.554-2.477-4.981-3.904c-1.427-1.427-2.343-2.827-3.555-3.635c-1.211-0.808-2.719-1.023-4.039-1.669
	c-1.319-0.646-2.451-1.724-3.635-3.069c-1.185-1.347-2.424-2.962-4.281-4.335c-1.858-1.374-4.335-2.504-6.004-3.608
	c-1.67-1.104-2.531-2.181-2.585-3.474c-0.054-1.292,0.7-2.8,0.781-4.065c0.081-1.266-0.512-2.289-0.673-3.555
	s0.107-2.773-0.404-3.689c-0.512-0.916-1.804-1.238-2.478-1.858c-0.673-0.619-0.727-1.535-1.212-2.1
	c-0.484-0.565-1.4-0.781-2.315-1.32c-0.915-0.539-1.831-1.4-2.935-2.181c-1.104-0.781-2.396-1.481-2.908-2.747
	c-0.511-1.266-0.242-3.097-0.646-4.146c-0.404-1.05-1.481-1.32-2.666-1.832c-1.185-0.511-2.477-1.265-3.204-2.019
	c-0.727-0.754-0.889-1.508-1.508-2.182c-0.619-0.673-1.696-1.266-2.262-1.912c-0.565-0.646-0.62-1.346-1.077-1.885
	s-1.319-0.916-1.938-1.696c-0.62-0.781-0.997-1.966-0.97-3.042c0.027-1.077,0.458-2.047,0.592-3.258
	c0.135-1.212-0.026-2.666,0.404-3.581c0.431-0.916,1.455-1.292,1.993-2.127s0.592-2.127-0.135-3.366
	c-0.727-1.239-2.235-2.423-2.827-3.473c-0.593-1.051-0.27-1.966,0.242-2.774c0.511-0.808,1.212-1.508,1.724-2.531
	c0.511-1.023,0.834-2.37,1.4-3.446c0.565-1.077,1.373-1.885,2.073-2.935c0.7-1.05,1.292-2.343,1.454-3.582
	c0.161-1.238-0.108-2.423,0.376-3.715c0.485-1.293,1.724-2.693,2.478-4.174s1.023-3.043,1.319-4.766
	c0.296-1.724,0.62-3.608,0.539-5.655s-0.565-4.254-0.404-6.032c0.161-1.777,0.969-3.124,1.535-4.523
	c0.565-1.4,0.889-2.854,0.7-4.146c-0.189-1.293-0.889-2.424-1.777-3.582c-0.888-1.158-1.965-2.343-2.477-3.393
	c-0.512-1.05-0.458-1.966-0.108-3.447c0.35-1.481,0.996-3.527,2.208-4.604c1.211-1.077,2.989-1.185,3.635-2.046
	c0.646-0.862,0.161-2.477,0.673-3.689c0.511-1.211,2.02-2.02,3.016-3.447s1.481-3.474,2.8-5.008c1.32-1.535,3.474-2.558,5.305-3.742
	c1.831-1.185,3.339-2.532,3.77-3.716c0.431-1.185-0.215-2.208-0.269-3.15c-0.054-0.943,0.485-1.804,1.023-2.666
	s1.077-1.723,1.588-2.396c0.511-0.673,0.997-1.158,1.292-1.723s0.404-1.211,1.023-1.643c0.619-0.431,1.75-0.646,2.801-1.211
	c1.05-0.565,2.019-1.481,3.016-2.397c0.996-0.915,2.02-1.831,2.639-2.935c0.619-1.104,0.834-2.396,1.615-3.5s2.127-2.02,3.366-2.558
	c1.239-0.539,2.37-0.7,3.662-0.808c1.292-0.108,2.746-0.162,4.12-0.565c1.373-0.404,2.666-1.158,3.77-1.831
	c1.104-0.673,2.02-1.266,2.531-1.966c0.512-0.7,0.619-1.508,1.158-1.911c0.539-0.404,1.508-0.404,2.639-0.808s2.424-1.212,3.5-2.531
	s1.938-3.15,2.908-4.066c0.969-0.916,2.046-0.916,2.639-1.696c0.592-0.781,0.7-2.343,0.673-3.608s-0.188-2.234-0.054-3.392
	c0.134-1.158,0.565-2.505,1.104-3.609s1.185-1.965,2.208-2.961c1.023-0.997,2.423-2.127,3.5-3.5
	c1.077-1.374,1.831-2.989,2.773-4.066c0.942-1.077,2.073-1.616,3.042-2.45c0.969-0.835,1.777-1.966,2.773-2.37
	c0.996-0.404,2.181-0.081,3.716-0.296s3.42-0.969,4.766-1.858s2.154-1.912,3.366-3.5s2.827-3.743,4.201-5.87
	c1.373-2.127,2.504-4.227,3.688-5.412c1.185-1.185,2.423-1.455,3.312-1.212c0.889,0.242,1.427,0.996,1.939,1.643
	c0.511,0.646,0.996,1.185,1.239,1.938c0.242,0.753,0.242,1.723,0.619,2.45s1.131,1.212,2.423,1.212s3.124-0.485,4.793-0.565
	c1.669-0.081,3.177,0.242,4.793,0.484c1.615,0.243,3.339,0.404,4.712,0.62c1.374,0.215,2.396,0.484,3.554-0.027
	c1.158-0.511,2.45-1.804,3.42-2.8c0.969-0.996,1.616-1.696,2.693-2.073s2.585-0.431,4.093-0.431s3.016,0.054,4.012-0.484
	c0.996-0.539,1.481-1.67,2.451-2.478s2.423-1.292,4.362-1.562c1.938-0.27,4.362-0.323,6.301-0.35
	c1.938-0.027,3.392-0.027,4.981-0.458c1.588-0.431,3.312-1.293,5.197-1.589c1.885-0.296,3.931-0.027,5.843,0.242
	c1.912,0.269,3.688,0.539,4.658,1.023c0.969,0.485,1.13,1.185,2.019,1.212s2.504-0.62,4.066-1.158
	c1.562-0.539,3.069-0.969,4.523-1.131c1.454-0.162,2.854-0.054,4.093,0.323c1.238,0.377,2.315,1.023,3.312,0.942
	c0.996-0.081,1.912-0.889,2.558-1.077s1.023,0.242,2.396,0.269s3.743-0.35,5.924-0.727c2.181-0.377,4.174-0.753,5.385-0.403
	c1.212,0.35,1.643,1.427,2.773,2.019s2.962,0.7,3.824,0.97c0.861,0.269,0.753,0.7,0.081,1.185c-0.673,0.485-1.912,1.023-2.612,1.938
	c-0.7,0.916-0.862,2.208-0.673,3.151c0.188,0.942,0.727,1.534,1.481,2.019c0.753,0.485,1.723,0.862,2.181,1.697
	c0.458,0.834,0.404,2.127-0.108,3.069c-0.511,0.942-1.48,1.535-2.073,2.316c-0.593,0.781-0.808,1.75-1.481,2.343
	c-0.673,0.592-1.804,0.808-2.719,1.615c-0.916,0.808-1.616,2.208-1.185,3.366s1.993,2.073,3.366,2.477
	c1.374,0.404,2.558,0.296,3.124,0.754c0.565,0.458,0.512,1.481,0.969,1.966c0.458,0.484,1.427,0.431,2.423,0.834
	c0.997,0.404,2.02,1.266,3.178,1.912c1.158,0.646,2.451,1.077,3.985,1.347c1.535,0.269,3.312,0.377,4.981,0.323
	c1.67-0.054,3.231-0.269,4.658,0.081c1.427,0.35,2.72,1.266,4.066,1.831c1.346,0.565,2.746,0.781,3.716,1.131
	c0.969,0.35,1.508,0.834,1.643,1.48c0.135,0.646-0.135,1.454,0,2.585c0.135,1.131,0.673,2.585,1.885,3.42
	c1.212,0.834,3.097,1.05,5.789,1.373c2.693,0.323,6.193,0.754,8.024,1.481s1.993,1.75,3.447,2.585s4.2,1.481,5.762,2.154
	s1.939,1.373,2.639,1.454c0.7,0.081,1.724-0.458,2.908-1.185c1.186-0.728,2.531-1.643,3.366-2.37s1.158-1.266,0.889-2.181
	c-0.27-0.916-1.131-2.208-1.508-3.582c-0.377-1.374-0.27-2.827,0.512-3.931c0.781-1.104,2.235-1.858,3.339-2.827
	c1.104-0.97,1.857-2.154,2.801-2.854c0.941-0.7,2.072-0.916,3.635-1.104c1.562-0.188,3.554-0.35,5.089-0.565
	s2.611-0.484,3.446-0.027c0.835,0.458,1.427,1.643,2.262,2.262s1.912,0.673,2.478,1.104s0.619,1.238,1.266,1.696
	c0.646,0.458,1.885,0.565,3.097,0.727s2.396,0.377,3.365,0.835c0.97,0.458,1.724,1.158,2.612,1.373s1.912-0.054,2.558,0.35
	c0.646,0.404,0.916,1.481,1.966,2.127c1.051,0.646,2.882,0.861,5.116,0.861c2.235,0,4.874-0.215,6.975-0.188
	c2.1,0.027,3.662,0.296,4.98,0.727c1.32,0.431,2.396,1.023,3.582,1.131c1.185,0.108,2.477-0.269,3.661,0
	c1.186,0.27,2.263,1.185,3.313,1.481c1.05,0.296,2.073-0.027,3.258-0.565s2.531-1.292,3.77-1.669s2.369-0.377,3.634-0.915
	c1.266-0.539,2.665-1.615,4.28-1.938c1.616-0.323,3.447,0.107,5.063,0.646c1.616,0.539,3.016,1.185,4.12,1.723
	c1.104,0.539,1.911,0.969,3.554,1.05s4.12-0.188,5.951-0.539s3.016-0.781,4.2-0.161c1.186,0.619,2.37,2.289,2.854,3.581
	c0.485,1.292,0.27,2.208,0.619,3.339c0.351,1.131,1.266,2.478,1.428,4.282c0.161,1.804-0.431,4.066-0.261,6.085
	c0.171,2.019,1.104,3.794,1.077,5.329c-0.027,1.535-1.015,2.829-1.992,3.26c-0.979,0.431-1.948,0-2.782-1.05
	c-0.835-1.05-1.535-2.719-2.433-4.729c-0.896-2.01-1.989-4.359-3.052-5.878s-2.094-2.206-3.244-2.216
	c-1.149-0.01-2.417,0.657-2.89,1.719c-0.473,1.061-0.149,2.515,0.739,3.726c0.889,1.212,2.343,2.181,3.285,3.447
	s1.373,2.827,2.208,4.146c0.835,1.32,2.073,2.396,2.692,3.608c0.619,1.211,0.619,2.558,1.077,4.066s1.374,3.177,2.396,4.793
	c1.023,1.615,2.154,3.177,3.501,5.035c1.346,1.858,2.907,4.012,4.119,5.897c1.212,1.885,2.074,3.5,3.636,4.793
	s3.823,2.262,4.361,2.908c0.539,0.646-0.646,0.969-1.185,1.211c-0.538,0.243-0.431,0.404-0.512,1.05
	c-0.08,0.646-0.35,1.777,0.027,3.07c0.377,1.292,1.4,2.746,2.531,3.796s2.369,1.696,3.501,2.316c1.13,0.619,2.154,1.211,3.177,2.315
	c1.023,1.104,2.047,2.72,2.773,4.201c0.728,1.481,1.158,2.827,1.508,4.55c0.351,1.723,0.62,3.824,0.97,5.655s0.78,3.393,1.238,4.847
	c0.458,1.454,0.942,2.8,1.185,4.281c0.242,1.481,0.242,3.097,1.212,4.255c0.97,1.158,2.908,1.857,4.2,2.396
	c1.293,0.539,1.939,0.916,2.586,1.723c0.646,0.808,1.292,2.046,2.019,2.639c0.728,0.592,1.535,0.538,2.289,1.211
	s1.454,2.073,1.966,3.285s0.835,2.235,0.996,3.5c0.162,1.265,0.162,2.773,0.861,4.254c0.701,1.481,2.101,2.936,2.773,4.497
	c0.674,1.562,0.619,3.231,1.589,4.228s2.962,1.319,4.497,1.669c1.534,0.35,2.611,0.727,3.688,1.4
	c1.077,0.673,2.154,1.643,3.285,2.612s2.315,1.938,3.258,3.016c0.941,1.077,1.643,2.262,2.907,3.527
	c1.266,1.266,3.097,2.612,4.767,3.796c1.669,1.185,3.177,2.208,4.442,3.151s2.289,1.804,3.07,2.639
	c0.78,0.834,1.319,1.643,1.265,2.72c-0.054,1.077-0.7,2.423-1.776,3.097c-1.077,0.673-2.585,0.673-3.474,1.104
	s-1.158,1.292-0.835,1.993s1.238,1.239,2.315,1.4c1.077,0.161,2.316-0.054,3.313,0.646s1.75,2.316,3.123,3.716
	c1.373,1.4,3.366,2.585,5.305,3.312s3.823,0.997,5.438,0.404c1.616-0.593,2.963-2.047,4.848-2.828
	c1.885-0.781,4.309-0.889,5.735-0.808c1.427,0.081,1.857,0.35,2.611-0.081c0.755-0.431,1.831-1.562,3.07-2.396
	c1.238-0.835,2.639-1.374,3.635-1.4c0.996-0.027,1.589,0.458,2.315,0.539c0.728,0.081,1.589-0.243,2.451-0.566
	c0.861-0.323,1.723-0.646,2.639-0.619c0.915,0.027,1.885,0.404,3.069,0.296c1.185-0.108,2.585-0.7,3.823-1.077
	c1.239-0.377,2.315-0.539,3.285-0.835s1.831-0.727,2.639-1.158c0.808-0.431,1.563-0.862,1.858-1.642
	c0.296-0.781,0.135-1.912,0.915-2.316c0.781-0.404,2.504-0.081,3.662,0.35c1.158,0.431,1.75,0.969,1.67,1.589
	c-0.081,0.619-0.835,1.319-1.023,2.531c-0.188,1.212,0.188,2.936,0.619,4.417c0.431,1.48,0.916,2.719,0.377,3.284
	c-0.538,0.566-2.1,0.458-2.612,1.32c-0.511,0.862,0.027,2.692,0.216,4.658s0.027,4.066-0.457,5.089
	c-0.485,1.023-1.293,0.969-1.697,1.346c-0.403,0.377-0.403,1.185-0.512,2.208c-0.107,1.023-0.323,2.262-0.78,3.15
	c-0.458,0.889-1.158,1.428-1.724,2.612c-0.565,1.185-0.996,3.016-1.643,4.255c-0.646,1.238-1.508,1.884-2.1,2.935
	c-0.593,1.05-0.916,2.504-1.293,3.5s-0.808,1.535-1.266,2.719c-0.458,1.185-0.942,3.016-1.347,4.471
	c-0.403,1.454-0.727,2.531-1.373,3.581c-0.646,1.05-1.615,2.073-2.369,3.177c-0.755,1.104-1.293,2.289-1.966,2.881
	c-0.674,0.592-1.481,0.592-2.451,1.589c-0.969,0.996-2.1,2.989-2.692,4.739c-0.592,1.75-0.646,3.258-1.938,4.712
	c-1.293,1.454-3.823,2.854-5.17,3.985s-1.508,1.993-1.885,2.693s-0.97,1.238-1.696,1.669c-0.728,0.431-1.589,0.754-2.396,1.346
	s-1.562,1.454-2.208,2.02s-1.185,0.834-1.724,0.808c-0.538-0.027-1.076-0.35-1.669-0.162c-0.592,0.188-1.239,0.889-2.127,1.696
	c-0.889,0.809-2.02,1.724-3.097,2.424s-2.101,1.185-2.988,1.75c-0.889,0.565-1.644,1.212-2.074,2.073s-0.538,1.938-1.266,2.827
	c-0.727,0.889-2.073,1.589-3.446,2.989c-1.373,1.399-2.773,3.5-4.093,4.981c-1.319,1.48-2.558,2.343-3.42,3.177
	c-0.861,0.835-1.346,1.644-2.02,2.801c-0.673,1.158-1.534,2.666-2.988,4.389c-1.454,1.724-3.501,3.662-4.981,4.686
	c-1.481,1.023-2.396,1.131-2.854,1.912s-0.458,2.234-1.212,2.907c-0.754,0.674-2.262,0.565-3.016,0.942
	c-0.754,0.378-0.754,1.239-1.023,2.289c-0.27,1.051-0.808,2.289-1.185,3.339c-0.377,1.051-0.592,1.912-0.78,3.124
	s-0.351,2.773-1.455,4.012c-1.104,1.238-3.15,2.154-4.173,3.177c-1.023,1.023-1.023,2.154-0.942,3.259
	c0.08,1.104,0.242,2.181-0.188,3.392c-0.431,1.212-1.454,2.559-1.912,3.824s-0.35,2.45,0.377,3.231s2.073,1.157,2.612,1.831
	c0.538,0.673,0.269,1.643,0.08,3.042c-0.188,1.4-0.296,3.231-0.08,4.793c0.215,1.563,0.754,2.854,0.861,4.013
	s-0.215,2.181-0.188,3.688c0.027,1.509,0.404,3.501,0.458,5.144s-0.216,2.935,0.242,4.119c0.458,1.186,1.643,2.262,2.369,3.097
	c0.728,0.835,0.997,1.428,2.073,2.02c1.077,0.593,2.962,1.185,3.743,1.966c0.78,0.781,0.458,1.75,0.107,2.666
	c-0.35,0.915-0.727,1.777-0.969,2.907c-0.242,1.131-0.351,2.531-0.243,3.716c0.108,1.185,0.431,2.154,0.646,2.935
	c0.216,0.781,0.323,1.374,0.188,2.02c-0.135,0.646-0.512,1.347-0.431,2.182c0.081,0.834,0.619,1.804,0.727,2.558
	c0.108,0.754-0.215,1.293-0.431,2.182c-0.215,0.888-0.322,2.127-0.512,3.258c-0.188,1.131-0.457,2.154-0.35,3.23
	c0.107,1.077,0.592,2.209,0.996,3.017s0.728,1.292,0.942,2.262c0.216,0.969,0.323,2.423-0.081,3.474
	c-0.403,1.05-1.318,1.696-1.885,2.611c-0.565,0.916-0.78,2.101-1.266,2.962c-0.484,0.861-1.238,1.4-2.1,2.396
	c-0.861,0.997-1.831,2.451-2.531,3.501s-1.131,1.696-1.885,2.046c-0.754,0.351-1.831,0.404-2.639,0.916
	c-0.809,0.512-1.347,1.48-2.235,2.073c-0.889,0.592-2.127,0.808-3.231,1.077c-1.104,0.27-2.073,0.593-3.285,0.808
	c-1.211,0.216-2.665,0.323-3.554,0.781c-0.889,0.457-1.212,1.265-2.047,1.992c-0.835,0.727-2.181,1.373-3.204,1.966
	c-1.023,0.592-1.724,1.13-2.289,1.991c-0.565,0.862-0.997,2.047-1.831,2.747c-0.835,0.7-2.073,0.915-3.097,1.077
	c-1.023,0.161-1.831,0.269-2.37,1.023c-0.538,0.754-0.808,2.154-1.319,2.881c-0.511,0.727-1.266,0.78-2.208,1.185
	c-0.942,0.403-2.073,1.157-2.827,1.965c-0.754,0.809-1.131,1.67-1.938,2.559s-2.046,1.804-2.854,2.692
	c-0.808,0.889-1.185,1.751-1.157,2.585c0.026,0.835,0.457,1.643,1.157,2.262c0.7,0.62,1.67,1.051,1.993,1.67s0,1.427-0.135,2.396
	c-0.135,0.969-0.081,2.101,0.377,3.177c0.458,1.077,1.319,2.101,1.938,2.962c0.619,0.862,0.996,1.563,0.861,2.451
	s-0.78,1.965-1.238,3.042s-0.727,2.154-0.781,3.178c-0.054,1.023,0.108,1.992-0.107,3.204c-0.215,1.212-0.808,2.666-1.212,3.688
	c-0.403,1.023-0.619,1.616-0.673,2.559s0.054,2.234-0.162,2.908c-0.215,0.673-0.753,0.727-1.642,0.969s-2.128,0.674-3.662,1.158
	c-1.535,0.484-3.366,1.023-5.144,1.534c-1.777,0.513-3.5,0.997-4.47,1.805s-1.185,1.938-2.02,2.478
	c-0.834,0.538-2.288,0.484-3.204,0.808c-0.915,0.323-1.293,1.023-1.131,1.938c0.161,0.916,0.862,2.046,1.427,3.123
	c0.565,1.077,0.996,2.101,0.862,2.828c-0.135,0.727-0.835,1.157-1.077,2.208c-0.242,1.05-0.027,2.719-0.565,3.984
	c-0.539,1.266-1.831,2.128-2.316,3.178c-0.484,1.05-0.161,2.289-0.322,3.285c-0.162,0.996-0.809,1.75-1.67,2.531
	c-0.861,0.78-1.938,1.588-3.608,2.558c-1.669,0.969-3.931,2.101-5.277,3.312c-1.347,1.212-1.777,2.505-2.208,3.771
	c-0.431,1.265-0.861,2.504-1.427,3.446s-1.266,1.589-1.804,2.585c-0.539,0.996-0.916,2.343-1.67,3.177
	c-0.754,0.835-1.885,1.158-2.935,1.724s-2.02,1.373-2.882,2.369c-0.861,0.997-1.615,2.182-2.746,3.124s-2.639,1.643-3.635,2.611
	c-0.997,0.97-1.481,2.209-2.289,3.124s-1.939,1.508-2.962,1.992c-1.023,0.485-1.939,0.862-3.394,1.589
	c-1.453,0.728-3.446,1.805-5.304,2.234c-1.858,0.432-3.582,0.216-4.739,0.701c-1.158,0.484-1.75,1.669-2.827,2.262
	s-2.64,0.593-4.309,0.593s-3.446,0-4.846,0.107S350.598,685.485,349.278,685.485L349.278,685.485z M560.454,541.974
	c-0.157-1.461-0.265-3.508-0.614-5.016c-0.351-1.508-0.942-2.478-1.158-4.658c-0.215-2.181-0.054-5.573-0.242-8.024
	c-0.188-2.45-0.727-3.958-1.508-5.385c-0.781-1.428-1.805-2.773-2.316-3.959c-0.511-1.185-0.511-2.207-0.808-2.181
	c-0.296,0.027-0.889,1.104-1.643,1.858c-0.753,0.754-1.669,1.185-2.019,2.234c-0.351,1.05-0.135,2.72-0.081,3.985
	s-0.054,2.128-0.485,2.881c-0.431,0.754-1.185,1.4-2.073,1.724c-0.888,0.323-1.911,0.323-2.719,0.081
	c-0.809-0.242-1.4-0.728-1.858-0.485c-0.458,0.243-0.781,1.212-0.7,2.316c0.081,1.104,0.565,2.342,0.377,3.23
	s-1.05,1.428-1.831,1.535c-0.78,0.107-1.48-0.215-1.75,0.135s-0.107,1.373,0.054,2.208c0.162,0.835,0.323,1.48,0.081,1.911
	c-0.242,0.432-0.889,0.646-1.319,1.077c-0.431,0.432-0.646,1.077-1.293,0.997c-0.646-0.081-1.723-0.889-2.53-0.809
	c-0.809,0.081-1.347,1.051-1.912,2.047s-1.158,2.02-2.289,2.531s-2.8,0.512-3.581,0.808c-0.781,0.297-0.673,0.889-1.293,1.212
	c-0.619,0.323-1.965,0.377-3.069,0.377c-1.104,0-1.965-0.054-2.423,0.188s-0.512,0.78-1.104,0.942
	c-0.593,0.161-1.724-0.054-2.611-0.108c-0.889-0.054-1.535,0.055-2.128,0.404c-0.592,0.35-1.131,0.942-1.185,1.589
	s0.377,1.347,0.296,1.992c-0.08,0.646-0.673,1.239-0.889,1.777c-0.215,0.539-0.053,1.023-0.242,1.75
	c-0.188,0.728-0.727,1.697-1.508,2.37c-0.78,0.673-1.804,1.05-2.153,1.804c-0.351,0.754-0.027,1.885-0.055,3.77
	c-0.026,1.885-0.403,4.523,0.081,6.112s1.831,2.128,2.504,2.962c0.674,0.835,0.674,1.966,0.323,3.017
	c-0.35,1.05-1.05,2.019-1.292,2.8c-0.243,0.781-0.027,1.373-0.216,2.181s-0.781,1.832-1.562,2.854
	c-0.781,1.023-1.75,2.047-2.369,3.259c-0.62,1.211-0.889,2.611-1.32,3.554c-0.431,0.942-1.022,1.428-1.804,1.858
	s-1.75,0.808-2.612,1.75c-0.861,0.942-1.615,2.45-1.669,4.146s0.593,3.581,1.158,4.819c0.564,1.239,1.05,1.832,1.05,3.501
	c0,1.67-0.485,4.416-0.539,6.813s0.324,4.443,0.943,5.951s1.48,2.477,2.585,3.123c1.104,0.646,2.45,0.97,3.204,1.562
	c0.754,0.593,0.915,1.454,1.804,1.805c0.889,0.35,2.504,0.188,4.039-0.188c1.534-0.377,2.989-0.97,4.066-1.023
	s1.777,0.431,2.827,0.484c1.05,0.055,2.45-0.323,3.123-0.969c0.673-0.646,0.619-1.563,1.319-2.531c0.7-0.97,2.154-1.992,2.962-3.42
	c0.809-1.427,0.97-3.258,1.589-4.47s1.696-1.805,2.343-2.908c0.646-1.104,0.861-2.72,1.265-4.146
	c0.404-1.428,0.997-2.666,1.697-3.958c0.699-1.293,1.508-2.64,2.154-3.905s1.131-2.45,2.046-4.227
	c0.916-1.777,2.262-4.147,2.908-6.086s0.593-3.446,1.347-5.331s2.315-4.147,3.446-6.409s1.831-4.523,2.639-5.95
	c0.809-1.428,1.724-2.02,2.343-2.72s0.942-1.508,1.104-2.559c0.162-1.05,0.162-2.342,0.188-3.527
	c0.027-1.185,0.081-2.262,0.358-2.974s0.779-1.06,1.11-1.261c0.332-0.2,0.493-0.254,0.628-0.847c0.135-0.592,0.243-1.724-0.269-2.72
	s-1.643-1.857-2.299-3.107s-0.838-2.889-0.382-4.427s1.55-2.975,2.278-2.736c0.729,0.239,1.093,2.154,1.788,3.639
	s1.723,2.538,2.822,2.518c1.099-0.02,2.271-1.114,2.754-2.099C560.818,544.309,560.611,543.434,560.454,541.974z"/>
</svg>
