<?xml version="1.0" encoding="utf-8"?>
<!-- Generator: Adobe Illustrator 15.1.0, SVG Export Plug-In . SVG Version: 6.00 Build 0)  -->
<!DOCTYPE svg PUBLIC "-//W3C//DTD SVG 1.1//EN" "http://www.w3.org/Graphics/SVG/1.1/DTD/svg11.dtd">
<svg version="1.1" id="Layer_1" xmlns="http://www.w3.org/2000/svg" xmlns:xlink="http://www.w3.org/1999/xlink" x="0px" y="0px"
	 width="792px" height="612px" viewBox="0 0 792 612" enable-background="new 0 0 792 612" xml:space="preserve">
<path fill-rule="evenodd" clip-rule="evenodd" stroke="#000000" stroke-width="2.9999" stroke-linecap="round" stroke-linejoin="round" stroke-miterlimit="22.9256" d="
	M213.208,323.119c-1.141,0.08-2.358,0.486-3.931,1.044c-1.573,0.559-3.5,1.269-4.717,2.131c-1.218,0.862-1.725,1.877-0.964,2.941
	c0.761,1.066,2.79,2.182,4.464,4.109c1.674,1.928,2.993,4.667,3.754,6.949c0.761,2.283,0.963,4.109,2.079,5.428
	c1.116,1.318,3.145,2.131,4.667,4.312c1.522,2.182,2.536,5.732,3.855,5.833c1.319,0.102,2.941-3.246,3.601-3.397
	c0.66-0.152,0.355,2.891,0.914,4.92c0.558,2.029,1.978,3.044,4.108,3.196c2.13,0.151,4.971-0.559,7.508-1.979
	c2.536-1.42,4.768-3.55,6.442-5.528s2.79-3.805,3.855-3.602c1.065,0.203,2.08,2.435,2.536,4.515c0.456,2.079,0.355,4.007,1.217,5.63
	c0.862,1.624,2.688,2.942,4.616,3.552c1.927,0.608,3.957,0.507,5.884,0.761c1.927,0.254,3.753,0.862,4.362,1.826
	c0.608,0.964,0,2.282,1.015,3.551c1.014,1.268,3.652,2.485,4.108,3.702c0.457,1.218-1.268,2.436-2.84,3.754
	s-2.993,2.739-4.159,4.363c-1.167,1.623-2.08,3.449-2.892,5.884c-0.812,2.435-1.521,5.479-2.738,7.151
	c-1.218,1.675-2.942,1.979-4.414,2.893c-1.471,0.913-2.688,2.435-3.246,3.956c-0.558,1.522-0.457,3.044-1.522,3.602
	s-3.297,0.152-6.341,0.305s-6.898,0.862-9.13,1.826s-2.84,2.181-3.297,3.854c-0.457,1.675-0.762,3.805-2.384,4.769
	c-1.624,0.964-4.565,0.762-7.66,1.472c-3.094,0.71-6.34,2.333-9.841,4.615c-3.5,2.283-7.253,5.226-11.413,7
	c-4.16,1.776-8.725,2.385-11.565,1.928c-2.841-0.456-3.957-1.978-4.515-4.108c-0.558-2.13-0.558-4.87-1.116-7.457
	s-1.674-5.021-1.218-6.695c0.456-1.674,2.485-2.588,2.08-4.972c-0.406-2.384-3.247-6.239-6.239-10.094
	c-2.993-3.855-6.138-7.711-8.471-10.399c-2.333-2.688-3.856-4.21-5.022-6.695c-1.167-2.485-1.979-5.936-2.486-8.929
	c-0.507-2.992-0.71-5.528-1.725-7.558c-1.014-2.028-2.84-3.551-5.225-5.174s-5.327-3.348-6.645-5.479
	c-1.319-2.131-1.015-4.667-1.928-7.305c-0.913-2.638-3.043-5.377-4.971-7.051s-3.652-2.282-5.479-2.231s-3.753,0.761-5.123,0.151
	c-1.37-0.608-2.181-2.536-3.094-5.174s-1.928-5.985-3.45-9.08c-1.521-3.094-3.551-5.935-3.449-6.797s2.333,0.254,4.312,0.862
	s3.703,0.711,5.073-0.405s2.384-3.45,2.993-5.479c0.608-2.029,0.812-3.754,1.176-5.481c0.365-1.728,0.892-3.459,1.47-5.854
	c0.578-2.396,1.208-5.455,1.568-7.975c0.36-2.52,0.45-4.499-0.81-5.714c-1.26-1.215-3.87-1.665-6.209-1.17
	c-2.34,0.495-4.41,1.935-7.829,1.89c-3.419-0.045-8.189-1.574-11.023-1.439c-2.835,0.135-3.734,1.935-5.174,2.609
	s-3.419,0.225-4.769-0.675s-2.069-2.25-3.464-2.925c-1.395-0.675-3.464-0.675-4.769-1.889c-1.305-1.215-1.845-3.645-4.004-5.309
	c-2.16-1.665-5.939-2.565-7.514-4.094c-1.575-1.53-0.945-3.69,0.72-4.41c1.665-0.72,4.364,0,5.354-0.585s0.27-2.474-1.215-4.229
	c-1.485-1.755-3.734-3.374-3.014-4.634c0.719-1.26,4.409-2.16,8.953-1.575c4.544,0.585,9.943,2.654,10.934,2.07
	c0.99-0.585-2.43-3.825-2.025-5.444c0.405-1.62,4.634-1.62,7.694-1.979c3.059-0.36,4.949-1.08,8.009-1.035
	c3.059,0.045,7.289,0.855,10.438,1.665c3.149,0.81,5.219,1.62,9.403,2.115c4.184,0.495,10.483,0.675,14.308,0.585
	s5.174-0.45,5.579-1.755c0.405-1.305-0.135-3.554-2.16-5.713c-2.025-2.16-5.534-4.23-3.689-4.994
	c1.845-0.765,9.043-0.226,12.913,1.125c3.869,1.35,4.409,3.509,6.839,4.229c2.429,0.72,6.749,0,9.493,0.72
	c2.745,0.72,3.915,2.879,6.434,3.959c2.52,1.08,6.389,1.08,9.493,1.89c3.104,0.81,5.444,2.43,6.974,4.095
	c1.53,1.665,2.249,3.374,1.62,4.679c-0.63,1.305-2.61,2.205-3.824,4.005c-1.215,1.799-1.665,4.499-1.44,6.389
	s1.125,2.969,2.564,3.554c1.44,0.585,3.419,0.675,5.174,1.8c1.754,1.125,3.284,3.284,6.614,4.454c3.33,1.17,8.458,1.35,11.293,0.135
	c2.835-1.215,3.375-3.824,2.295-6.389c-1.08-2.565-3.779-5.084-5.444-7.244s-2.294-3.959-3.24-5.804
	c-0.944-1.845-2.204-3.734-1.889-4.68c0.315-0.945,2.205-0.945,3.915-1.89c1.709-0.945,3.239-2.834,2.25-4.813
	c-0.99-1.98-4.5-4.05-6.704-4.365s-3.104,1.125-4.14,1.215c-1.035,0.09-2.204-1.17-2.879-2.879c-0.675-1.709-0.855-3.87-1.98-5.399
	c-1.125-1.529-3.194-2.429-5.129-3.352s-3.734-1.868-3.778-2.834c-0.045-0.967,1.664-1.957,2.879-2.204
	c1.215-0.248,1.935,0.247,2.228-0.225c0.292-0.473,0.158-1.913,1.26-2.857c1.103-0.945,3.441-1.395,4.657-2.294
	c1.215-0.9,1.305-2.25,0.967-3.375c-0.337-1.125-1.103-2.024-2.25-2.272c-1.147-0.248-2.677,0.158-3.982,0
	c-1.305-0.158-2.385-0.877-3.24-0.877s-1.484,0.72-2.362,1.26s-2.002,0.9-3.015,1.26s-1.912,0.719-2.699,1.372
	c-0.788,0.652-1.462,1.597-2.205,1.732s-1.552-0.54-1.552-1.867s0.81-3.307,0.743-5.129c-0.067-1.823-1.012-3.487-2.52-4.544
	s-3.577-1.507-4.657-2.654s-1.17-2.992-0.607-4.792c0.563-1.799,1.777-3.554,2.654-3.374c0.877,0.18,1.417,2.294,2.52,2.901
	c1.103,0.607,2.767-0.292,3.937-2.069c1.17-1.777,1.845-4.432,4.926-5.512c3.083-1.08,8.572-0.585,10.484-2.767
	s0.248-7.042,0.451-8.931s2.272-0.81,5.152,0.9c2.879,1.709,6.569,4.049,10.348,5.309c3.779,1.26,7.648,1.44,9.178-1.484
	c1.53-2.925,0.72-8.954,0.135-13.138c-0.585-4.185-0.945-6.524-2.16-6.344s-3.284,2.879-6.029,4.319s-6.165,1.62-9.224,0.495
	c-3.06-1.125-5.759-3.554-6.164-5.939s1.485-4.724,3.915-5.354c2.43-0.63,5.399,0.45,7.334,0.045
	c1.935-0.405,2.834-2.294,2.385-5.309c-0.45-3.015-2.25-7.154-3.42-9.989c-1.169-2.834-1.709-4.364-2.25-7.378
	c-0.54-3.015-1.08-7.514-1.8-11.113c-0.72-3.599-1.62-6.298-2.339-8.818s-1.26-4.859-2.16-6.524c-0.9-1.665-2.159-2.655-2.384-3.959
	c-0.225-1.305,0.585-2.925,2.025-4.319c1.439-1.395,3.509-2.565,4.679-4.41c1.17-1.845,1.44-4.364,1.17-6.164
	c-0.27-1.8-1.08-2.88,0.315-2.835c1.395,0.045,4.994,1.215,6.974,1.035c1.979-0.18,2.339-1.71,1.53-3.194
	c-0.81-1.485-2.79-2.925-4.994-3.78c-2.205-0.855-4.634-1.125-5.624-2.024c-0.99-0.9-0.54-2.43,0.629-4.455
	c1.17-2.025,3.06-4.544,4.5-6.164s2.429-2.339,4.229-2.205c1.8,0.135,4.41,1.125,6.299,3.015c1.89,1.889,3.059,4.679,4.049,7.244
	c0.99,2.564,1.8,4.904,3.555,6.974c1.755,2.069,4.454,3.869,5.939,5.714c1.485,1.845,1.755,3.734,2.655,4.049
	s2.43-0.945,3.554-2.295c1.125-1.35,1.844-2.789,0.81-4.274c-1.035-1.485-3.825-3.014-5.894-4.904
	c-2.07-1.89-3.419-4.139-4.454-5.714c-1.035-1.575-1.755-2.475-1.89-3.959s0.315-3.554,2.07-3.554s4.814,2.069,7.559,3.059
	c2.745,0.99,5.174,0.9,6.974-0.045c1.8-0.945,2.969-2.744,5.714-4.409c2.744-1.665,7.063-3.194,10.123-3.779
	c3.059-0.585,4.859-0.225,3.779-1.395c-1.08-1.17-5.039-3.87-4.679-5.264c0.36-1.395,5.039-1.485,9.854-1.935
	c4.814-0.45,9.763-1.259,13.453-1.214s6.119,0.944,8.909,0.674c2.789-0.27,5.938-1.709,8.683-3.284s5.084-3.284,7.514-4.139
	c2.429-0.855,4.949-0.855,7.963-0.675c3.014,0.18,6.524,0.54,8.549,1.62c2.025,1.08,2.564,2.879,5.984,3.284
	c3.419,0.405,9.718-0.584,14.892-0.359c5.174,0.225,9.224,1.665,10.034,3.06c0.81,1.395-1.62,2.744-3.959,4.229
	c-2.34,1.485-4.589,3.104-3.644,4.274c0.944,1.17,5.084,1.89,7.874,2.115s4.229-0.044,6.074-0.45
	c1.845-0.405,4.094-0.945,5.647-0.63c1.552,0.315,2.407,1.485,4.814,1.71c2.407,0.225,6.367-0.495,9.629-0.495
	c3.262,0,5.826,0.72,7.222,1.462c1.394,0.742,1.619,1.507,4.296,2.002c2.677,0.495,7.807,0.72,11.474,0.855
	c3.667,0.135,5.871,0.18,4.679-1.012c-1.192-1.193-5.781-3.622-5.938-5.017c-0.158-1.395,4.116-1.754,8.278-1.552
	c4.161,0.202,8.211,0.967,11.181,1.799s4.859,1.732,4.004,2.834c-0.854,1.103-4.454,2.407-4.701,3.802
	c-0.248,1.395,2.857,2.879,6.187,3.375c3.329,0.495,6.884,0,9.628,0.81c2.745,0.81,4.68,2.924,7.087,3.779
	c2.407,0.854,5.286,0.45,6.299-0.833s0.157-3.442,2.024-3.937s6.457,0.674,10.596,1.282c4.14,0.607,7.828,0.652,10.033,0.27
	c2.204-0.382,2.925-1.192,1.664-2.362c-1.26-1.17-4.499-2.7-3.914-4.005c0.585-1.304,4.994-2.384,8.279-2.384
	c3.284,0,5.443,1.08,8.233,1.53c2.789,0.45,6.209,0.27,8.188,1.305c1.979,1.035,2.52,3.285,3.914,3.24
	c1.396-0.045,3.645-2.385,5.984-2.97c2.339-0.585,4.77,0.584,7.198,1.89c2.43,1.305,4.859,2.745,7.02,3.959
	c2.159,1.214,4.049,2.204,5.894,2.834s3.645,0.9,6.119,0.63c2.475-0.27,5.624-1.08,9.898-0.944
	c4.274,0.135,9.674,1.215,14.128,2.115s7.964,1.619,10.213,2.924c2.25,1.305,3.239,3.194,6.344,4.185
	c3.104,0.99,8.323,1.08,13.543,0.944c5.22-0.135,10.438-0.495,14.149-0.562c3.712-0.068,5.915,0.157,8.456,0.787
	c2.542,0.63,5.421,1.665,7.153,1.485c1.732-0.18,2.317-1.574,1.26-2.767c-1.057-1.193-3.757-2.183-2.452-2.79
	c1.306-0.608,6.614-0.833,10.911-0.698c4.297,0.135,7.581,0.63,11.271,1.057c3.688,0.427,7.783,0.787,10.324,1.552
	c2.542,0.764,3.532,1.935,9.111,5.534c5.579,3.599,15.747,9.628,23.396,14.667s12.777,9.089,16.377,12.193
	c3.6,3.104,5.669,5.264,4.814,6.074c-0.854,0.81-4.634,0.27-7.154-0.271c-2.519-0.54-3.778-1.08-4.679-0.225
	c-0.899,0.855-1.439,3.105-2.609,4.41s-2.97,1.664-3.869,2.744c-0.9,1.08-0.9,2.879-1.035,4.634s-0.405,3.464-1.8,3.24
	c-1.395-0.225-3.914-2.385-5.895-3.149c-1.979-0.765-3.418-0.135-5.174,0.405c-1.754,0.54-3.824,0.99-6.073,1.08
	c-2.25,0.09-4.68-0.18-6.209,0.585c-1.53,0.765-2.16,2.564-2.115,4.095c0.045,1.529,0.765,2.789,2.88,3.959
	c2.114,1.169,5.624,2.25,7.693,3.734c2.07,1.485,2.7,3.375,4.319,4.5c1.62,1.125,4.229,1.484,5.669,2.429
	c1.44,0.945,1.71,2.475,0.855,3.419c-0.855,0.945-2.835,1.305-2.925,2.205c-0.09,0.9,1.71,2.34,3.419,3.51
	c1.71,1.169,3.33,2.069,2.699,2.744c-0.629,0.675-3.509,1.125-4.363,2.61c-0.855,1.485,0.314,4.004,0.674,6.165
	c0.36,2.159-0.09,3.958-0.18,6.568c-0.09,2.609,0.18,6.029-0.899,6.569c-1.08,0.54-3.51-1.8-8.369-5.579
	c-4.858-3.779-12.147-8.999-17.457-13.317c-5.309-4.319-8.638-7.739-10.394-11.068c-1.754-3.329-1.935-6.569-1.034-9.088
	c0.899-2.52,2.879-4.319,4.679-7.198c1.8-2.88,3.42-6.84,3.51-9.269c0.09-2.43-1.35-3.33-2.699-5.039
	c-1.35-1.71-2.61-4.229-3.825-5.579c-1.215-1.35-2.384-1.53-2.789-0.54s-0.045,3.149-0.495,5.084
	c-0.45,1.935-1.709,3.644-3.239,3.734c-1.529,0.09-3.329-1.439-5.489-2.699c-2.159-1.26-4.679-2.25-6.839-2.25
	c-2.159,0-3.959,0.99-5.219,2.34s-1.979,3.059-1.484,4.859c0.495,1.8,2.204,3.689,4.273,4.769c2.07,1.08,4.5,1.35,4.814,2.206
	c0.314,0.854-1.484,2.294-3.464,2.834c-1.98,0.54-4.14,0.18-6.029,0.315c-1.89,0.135-3.51,0.765-5.174,0.855
	c-1.665,0.09-3.375-0.36-5.04-1.755c-1.664-1.395-3.284-3.734-6.614-5.174c-3.328-1.44-8.368-1.979-9.223-1.17
	c-0.855,0.81,2.475,2.969,2.789,4.139c0.315,1.17-2.385,1.35-6.118,1.125c-3.734-0.225-8.504-0.854-12.059-0.989
	c-3.555-0.135-5.894,0.225-6.749,1.754c-0.854,1.53-0.225,4.229-0.944,6.299c-0.72,2.069-2.789,3.509-3.284,4.949
	s0.585,2.879,0.585,4.049s-1.08,2.07-2.34,3.15c-1.261,1.08-2.699,2.339-2.475,3.374c0.225,1.035,2.114,1.845,4.724,1.709
	c2.61-0.135,5.939-1.214,7.739-0.539c1.8,0.674,2.069,3.104,3.194,4.634c1.125,1.529,3.104,2.16,4.14,1.485
	c1.034-0.675,1.124-2.655,2.879-2.97c1.755-0.314,5.175,1.035,8.054,2.834c2.88,1.8,5.219,4.049,7.109,6.434
	c1.89,2.385,3.329,4.904,4.273,7.199c0.945,2.294,1.396,4.364,2.25,6.164c0.855,1.8,2.114,3.33,3.555,4.904
	c1.439,1.575,3.059,3.194,4.274,4.904c1.215,1.71,2.024,3.51,1.89,5.084c-0.136,1.575-1.215,2.924-1.62,5.399
	s-0.135,6.074-0.315,8.999c-0.18,2.924-0.81,5.174-1.349,7.064c-0.54,1.89-0.99,3.419-1.44,4.769c-0.45,1.35-0.9,2.52-2.385,3.555
	c-1.484,1.035-4.004,1.934-6.389,1.844s-4.635-1.169-6.074-0.675s-2.069,2.564-2.834,3.958s-1.665,2.114-1.529,3.555
	c0.135,1.439,1.305,3.599,1.079,5.354c-0.225,1.754-1.844,3.104-3.059,4.184c-1.216,1.08-2.025,1.89-0.811,3.149
	s4.455,2.969,8.144,5.894c3.689,2.924,7.829,7.064,10.304,10.618s3.284,6.524,2.294,8.234c-0.989,1.709-3.779,2.159-6.209,3.014
	c-2.429,0.855-4.499,2.115-5.623,3.825c-1.125,1.709-1.305,3.869-2.655,4.049c-1.35,0.18-3.869-1.62-4.634-4.229
	c-0.765-2.61,0.225-6.03-0.45-8.459c-0.675-2.43-3.015-3.869-3.149-5.354c-0.135-1.484,1.935-3.014,1.935-4.679
	c0-1.665-2.069-3.464-4.274-3.824c-2.204-0.36-4.544,0.719-5.849,0.314s-1.575-2.294-1.71-4.544s-0.135-4.859-2.295-6.434
	c-2.159-1.575-6.479-2.115-9.448-1.17s-4.589,3.375-5.938,4.589c-1.351,1.214-2.43,1.214-2.385-0.36
	c0.045-1.575,1.215-4.725,1.305-6.974c0.09-2.25-0.9-3.6-2.7-3.51c-1.799,0.09-4.409,1.62-5.669,3.329
	c-1.259,1.71-1.169,3.6-0.674,4.904c0.494,1.305,1.394,2.025,0.72,2.475c-0.675,0.45-2.925,0.63-4.41,1.395
	c-1.484,0.765-2.204,2.114-1.484,4.274s2.88,5.129,5.039,6.075c2.16,0.944,4.319-0.135,6.614-0.99
	c2.294-0.855,4.725-1.485,7.379-1.485s5.534,0.63,6.658,1.71c1.125,1.08,0.495,2.609-1.034,3.554c-1.53,0.945-3.96,1.305-5.85,3.06
	c-1.89,1.754-3.239,4.904-3.464,7.244c-0.225,2.339,0.675,3.869,3.06,5.759c2.384,1.89,6.254,4.139,7.918,6.119
	c1.665,1.979,1.125,3.688,2.835,4.994c1.71,1.305,5.669,2.204,7.243,3.689c1.575,1.484,0.766,3.554-0.63,5.129
	c-1.395,1.575-3.374,2.654-2.969,3.689c0.404,1.035,3.194,2.024,4.544,3.869s1.26,4.545-0.135,7.244
	c-1.396,2.7-4.095,5.399-5.085,8.639c-0.989,3.239-0.27,7.02-1.26,9.988c-0.989,2.97-3.689,5.13-5.939,7.649
	c-2.249,2.52-4.049,5.398-6.118,7.559c-2.07,2.16-4.409,3.6-7.289,4.499c-2.88,0.9-6.299,1.26-9.089,1.62
	c-2.789,0.359-4.949,0.72-6.749,1.26c-1.799,0.54-3.239,1.26-3.509,2.677s0.63,3.531,0.832,4.948
	c0.203,1.417-0.292,2.137-1.754,2.609c-1.463,0.472-3.893,0.697-4.882-0.383c-0.99-1.08-0.54-3.464-1.463-5.174
	c-0.922-1.71-3.217-2.745-5.983-2.407c-2.768,0.338-6.007,2.047-8.099,4.274c-2.093,2.227-3.037,4.972-2.97,7.693
	c0.067,2.723,1.147,5.422,3.396,8.256c2.25,2.835,5.67,5.805,8.639,8.549c2.97,2.744,5.488,5.264,7.603,8.008
	s3.824,5.714,4.499,9.224c0.675,3.509,0.314,7.559,0.045,10.348c-0.27,2.79-0.449,4.319-1.17,6.029
	c-0.72,1.71-1.979,3.6-3.689,4.589c-1.709,0.99-3.869,1.08-5.443,2.07c-1.575,0.99-2.564,2.88-3.645,4.319s-2.25,2.429-3.96,3.645
	c-1.709,1.215-3.959,2.654-5.084,2.159c-1.125-0.494-1.125-2.925-0.854-4.904c0.27-1.979,0.81-3.509,0.135-4.364
	s-2.564-1.034-4.274-1.709c-1.71-0.676-3.239-1.845-4.994-3.33c-1.755-1.484-3.734-3.284-4.409-4.949s-0.045-3.194-0.72-4.274
	s-2.654-1.709-4.274-2.069c-1.62-0.359-2.88-0.449-3.375-1.35c-0.494-0.899-0.225-2.609-0.81-3.284
	c-0.585-0.676-2.024-0.315-2.744,1.079c-0.72,1.396-0.72,3.824-0.99,6.344c-0.27,2.52-0.81,5.13-1.484,7.064
	s-1.484,3.194-1.439,4.544s0.944,2.79,2.159,4.274c1.215,1.485,2.744,3.014,3.555,4.544c0.81,1.53,0.899,3.06,1.89,4.725
	c0.989,1.664,2.879,3.464,4.881,5.062c2.002,1.597,4.117,2.991,6.703,5.263c2.587,2.272,5.646,5.422,7.131,9.741
	c1.485,4.319,1.396,9.809,1.575,13.633s0.63,5.984-0.72,6.704c-1.35,0.719-4.499,0-7.784-2.16c-3.284-2.159-6.703-5.759-8.549-9.763
	c-1.844-4.005-2.114-8.414-3.419-12.104s-3.645-6.659-6.523-9.809c-2.88-3.149-6.299-6.479-7.829-9.134
	c-1.529-2.654-1.17-4.634-0.72-7.423c0.45-2.79,0.99-6.39,0.72-10.619c-0.27-4.229-1.35-9.088-2.52-14.037s-2.43-9.988-3.51-14.083
	c-1.079-4.094-1.979-7.243-2.924-7.198s-1.935,3.284-3.824,5.579s-4.68,3.644-7.02,3.689c-2.339,0.044-4.229-1.215-4.544-2.521
	c-0.314-1.304,0.945-2.653,1.395-4.049c0.45-1.395,0.091-2.834-0.225-4.634c-0.314-1.8-0.585-3.959-1.845-5.669
	s-3.51-2.969-4.77-4.364c-1.26-1.395-1.529-2.924-2.699-3.509s-3.239-0.226-5.084-0.721c-1.846-0.495-3.465-1.844-4.185-4.139
	s-0.54-5.534-0.585-8.1c-0.045-2.563-0.314-4.453-0.945-5.354c-0.63-0.899-1.619-0.81-2.519,0.45c-0.9,1.26-1.71,3.689-3.555,5.039
	s-4.725,1.62-7.559,1.755c-2.835,0.135-5.624,0.135-7.334,0.72s-2.34,1.755-2.609,3.42c-0.271,1.664-0.181,3.824-1.935,5.488
	c-1.755,1.665-5.354,2.835-7.739,4.634c-2.385,1.8-3.554,4.23-4.994,6.749c-1.439,2.521-3.149,5.13-4.679,7.154
	c-1.53,2.024-2.879,3.464-4.364,4.68c-1.484,1.215-3.104,2.204-4.409,2.789c-1.305,0.585-2.295,0.765-2.834,1.71
	c-0.54,0.944-0.63,2.654-0.135,5.849c0.495,3.194,1.574,7.874,1.034,11.203c-0.54,3.329-2.699,5.31-3.509,7.648
	c-0.81,2.34-0.27,5.039-0.945,7.154c-0.674,2.115-2.564,3.645-3.914,5.399s-2.16,3.734-3.015,5.398
	c-0.854,1.665-1.755,3.015-3.014,3.104c-1.26,0.09-2.879-1.079-4.185-3.734c-1.305-2.654-2.294-6.794-2.925-10.303
	c-0.63-3.51-0.899-6.39-2.249-8.639c-1.35-2.25-3.78-3.869-4.994-6.164c-1.215-2.294-1.215-5.264-1.89-7.469
	c-0.675-2.204-2.024-3.645-3.869-6.524c-1.845-2.879-4.184-7.198-4.814-9.988c-0.63-2.789,0.45-4.049,0.225-6.344
	c-0.225-2.294-1.755-5.624-2.925-7.919c-1.169-2.294-1.979-3.554-1.799-4.634c0.18-1.08,1.349-1.979,1.979-3.104
	s0.72-2.475-0.045-3.465c-0.765-0.989-2.384-1.619-3.104-3.239c-0.72-1.619-0.54-4.229-0.99-5.624c-0.45-1.395-1.53-1.574-2.07,0
	c-0.54,1.575-0.54,4.904-1.439,6.794s-2.699,2.34-4.544,2.609c-1.845,0.271-3.734,0.36-5.444-1.125
	c-1.71-1.484-3.239-4.544-2.834-6.546s2.745-2.947,3.419-4.229s-0.315-2.902-2.16-3.307c-1.845-0.405-4.544,0.404-6.839-0.405
	c-2.295-0.81-4.184-3.239-6.029-5.354c-1.845-2.114-3.645-3.914-4.589-5.669s-1.035-3.464-2.16-3.914s-3.285,0.359-5.534,1.305
	s-4.589,2.024-7.513,2.43c-2.925,0.405-6.435,0.135-9.674,0.271c-3.239,0.135-6.209,0.674-9.628,0.089
	c-3.419-0.584-7.289-2.294-9.943-3.599c-2.655-1.305-4.094-2.205-5.219-3.824c-1.125-1.62-1.935-3.96-3.465-5.13
	s-3.779-1.17-5.534-0.495c-1.755,0.676-3.015,2.025-4.725,2.25c-1.709,0.226-3.869-0.675-6.164-2.024
	c-2.295-1.35-4.724-3.149-7.289-3.779c-2.565-0.63-5.265-0.09-6.704-0.945c-1.44-0.854-1.62-3.104-2.34-5.669
	s-1.979-5.444-3.142-7.007S214.349,323.039,213.208,323.119L213.208,323.119z M636.526,526.399c0,1.124,2.429,2.654,5.039,3.059
	c2.609,0.405,5.398-0.314,8.278,0.45c2.879,0.765,5.85,3.015,7.783,3.149c1.935,0.135,2.835-1.845,1.98-4.14
	c-0.855-2.294-3.465-4.904-6.794-5.804s-7.379-0.09-10.618,0.675C638.955,524.554,636.526,525.274,636.526,526.399L636.526,526.399z
	 M594.998,436.594c-1.035,1.035-1.484,4.185-2.744,6.884c-1.26,2.7-3.33,4.95-5.489,6.884c-2.159,1.936-4.409,3.555-3.914,4.995
	c0.495,1.439,3.734,2.699,6.839,1.529c3.104-1.17,6.073-4.77,7.648-8.368c1.575-3.6,1.755-7.199,1.035-9.539
	C597.652,436.639,596.033,435.56,594.998,436.594L594.998,436.594z M620.824,433.401c-1.484-2.79-1.124-6.659-2.249-8.954
	s-3.734-3.015-5.983-3.824c-2.251-0.81-4.14-1.71-4.77-4.499c-0.63-2.79,0-7.469-0.315-11.068c-0.314-3.6-1.574-6.119-3.374-7.784
	c-1.8-1.664-4.14-2.474-6.074-0.72c-1.935,1.755-3.464,6.074-3.42,8.863c0.046,2.79,1.665,4.05,1.305,5.039
	c-0.359,0.99-2.699,1.71-2.384,3.6c0.314,1.89,3.284,4.949,5.489,7.154c2.204,2.204,3.644,3.555,3.689,5.443
	c0.045,1.891-1.305,4.32-0.766,5.76c0.54,1.439,2.97,1.89,4.635,3.645c1.664,1.755,2.564,4.814,2.789,7.199
	c0.226,2.384-0.225,4.094,0.36,5.488s2.204,2.475,3.015,4.005c0.81,1.529,0.81,3.509,0.18,5.623c-0.63,2.115-1.89,4.364-1.35,6.029
	c0.539,1.665,2.879,2.744,5.309,2.34c2.43-0.405,4.949-2.295,6.254-1.845s1.395,3.239,2.655,5.219
	c1.259,1.98,3.689,3.15,4.903,1.845c1.215-1.305,1.215-5.084,2.52-5.894c1.306-0.81,3.915,1.35,4.814-0.09
	c0.9-1.44,0.09-6.479-1.71-9.674c-1.799-3.194-4.589-4.544-5.983-7.019s-1.395-6.074-3.06-8.729S622.31,436.19,620.824,433.401
	L620.824,433.401z M649.35,493.781c-2.384-0.54-5.983,0.449-7.693,2.204s-1.529,4.274-1.079,6.794s1.17,5.039,1.034,7.064
	c-0.135,2.024-1.124,3.554-0.359,4.543c0.765,0.99,3.284,1.44,4.813,0.721c1.53-0.721,2.07-2.609,3.24-5.58
	c1.17-2.969,2.97-7.019,3.284-10.078S651.735,494.32,649.35,493.781L649.35,493.781z M599.994,544.308
	c-1.62-1.306-2.79-3.465-2.654-5.76c0.135-2.295,1.574-4.724,1.304-6.209c-0.27-1.484-2.249-2.024-3.419-3.689
	c-1.17-1.664-1.529-4.454-0.63-6.839c0.9-2.384,3.06-4.364,4.095-6.658c1.035-2.295,0.945-4.904,1.305-7.379
	c0.36-2.475,1.17-4.814,3.194-6.074s5.265-1.439,8.188-0.72c2.925,0.72,5.534,2.34,7.964,2.069c2.43-0.27,4.68-2.429,6.568-4.049
	c1.891-1.62,3.42-2.699,4.68-2.475s2.25,1.755,2.43,3.824s-0.45,4.679-3.149,6.344s-7.469,2.385-11.113,1.89
	c-3.645-0.494-6.164-2.204-8.233-1.484s-3.689,3.869-3.06,5.489c0.63,1.619,3.509,1.71,6.029,1.935
	c2.52,0.225,4.679,0.585,4.634,1.845s-2.294,3.419-2.834,5.174s0.63,3.104,1.754,4.814c1.125,1.71,2.205,3.779,2.88,6.523
	c0.675,2.745,0.944,6.164-0.54,8.054s-4.724,2.25-6.794-0.135c-2.069-2.385-2.969-7.514-4.094-9.943s-2.475-2.16-2.745,0
	c-0.27,2.16,0.54,6.209,0.72,9.134c0.181,2.924-0.27,4.724-1.529,5.398S601.613,545.612,599.994,544.308L599.994,544.308z
	 M624.785,572.428c-4.274,2.159-8.953,4.319-11.384,4.049c-2.43-0.27-2.609-2.969-0.27-5.579c2.34-2.609,7.199-5.129,10.528-7.559
	c3.329-2.429,5.129-4.77,7.693-5.804c2.565-1.035,5.895-0.766,6.93,0.854c1.034,1.62-0.226,4.589-2.79,7.154
	C632.929,568.108,629.06,570.268,624.785,572.428L624.785,572.428z M521.077,549.571c0,1.35,0.9,3.329,2.25,3.96
	c1.351,0.63,3.149-0.091,4.274,0.449s1.575,2.34,5.039,3.104c3.465,0.765,9.943,0.495,14.128,0.99
	c4.185,0.494,6.073,1.755,9.403,2.699c3.33,0.945,8.099,1.575,11.203,2.204c3.104,0.631,4.544,1.26,7.469,1.665
	s7.333,0.585,10.663,0.811c3.329,0.225,5.579,0.494,7.199,1.529c1.619,1.035,2.609,2.835,3.824,3.645s2.654,0.63,3.645-0.585
	c0.989-1.215,1.529-3.464,3.419-4.635c1.89-1.17,5.129-1.26,8.729-1.935s7.559-1.934,7.964-3.419s-2.744-3.194-5.849-3.374
	c-3.104-0.181-6.164,1.169-9.449,1.124c-3.284-0.045-6.793-1.484-9.448-1.215c-2.654,0.271-4.454,2.25-7.379,2.79
	c-2.924,0.54-6.974-0.36-9.988-2.16s-4.994-4.499-7.063-6.344c-2.07-1.845-4.229-2.834-7.064-2.79
	c-2.834,0.046-6.343,1.125-9.403,1.125c-3.059,0-5.669-1.079-8.548-2.069c-2.88-0.99-6.029-1.89-8.729-2.204
	c-2.699-0.315-4.948-0.046-7.288,0.359s-4.77,0.945-6.434,1.575C521.978,547.502,521.077,548.222,521.077,549.571L521.077,549.571z
	 M576.463,533.374c-1.034-0.359-2.204-2.25-4.499-3.239c-2.294-0.99-5.714-1.08-8.729-1.44c-3.015-0.359-5.624-0.989-7.379-1.484
	c-1.754-0.495-2.654-0.854-3.824-1.935s-2.609-2.879-3.284-4.454c-0.675-1.574-0.585-2.925-1.17-4.364
	c-0.585-1.44-1.844-2.97-3.239-4.949c-1.395-1.979-2.925-4.409-3.195-7.02c-0.27-2.608,0.721-5.398,2.7-7.019
	c1.979-1.619,4.949-2.069,7.469-1.979s4.589,0.72,5.624-0.54s1.035-4.409,2.475-5.714s4.319-0.765,6.389-1.664
	c2.07-0.9,3.33-3.24,4.634-5.354c1.306-2.115,2.655-4.005,4.051-4.994c1.395-0.99,2.834-1.08,3.824-2.564
	c0.989-1.485,1.529-4.365,2.294-6.209c0.765-1.845,1.755-2.654,3.51-2.295c1.755,0.36,4.273,1.89,6.028,3.239
	c1.755,1.351,2.745,2.52,4.005,3.689s2.789,2.34,2.88,3.375c0.09,1.034-1.26,1.935-2.43,3.104s-2.16,2.609-2.655,3.824
	c-0.494,1.215-0.494,2.204-1.034,3.284s-1.62,2.25-1.26,3.555c0.359,1.305,2.159,2.744,3.06,4.229
	c0.899,1.485,0.899,3.015,1.35,4.32c0.45,1.305,1.35,2.384,1.89,3.464s0.72,2.159-0.135,2.654c-0.855,0.495-2.745,0.405-4.14,1.17
	c-1.395,0.766-2.295,2.385-2.609,4.185c-0.315,1.8-0.045,3.779-0.63,5.444c-0.585,1.664-2.024,3.015-2.97,4.139
	c-0.944,1.125-1.395,2.025-2.34,3.914c-0.945,1.891-2.384,4.77-3.554,6.795C578.398,532.564,577.498,533.734,576.463,533.374
	L576.463,533.374z M464.838,472.904c-0.63,1.529-0.45,5.309,1.844,8.144c2.295,2.834,6.705,4.725,10.395,8.549
	c3.688,3.824,6.658,9.583,8.278,13.272c1.619,3.689,1.89,5.309,3.059,6.704c1.17,1.395,3.24,2.564,5.175,5.804
	s3.734,8.549,5.579,12.328s3.734,6.028,5.624,8.144c1.89,2.114,3.779,4.094,6.389,5.714s5.939,2.88,8.278,3.104
	c2.34,0.225,3.689-0.585,4.409-3.104c0.721-2.52,0.811-6.749,0.945-9.898s0.315-5.219-1.35-7.514
	c-1.665-2.294-5.174-4.814-7.289-7.919c-2.114-3.104-2.834-6.794-4.813-9.538c-1.979-2.745-5.22-4.544-7.965-6.614
	c-2.744-2.069-4.993-4.409-8.458-7.244c-3.464-2.834-8.144-6.163-10.843-9.088c-2.7-2.924-3.42-5.444-4.319-6.839
	c-0.9-1.395-1.979-1.665-3.914-2.159c-1.935-0.495-4.725-1.215-6.84-1.935C466.907,472.095,465.468,471.374,464.838,472.904
	L464.838,472.904z M384.613,445.596c-0.54,0.81-1.259,2.339-1.372,4.409c-0.112,2.069,0.382,4.679,0.382,7.198
	s-0.494,4.95-0.45,7.559c0.045,2.61,0.63,5.399,1.867,6.727c1.237,1.328,3.127,1.192,4.837,0.315
	c1.709-0.877,3.239-2.497,3.824-4.656c0.585-2.16,0.225-4.86-0.629-7.537c-0.855-2.677-2.205-5.331-3.172-7.536
	s-1.552-3.959-2.16-5.129s-1.237-1.755-1.732-2.002C385.514,444.695,385.153,444.785,384.613,445.596L384.613,445.596z
	 M541.886,388.636c-1.372-1.169-3.576-1.35-5.736-0.81s-4.274,1.8-4.927,3.689s0.158,4.409,2.587,4.949
	c2.43,0.54,6.479-0.899,8.233-2.699C543.798,391.966,543.259,389.806,541.886,388.636L541.886,388.636z M594.845,374.173
	c-1.643,0.157-4.477-0.067-6.276-2.024s-2.564-5.646-2.093-9.538c0.473-3.892,2.183-7.986,4.635-9.898s5.646-1.643,6.344-0.045
	c0.697,1.597-1.102,4.521-1.417,7.289c-0.314,2.767,0.854,5.376,1.327,7.513c0.473,2.138,0.247,3.803-0.09,4.904
	C596.937,373.476,596.486,374.016,594.845,374.173L594.845,374.173z M641.479,233.459c-0.36,1.845,0.18,4.455,0.72,6.434
	c0.54,1.98,1.08,3.33,0.811,4.724c-0.271,1.395-1.351,2.834-0.855,4.949c0.495,2.115,2.564,4.904,4.364,7.739s3.33,5.714,4.68,8.458
	c1.35,2.745,2.519,5.354,2.474,8.234s-1.304,6.029-2.654,6.614c-1.35,0.585-2.789-1.395-4.094-1.44s-2.475,1.845-3.284,3.734
	c-0.811,1.89-1.261,3.779-4.005,4.814c-2.744,1.035-7.783,1.215-11.023,2.745c-3.239,1.53-4.679,4.409-6.613,7.333
	s-4.364,5.894-4.274,7.694c0.09,1.799,2.699,2.429,4.814,2.968c2.114,0.54,3.734,0.99,4.229,3.24
	c0.494,2.249-0.136,6.299,1.304,8.684c1.44,2.385,4.95,3.104,7.199,0.135c2.25-2.97,3.239-9.628,5.534-13.272
	c2.294-3.645,5.894-4.274,8.998-5.174c3.105-0.9,5.714-2.07,9.988-3.195c4.275-1.125,10.214-2.204,12.193-4.094s0-4.589-1.755-7.064
	s-3.284-4.724-3.464-7.693c-0.181-2.97,0.989-6.66,0.54-10.079c-0.45-3.419-2.52-6.569-4.545-9.043
	c-2.024-2.475-4.004-4.274-4.319-6.029c-0.314-1.755,1.035-3.464,3.869-4.994c2.835-1.53,7.154-2.88,8.324-6.074
	c1.17-3.195-0.81-8.234-2.834-10.213c-2.025-1.979-4.095-0.9-6.569-0.225c-2.475,0.675-5.354,0.945-8.233,0.225
	c-2.88-0.72-5.76-2.429-7.829-2.745C643.1,230.535,641.84,231.614,641.479,233.459L641.479,233.459z M605.62,174.25
	c-2.834-0.315-3.914,1.124-2.564,3.689c1.35,2.564,5.13,6.254,9.134,10.483c4.004,4.229,8.233,8.999,11.383,13.948
	s5.22,10.078,6.839,14.262c1.62,4.184,2.789,7.424,4.77,9.539c1.979,2.115,4.769,3.104,5.489,2.25c0.72-0.855-0.63-3.554,0.81-4.319
	s5.669,0.405,6.658,0.09c0.99-0.315-1.259-2.114-4.454-4.544c-3.194-2.43-7.333-5.489-8.233-7.244
	c-0.899-1.755,1.44-2.205,5.31-2.43s9.269-0.225,8.278-1.53c-0.989-1.305-8.368-3.914-13.272-6.928
	c-4.904-3.015-7.334-6.435-9.943-10.304c-2.609-3.87-5.399-8.189-9.089-11.383C613.045,176.634,608.455,174.564,605.62,174.25
	L605.62,174.25z M498.994,65.998c-1.936-1.53-6.029-2.924-12.531-4.724c-6.501-1.8-15.409-4.004-22.631-5.062
	c-7.222-1.058-12.756-0.968-15.567,0.877c-2.813,1.844-2.901,5.444,1.058,7.311s11.968,2.002,18.807,2.385
	c6.839,0.382,12.508,1.012,17.704,1.732c5.197,0.72,9.921,1.529,12.396,1.102C500.703,69.192,500.929,67.528,498.994,65.998
	L498.994,65.998z M312.028,47.574c-1.687-1.822-5.557-3.847-9.231-4.735c-3.675-0.889-7.154-0.642-10.213-1.429
	c-3.059-0.788-5.699-2.61-10.258-3.746c-4.56-1.136-11.038-1.586-14.772-0.687c-3.735,0.9-4.725,3.15-2.834,5.129
	c1.89,1.979,6.659,3.689,11.877,4.589c5.22,0.9,10.889,0.989,15.996,1.665c5.106,0.675,9.651,1.935,12.913,2.745
	c3.261,0.81,5.241,1.17,6.479,0.54S313.715,49.396,312.028,47.574z"/>
</svg>
