<?xml version="1.0" encoding="utf-8"?>
<!-- Generator: Adobe Illustrator 15.1.0, SVG Export Plug-In . SVG Version: 6.00 Build 0)  -->
<!DOCTYPE svg PUBLIC "-//W3C//DTD SVG 1.1//EN" "http://www.w3.org/Graphics/SVG/1.1/DTD/svg11.dtd">
<svg version="1.1" id="Layer_1" xmlns="http://www.w3.org/2000/svg" xmlns:xlink="http://www.w3.org/1999/xlink" x="0px" y="0px"
	 width="792px" height="612px" viewBox="0 0 792 612" enable-background="new 0 0 792 612" xml:space="preserve">
<path fill-rule="evenodd" clip-rule="evenodd" stroke="#000000" stroke-width="2.9999" stroke-linecap="round" stroke-linejoin="round" stroke-miterlimit="22.9256" d="
	M284.692,395.042c-1.688,0.874-3.554,1.573-4.953,3.4c-1.399,1.826-2.332,4.78-3.148,7.189c-0.816,2.409-1.516,4.275-2.798,5.636
	c-1.283,1.359-3.148,2.215-4.819,2.487c-1.671,0.271-3.148-0.039-4.858,0.077c-1.71,0.116-3.653,0.661-5.519,0.816
	c-1.866,0.155-3.654-0.078-5.092-0.467c-1.438-0.388-2.526-0.933-5.519-0.815c-2.992,0.116-7.889,0.894-12.242,1.632
	c-4.353,0.738-8.162,1.438-10.61,2.176c-2.449,0.739-3.537,1.517-4.003,2.838c-0.467,1.321-0.311,3.187-0.933,4.547
	c-0.622,1.36-2.021,2.216-3.303,2.643c-1.283,0.428-2.448,0.428-3.498,0.854c-1.05,0.429-1.982,1.283-3.615,3.109
	c-1.632,1.827-3.964,4.625-6.024,6.024c-2.06,1.399-3.848,1.399-5.247,1.943s-2.41,1.632-4.625,2.021
	c-2.215,0.389-5.635,0.078-8.278-0.077c-2.643-0.156-4.508-0.156-5.557-0.661c-1.05-0.505-1.283-1.516-2.138-1.827
	c-0.855-0.311-2.332,0.078-3.381-0.388c-1.05-0.467-1.671-1.788-2.487-2.683c-0.816-0.893-1.827-1.359-3.07-1.477
	c-1.244-0.116-2.721,0.117-4.198-0.544c-1.477-0.66-2.954-2.215-3.886-4.353c-0.933-2.138-1.322-4.858-0.7-6.568
	s2.254-2.409,3.537-3.226c1.282-0.816,2.214-1.749,2.642-2.915s0.35-2.564,0-4.936c-0.35-2.37-0.972-5.713-1.205-9.249
	c-0.233-3.537-0.078-7.269,0-9.639s0.078-3.381-0.777-4.664c-0.855-1.282-2.565-2.837-4.236-5.596s-3.304-6.724-4.82-10.144
	c-1.516-3.42-2.915-6.296-3.77-8.744s-1.166-4.469-2.06-6.84c-0.894-2.371-2.371-5.092-4.12-8.434s-3.77-7.307-5.479-10.144
	c-1.71-2.837-3.109-4.547-3.809-6.374c-0.7-1.826-0.7-3.77-2.954-7.034c-2.254-3.265-6.762-7.851-9.91-11.31
	s-4.936-5.79-6.568-8.472c-1.632-2.682-3.108-5.713-2.49-6.704c0.619-0.991,3.333,0.058,6.361,1.496
	c3.028,1.438,6.37,3.265,8.123,3.09c1.752-0.175,1.914-2.352-0.454-6.471c-2.367-4.119-7.264-10.182-10.179-14.884
	c-2.915-4.703-3.848-8.045-3.537-11.582s1.865-7.268,2.682-9.852c0.816-2.584,0.893-4.022,0.427-5.868
	c-0.466-1.846-1.477-4.101-1.593-6.471c-0.117-2.371,0.66-4.858,1.71-6.937c1.049-2.08,2.371-3.75,3.031-3.148
	c0.661,0.603,0.661,3.479,1.477,4.684c0.816,1.205,2.448,0.738,4.003-1.302c1.554-2.041,3.031-5.655,5.324-8.414
	s5.402-4.664,7.598-6.412c2.196-1.749,3.478-3.343,5.538-5.499c2.06-2.157,4.896-4.878,7.636-6.705
	c2.74-1.827,5.382-2.759,7.714-3.187c2.332-0.428,4.353-0.35,6.141-0.972c1.788-0.622,3.342-1.944,4.702-3.304
	c1.36-1.36,2.526-2.759,4.236-3.381c1.71-0.622,3.964-0.466,5.791-1.049s3.226-1.904,4.392-3.264c1.166-1.36,2.098-2.76,3.964-3.304
	c1.866-0.544,4.664-0.233,7.151-0.466c2.488-0.233,4.664-1.011,7.773-2.254s7.151-2.954,10.105-4.664
	c2.954-1.71,4.819-3.42,6.451-6.063c1.632-2.643,3.031-6.219,4.081-8.784s1.749-4.119,2.954-5.596
	c1.205-1.477,2.915-2.876,4.042-4.003s1.671-1.982,1.671-3.07c0-1.088-0.544-2.41-1.166-3.77c-0.622-1.36-1.321-2.759-1.516-4.353
	c-0.195-1.594,0.116-3.382,0.972-5.169c0.854-1.788,2.254-3.575,4.061-5.945c1.807-2.371,4.022-5.324,5.421-6.509
	c1.399-1.186,1.981-0.603,2.643,0.758c0.661,1.36,1.399,3.498,2.293,5.11c0.894,1.613,1.943,2.702,3.439,2.857
	s3.439-0.622,4.45-1.71c1.01-1.088,1.088-2.487,0.292-3.711c-0.797-1.224-2.468-2.273-3.439-3.187
	c-0.972-0.914-1.244-1.69-1.555-2.545s-0.661-1.788-0.252-2.39c0.408-0.603,1.574-0.875,3.031-1.147
	c1.458-0.272,3.207-0.544,4.567-0.388c1.36,0.155,2.332,0.738,3.556,1.127c1.224,0.389,2.701,0.583,3.867-0.136
	c1.166-0.719,2.021-2.352,1.865-3.906c-0.155-1.554-1.321-3.031-2.021-4.275c-0.699-1.244-0.933-2.254-0.991-3.207
	c-0.059-0.952,0.058-1.846-0.107-2.545c-0.165-0.699-0.612-1.205-0.486-1.816c0.126-0.612,0.826-1.331,1.827-1.719
	c1-0.389,2.303-0.448,3.537-1.137c1.233-0.689,2.4-2.011,3.565-2.536c1.166-0.525,2.332-0.253,2.867-0.593
	c0.534-0.34,0.437-1.292-0.01-2.273c-0.447-0.981-1.243-1.992-0.923-3.119c0.321-1.127,1.759-2.371,3.371-3.411
	c1.613-1.04,3.401-1.875,4.635-1.963c1.233-0.087,1.914,0.574,2.682,0.379c0.767-0.194,1.623-1.244,2.225-2.517
	c0.602-1.273,0.952-2.77,2.001-3.75c1.049-0.981,2.798-1.448,4.003-1.176c1.204,0.271,1.865,1.283,2.759,1.321
	c0.894,0.039,2.021-0.894,2.487-2.002c0.466-1.107,0.272-2.39,0.952-3.264c0.68-0.875,2.234-1.341,3.439-1.03
	c1.205,0.311,2.06,1.399,3.964,2.39c1.904,0.991,4.858,1.885,7.17,3.42s3.983,3.711,5.227,5.558c1.244,1.846,2.06,3.362,2.196,4.547
	s-0.409,2.041-0.117,2.643c0.292,0.602,1.418,0.952,2.449,0.583c1.03-0.369,1.962-1.458,3.362-1.905
	c1.399-0.447,3.264-0.252,6.024,0.35c2.759,0.602,6.413,1.613,8.336,1.341c1.924-0.272,2.118-1.827,1.632-3.478
	c-0.486-1.652-1.651-3.401-1.982-4.936s0.175-2.857,1.166-4.255c0.991-1.399,2.468-2.876,3.343-4.354
	c0.874-1.477,1.146-2.953,1.126-4.235c-0.02-1.283-0.331-2.371,0.311-3.09c0.642-0.719,2.235-1.069,3.343-1.438
	c1.107-0.37,1.729-0.758,1.943-1.574c0.213-0.816,0.019-2.06-0.389-3.012c-0.408-0.953-1.03-1.613-0.972-2.39
	c0.058-0.777,0.796-1.671,1.885-2.817c1.088-1.146,2.526-2.545,4.217-4.372c1.69-1.827,3.634-4.081,5.363-5.655
	c1.729-1.574,3.245-2.467,5.208-2.584s4.372,0.544,6.257,1.108c1.885,0.563,3.245,1.029,5.188,0.777s4.469-1.224,6.84-2.079
	c2.371-0.855,4.586-1.593,4.586-2.915c0-1.322-2.215-3.226-4.314-4.528c-2.099-1.301-4.081-2.001-5.383-2.953
	c-1.302-0.952-1.923-2.157-1.01-3.148c0.913-0.991,3.362-1.768,5.286-2.234s3.323-0.622,4.255,0.175s1.399,2.546,2.371,3.381
	s2.449,0.758,3.731,1.069c1.283,0.311,2.371,1.01,2.915,1.904c0.544,0.894,0.544,1.982,1.419,2.643
	c0.874,0.66,2.623,0.894,4.119,0.913c1.496,0.02,2.739-0.175,4.003-0.33c1.263-0.156,2.545-0.272,4.062,0.35
	c1.516,0.622,3.265,1.982,4.993,2.915c1.729,0.933,3.438,1.438,5.013,1.185c1.573-0.252,3.012-1.263,4.333-1.03
	c1.321,0.233,2.526,1.71,3.731,2.487c1.204,0.777,2.409,0.855,3.62-0.36c1.212-1.215,2.431-3.722,4.774-6.606
	c2.345-2.885,5.814-6.146,8.993-8.001c3.181-1.855,6.071-2.305,8.087-1.724c2.015,0.581,3.155,2.193,2.572,3.728
	s-2.889,2.993-5.344,4.52c-2.455,1.525-5.06,3.119-7.016,4.313c-1.955,1.195-3.264,1.991-3.478,3.079
	c-0.213,1.088,0.667,2.468,1.612,2.964s1.956,0.107,2.792-0.554c0.835-0.661,1.496-1.593,2.234-1.768s1.555,0.408,2.914,0.603
	c1.36,0.194,3.265,0,4.878,0.058c1.613,0.058,2.935,0.369,2.935,1.651c0,1.283-1.321,3.537-2.468,5.228
	c-1.146,1.69-2.118,2.817-3.129,4.489c-1.011,1.671-2.06,3.886-2.935,5.344c-0.874,1.457-1.574,2.156-2.875,2.487
	c-1.303,0.33-3.207,0.291-4.354,1.01c-1.146,0.719-1.535,2.196-1.36,3.187c0.176,0.991,0.913,1.496,1.321,2.313
	c0.408,0.816,0.485,1.943,0.077,2.798c-0.408,0.855-1.302,1.438-1.846,2.176c-0.544,0.739-0.738,1.632-0.738,2.546
	c0,0.913,0.194,1.846,0.077,2.856c-0.116,1.01-0.544,2.099-1.263,3.207c-0.719,1.107-1.729,2.234-2.352,3.361
	c-0.621,1.127-0.854,2.254-0.389,3.42c0.467,1.166,1.633,2.37,2.672,3.526s1.952,2.264,2.973,3.44
	c1.02,1.175,2.146,2.419,2.749,3.449c0.603,1.029,0.68,1.845,1.535,2.06c0.854,0.213,2.487-0.175,3.575-0.059
	s1.633,0.738,1.982,1.497c0.35,0.758,0.505,1.651,2.04,2.371c1.535,0.719,4.45,1.263,6.529,2.448
	c2.079,1.186,3.322,3.012,4.605,3.867c1.282,0.855,2.604,0.739,3.634,1.283s1.768,1.749,2.759,3.147
	c0.991,1.399,2.235,2.993,3.596,4.062s2.837,1.613,4.722,1.885c1.885,0.272,4.178,0.272,5.771,0.661
	c1.593,0.388,2.485,1.166,3.127,2.098c0.641,0.933,1.029,2.021,1.165,3.012c0.137,0.991,0.02,1.885,0.331,2.74
	c0.311,0.855,1.049,1.671,2.021,2.001c0.972,0.331,2.177,0.175,3.031,0.564c0.855,0.388,1.36,1.321,2.409,2.099
	c1.05,0.777,2.644,1.399,4.081,1.769c1.438,0.369,2.721,0.485,4.159,0.058c1.438-0.428,3.031-1.399,4.683-2.273
	c1.652-0.875,3.361-1.652,5.479-4.198c2.118-2.545,4.645-6.859,5.693-9.929c1.05-3.071,0.623-4.897,0.875-6.277
	c0.253-1.38,1.186-2.313,1.904-3.109c0.719-0.797,1.225-1.458,1.457-2.721c0.234-1.263,0.194-3.129,0.564-4.742
	c0.368-1.613,1.146-2.973,1.65-5.052c0.506-2.079,0.739-4.877,0.312-7.287c-0.428-2.409-1.516-4.43-1.594-5.945
	c-0.077-1.516,0.854-2.527,1.321-3.965s0.467-3.303,0.428-5.479c-0.039-2.177-0.116-4.664,0.194-6.84s1.011-4.042,1.982-5.479
	c0.971-1.438,2.215-2.449,2.643-3.576c0.427-1.127,0.038-2.37-0.467-3.847s-1.127-3.187-0.583-5.363
	c0.544-2.177,2.255-4.819,3.77-6.918c1.517-2.099,2.838-3.653,3.692-5.519c0.855-1.866,1.244-4.042,1.555-5.83
	s0.544-3.187,1.71-4.897c1.166-1.71,3.265-3.731,4.547-3.847c1.282-0.117,1.749,1.67,2.293,3.381
	c0.544,1.71,1.166,3.342,1.594,4.858c0.428,1.515,0.66,2.914,0.66,4.935s-0.232,4.664,0.544,6.529
	c0.777,1.866,2.565,2.954,3.343,3.848c0.777,0.894,0.544,1.593,0.116,2.721c-0.427,1.127-1.049,2.681-0.544,3.692
	c0.506,1.01,2.138,1.477,3.109,2.099c0.972,0.622,1.282,1.399,1.011,2.526c-0.272,1.127-1.127,2.604-1.05,3.654
	c0.078,1.049,1.089,1.67,1.827,2.215c0.738,0.544,1.205,1.01,1.088,2.215c-0.116,1.205-0.816,3.148-0.816,4.547
	s0.7,2.254,0.933,3.576c0.233,1.321,0.001,3.109-0.271,5.247c-0.272,2.137-0.583,4.625,0.35,6.179s3.108,2.176,5.014,1.943
	c1.904-0.233,3.536-1.322,4.858-1.671c1.32-0.35,2.331,0.039,3.069,0.894c0.739,0.855,1.205,2.176,2.644,3.653
	c1.438,1.477,3.847,3.109,5.557,4.275c1.71,1.166,2.721,1.866,2.76,2.682s-0.895,1.749-1.399,3.381
	c-0.505,1.632-0.583,3.964-0.35,5.907c0.233,1.943,0.777,3.498,1.399,5.13c0.621,1.632,1.321,3.342,1.243,4.741
	c-0.077,1.399-0.933,2.487-1.088,3.887c-0.155,1.399,0.389,3.108,1.399,4.857c1.01,1.749,2.487,3.537,3.245,4.956
	c0.757,1.418,0.796,2.468,1.01,3.731c0.214,1.263,0.603,2.74,1.049,4.158c0.447,1.418,0.952,2.779,1.244,3.944
	c0.291,1.166,0.369,2.138,0.02,3.439s-1.127,2.935-1.282,4.023c-0.156,1.088,0.311,1.632,1.049,2.487
	c0.738,0.855,1.749,2.021,2.273,2.993s0.564,1.749,0.292,2.876s-0.855,2.604-0.564,4.392c0.292,1.788,1.458,3.887,2.682,5.441
	c1.225,1.554,2.507,2.565,3.771,2.915c1.263,0.35,2.507,0.039,3.459,0.661c0.952,0.622,1.612,2.176,2.701,2.837
	c1.088,0.661,2.604,0.427,3.595,1.068c0.991,0.642,1.457,2.157,2.604,3.226s2.974,1.69,4.353,2.332
	c1.38,0.642,2.313,1.302,2.935,2.313c0.622,1.01,0.933,2.37,2.099,2.934c1.166,0.563,3.187,0.33,4.236,1.749
	c1.049,1.418,1.127,4.489,1.243,6.646c0.117,2.157,0.272,3.4,0.895,4.45c0.622,1.049,1.71,1.904,2.467,2.993
	c0.758,1.088,1.186,2.41,1.903,4.062c0.72,1.651,1.729,3.634,2.041,5.635c0.311,2.001-0.078,4.022,0.058,6.548
	s0.797,5.558,1.71,7.015c0.913,1.457,2.08,1.341,2.721,0.408c0.642-0.933,0.758-2.682,1.341-3.09s1.632,0.524,2.332,1.671
	c0.699,1.146,1.049,2.507,1.729,3.381c0.68,0.874,1.69,1.263,2.332,0.661c0.641-0.603,0.913-2.196,1.573-2.623
	c0.661-0.428,1.711,0.311,2.701,2.293c0.991,1.981,1.924,5.208,1.729,7.812c-0.193,2.604-1.516,4.586-2.099,6.082
	s-0.428,2.507,0.253,2.915s1.885,0.214,2.643,0.175c0.758-0.039,1.068,0.078,1.555,0.738c0.485,0.661,1.146,1.866,1.632,3.362
	c0.486,1.497,0.796,3.284,1.729,4.528c0.933,1.244,2.487,1.943,3.575,3.459c1.089,1.516,1.711,3.847,2.721,5.363
	c1.011,1.515,2.409,2.215,3.575,3.614s2.1,3.498,3.109,5.751c1.011,2.254,2.099,4.664,2.992,6.646
	c0.895,1.982,1.594,3.537,1.865,5.169c0.272,1.632,0.117,3.342,0.156,5.324s0.271,4.236,0,6.101
	c-0.272,1.866-1.05,3.343-1.205,4.897s0.312,3.188,0.622,4.78c0.311,1.594,0.467,3.147,0.272,4.896s-0.739,3.692-0.7,5.83
	s0.661,4.47,1.127,6.374c0.467,1.904,0.777,3.381,0.603,4.955s-0.835,3.246-1.165,4.937c-0.331,1.69-0.331,3.4-0.545,4.955
	c-0.213,1.555-0.641,2.954-1.359,4.256s-1.729,2.507-2.255,3.847c-0.524,1.342-0.563,2.818-1.146,4.431
	c-0.583,1.613-1.71,3.362-2.37,5.092c-0.661,1.729-0.854,3.439-1.477,4.994s-1.671,2.953-2.061,4.333
	c-0.388,1.38-0.116,2.74-0.194,4.488c-0.077,1.749-0.505,3.887-1.302,5.616c-0.796,1.729-1.962,3.051-2.604,4.488
	c-0.642,1.438-0.758,2.992-1.788,4.158s-2.973,1.943-4.256,3.536c-1.282,1.594-1.904,4.004-2.915,5.674
	c-1.01,1.672-2.409,2.604-3.886,3.809c-1.477,1.205-3.031,2.683-4.586,4.081c-1.555,1.399-3.109,2.721-4.275,4.159
	c-1.166,1.438-1.942,2.992-2.72,4.43c-0.777,1.438-1.555,2.76-2.604,4.003c-1.049,1.244-2.371,2.41-3.614,4.509
	s-2.41,5.13-3.07,7.306c-0.661,2.177-0.816,3.499-1.282,4.82c-0.467,1.32-1.243,2.642-2.332,3.847
	c-1.088,1.205-2.487,2.293-3.459,3.692s-1.516,3.108-2.293,4.936c-0.777,1.826-1.788,3.77-2.604,5.674
	c-0.815,1.904-1.438,3.771-1.981,5.461s-1.011,3.206-1.478,4.663c-0.466,1.458-0.933,2.856-0.776,4.527
	c0.155,1.672,0.933,3.615,0.543,4.995c-0.388,1.38-1.942,2.195-4.255,2.837c-2.313,0.641-5.383,1.107-7.307,1.69
	s-2.701,1.282-4.625,1.438c-1.924,0.155-4.994-0.233-7.89-0.078c-2.895,0.155-5.615,0.854-7.851,1.807
	c-2.234,0.952-3.983,2.157-5.479,3.421c-1.496,1.263-2.74,2.584-4.684,3.652c-1.942,1.069-4.586,1.886-5.558,2.643
	c-0.971,0.759-0.271,1.458-0.115,2.255c0.155,0.797-0.234,1.69-0.875,2.254c-0.642,0.563-1.535,0.797-2.604,0.039
	c-1.069-0.758-2.313-2.507-3.712-3.887c-1.399-1.38-2.954-2.391-4.217-3.439c-1.264-1.05-2.234-2.137-3.731-2.915
	c-1.496-0.777-3.517-1.243-4.547-2.001c-1.029-0.758-1.068-1.808-0.68-3.206c0.388-1.399,1.204-3.148,0.738-4.101
	c-0.467-0.952-2.216-1.107-3.188-0.583s-1.165,1.729-2.156,2.682s-2.779,1.651-4.625,2.778c-1.846,1.128-3.751,2.683-5.188,3.945
	c-1.438,1.263-2.41,2.234-3.653,2.156s-2.759-1.205-3.809-2.06c-1.049-0.855-1.632-1.438-2.934-2.021
	c-1.303-0.583-3.323-1.165-5.111-1.865c-1.787-0.699-3.342-1.516-4.838-2.138s-2.935-1.049-4.372-0.894
	c-1.438,0.155-2.876,0.894-4.14,0.485c-1.263-0.407-2.352-1.962-3.575-3.012c-1.225-1.049-2.585-1.593-4.022-2.001
	c-1.438-0.408-2.953-0.681-3.926-1.478c-0.972-0.796-1.398-2.118-2.118-3.479c-0.719-1.36-1.729-2.759-2.973-4.119
	s-2.721-2.682-3.615-3.926c-0.894-1.243-1.204-2.409-0.99-3.73s0.952-2.798,1.225-4.294c0.271-1.496,0.077-3.012-0.195-4.411
	c-0.271-1.399-0.621-2.682-1.729-4.703c-1.107-2.021-2.974-4.779-4.101-6.976c-1.126-2.195-1.516-3.828-1.398-4.955
	c0.116-1.127,0.738-1.749,0.35-2.099s-1.788-0.427-3.692,0c-1.904,0.428-4.313,1.36-5.79,1.399
	c-1.478,0.039-2.021-0.816-1.555-2.177s1.943-3.226,3.031-4.741s1.788-2.682,1.321-3.575c-0.466-0.895-2.099-1.516-3.265-2.799
	c-1.166-1.282-1.865-3.226-2.682-4.508s-1.749-1.904-2.564-1.088c-0.816,0.815-1.517,3.07-1.789,5.052
	c-0.271,1.982-0.115,3.692-0.66,4.625c-0.544,0.933-1.787,1.088-3.023,1.671c-1.235,0.582-2.463,1.592-4.134,2.291
	c-1.672,0.699-3.786,1.089-5.037,0.118c-1.252-0.971-1.641-3.303-0.594-5.247c1.048-1.943,3.532-3.499,5.046-4.666
	s2.058-1.944,2.759-3.343c0.702-1.398,1.561-3.417,2.533-5.71c0.974-2.292,2.062-4.857,3.11-6.295
	c1.05-1.438,2.061-1.749,2.332-2.643c0.272-0.895-0.193-2.371-0.699-3.576c-0.505-1.204-1.049-2.137-0.894-2.992
	c0.155-0.854,1.011-1.632,1.438-2.798c0.428-1.166,0.428-2.721,0.137-3.692c-0.292-0.972-0.874-1.36-2.256-1.244
	c-1.381,0.116-3.561,0.737-4.883,2.194s-1.789,3.75-2.448,6.082c-0.66,2.332-1.512,4.703-3.124,6.395
	c-1.61,1.69-3.981,2.701-5.77,4.004c-1.787,1.302-2.992,2.895-3.75,4.255s-1.069,2.487-1.71,3.42
	c-0.642,0.933-1.613,1.671-1.924,2.954c-0.311,1.282,0.039,3.109-0.758,4.313c-0.797,1.205-2.74,1.788-3.964,1.516
	c-1.225-0.271-1.729-1.398-2.449-2.293c-0.719-0.894-1.651-1.554-1.787-2.778c-0.136-1.224,0.524-3.012,0.232-4.78
	c-0.291-1.769-1.534-3.517-2.7-5.13c-1.166-1.612-2.254-3.09-3.109-4.334c-0.855-1.243-1.477-2.254-1.71-3.167
	s-0.078-1.729-0.952-2.429s-2.779-1.282-4.586-2.429c-1.808-1.147-3.517-2.856-3.77-4.45s0.952-3.07,1.049-4.392
	c0.098-1.321-0.913-2.487-1.943-3.421c-1.03-0.932-2.079-1.632-3.497-2.06c-1.419-0.427-3.207-0.582-4.703-1.107
	c-1.496-0.524-2.701-1.418-4.294-2.273c-1.594-0.854-3.576-1.671-4.878-1.865s-1.924,0.233-2.643,0.466
	c-0.719,0.233-1.535,0.272-2.468-0.253c-0.933-0.524-1.982-1.612-3.498-2.643c-1.516-1.029-3.499-2.002-5.616-3.051
	c-2.118-1.05-4.373-2.177-6.082-2.254c-1.71-0.078-2.876,0.894-4.353,1.359c-1.477,0.467-3.265,0.429-6.121,0.312
	c-2.856-0.116-6.782-0.312-9.677,0c-2.896,0.311-4.761,1.127-6.568,1.846c-1.807,0.72-3.556,1.341-4.994,2.255
	c-1.438,0.913-2.565,2.118-5.15,3.381c-2.584,1.263-6.626,2.584-9.754,3.303c-3.129,0.72-5.344,0.836-8.473,0.973
	c-3.129,0.136-7.17,0.291-10.124,0.835c-2.954,0.545-4.819,1.478-7.19,2.896s-5.247,3.323-7.44,4.8
	C287.892,393.119,286.38,394.168,284.692,395.042L284.692,395.042z M543.92,553.511c0.428-1.748,0.738-3.07-0.039-5.247
	c-0.777-2.176-2.643-5.207-3.848-8.122c-1.204-2.915-1.748-5.713-1.632-7.967c0.117-2.255,0.895-3.965,2.371-4.159
	c1.478-0.193,3.653,1.128,6.335,2.216s5.868,1.943,8.472,2.682c2.604,0.738,4.625,1.36,6.957,1.555s4.975-0.039,7.15-0.777
	c2.177-0.739,3.887-1.982,5.675-2.798c1.788-0.816,3.653-1.205,4.547,0.116c0.895,1.321,0.816,4.353,1.282,6.918
	c0.467,2.564,1.478,4.663,1.36,7.461c-0.116,2.799-1.359,6.297-2.604,8.59c-1.243,2.293-2.487,3.381-3.226,5.246
	c-0.738,1.866-0.972,4.508-1.478,6.102c-0.505,1.594-1.282,2.138-1.671,3.07s-0.389,2.255-1.204,2.06
	c-0.816-0.194-2.448-1.903-3.77-2.293c-1.322-0.388-2.332,0.545-3.188,2.216s-1.555,4.081-3.265,5.208s-4.431,0.972-6.607,0.777
	c-2.176-0.194-3.808-0.428-4.663-1.127s-0.933-1.866-1.166-3.071c-0.233-1.204-0.622-2.447-1.865-4.546
	c-1.243-2.1-3.343-5.053-4.12-7.618C542.949,557.437,543.493,555.26,543.92,553.511L543.92,553.511z M441.574,441.68
	c0.874,1.069,2.352,1.963,4.313,2.273c1.963,0.312,4.411,0.039,6.704,0.039s4.431,0.272,5.888-0.292
	c1.458-0.563,2.235-1.962,1.633-2.875s-2.585-1.341-4.78-2.157c-2.196-0.816-4.605-2.021-7.171-2.176
	c-2.564-0.156-5.285,0.737-6.51,1.807C440.428,439.368,440.7,440.611,441.574,441.68L441.574,441.68z M452.603,84.327
	c-1.885,0.427-3.518,1.088-3.945,2.332c-0.427,1.243,0.35,3.07,2.507,4.372s5.693,2.079,7.171,1.438
	c1.477-0.641,0.894-2.701,0.621-4.431c-0.271-1.729-0.232-3.128-1.282-3.73C456.625,83.705,454.487,83.899,452.603,84.327
	L452.603,84.327z M354.823,43.247c0.524-0.467,0.758-1.555,1.379-1.593c0.622-0.039,1.632,0.972,3.556,1.283
	c1.924,0.311,4.761-0.078,6.938,0.117c2.176,0.194,3.692,0.971,3.886,1.923s-0.933,2.079-2.352,3.012
	c-1.418,0.933-3.128,1.671-5.149,1.594c-2.021-0.078-4.353-0.972-6.509-0.777s-4.139,1.477-5.324,1.011
	c-1.186-0.466-1.574-2.682-1.205-4.042s1.496-1.865,2.468-2.04C353.482,43.558,354.298,43.713,354.823,43.247z"/>
</svg>
