<?xml version="1.0" encoding="utf-8"?>
<!-- Generator: Adobe Illustrator 15.1.0, SVG Export Plug-In . SVG Version: 6.00 Build 0)  -->
<!DOCTYPE svg PUBLIC "-//W3C//DTD SVG 1.1//EN" "http://www.w3.org/Graphics/SVG/1.1/DTD/svg11.dtd">
<svg version="1.1" id="Layer_1" xmlns="http://www.w3.org/2000/svg" xmlns:xlink="http://www.w3.org/1999/xlink" x="0px" y="0px"
	 width="612px" height="792px" viewBox="0 0 612 792" enable-background="new 0 0 612 792" xml:space="preserve">
<path fill-rule="evenodd" clip-rule="evenodd" stroke="#000000" stroke-width="2.9999" stroke-linecap="round" stroke-linejoin="round" stroke-miterlimit="22.9256" d="
	M130.71,631.385c1.543,1.304,3.257,3.072,4.543,3.822s2.143,0.481,2.973,1.044c0.831,0.563,1.634,1.956,2.652,2.143
	c1.018,0.188,2.25-0.83,3.508-0.964s2.544,0.616,3.402,1.446c0.857,0.83,1.286,1.741,1.634,2.786
	c0.348,1.044,0.616,2.223,1.741,3.24c1.125,1.019,3.106,1.875,4.848,1.955c1.741,0.081,3.241-0.615,4.982-1.419
	c1.741-0.804,3.723-1.714,5.116-2.518s2.196-1.5,3.455-1.072c1.259,0.429,2.973,1.982,4.152,3.375
	c1.178,1.394,1.821,2.625,2.651,3.349c0.831,0.723,1.849,0.938,2.679,0.723c0.83-0.214,1.473-0.856,2.33-0.723
	c0.857,0.134,1.928,1.044,2.491,1.982c0.563,0.938,0.616,1.901,0.241,2.624c-0.375,0.724-1.178,1.206-1.392,1.955
	c-0.215,0.751,0.16,1.769,0.669,2.786s1.152,2.036,1.607,2.92c0.455,0.883,0.723,1.634,0.911,2.759
	c0.188,1.124,0.294,2.624,0.75,3.669c0.456,1.045,1.259,1.634,1.768,2.705s0.723,2.625,0.991,4.205
	c0.268,1.581,0.589,3.188,1.554,3.83c0.964,0.644,2.571,0.321,3.428,0.938c0.857,0.616,0.964,2.17,1.419,3.147
	s1.259,1.379,2.009,1.514c0.75,0.133,1.446,0,2.063,0.481c0.616,0.482,1.151,1.58,1.781,2.692c0.629,1.111,1.353,2.236,2.277,2.799
	c0.924,0.563,2.049,0.563,3.616,0.401c1.567-0.16,3.576-0.482,5.29-0.361c1.714,0.12,3.134,0.683,4.084,1.004
	c0.951,0.322,1.433,0.402,1.915,0.295c0.482-0.106,0.964-0.401,1.567-0.201c0.603,0.201,1.326,0.897,2.183,1.38
	c0.857,0.481,1.848,0.75,2.893,0.495c1.044-0.254,2.142-1.031,2.718-1.821c0.576-0.79,0.63-1.594,0.925-2.745
	c0.294-1.151,0.83-2.651,1.646-4.125c0.817-1.473,1.916-2.919,2.8-3.924c0.883-1.004,1.553-1.566,1.727-2.276
	s-0.147-1.567-0.254-2.29c-0.107-0.724,0-1.313,0.576-2.438c0.576-1.125,1.621-2.786,2.772-4.339c1.152-1.554,2.411-3,3.871-3.991
	c1.459-0.991,3.12-1.526,4.861-1.848c1.741-0.321,3.563-0.429,4.768-1.152s1.795-2.062,3.482-4.419c1.688-2.357,4.473-5.731,6-8.384
	c1.527-2.651,1.794-4.58,1.794-6.106c0-1.527-0.268-2.652-0.67-3.991c-0.401-1.339-0.938-2.893-1.179-4.366
	c-0.241-1.473-0.187-2.865,0.295-3.964c0.482-1.098,1.393-1.901,2.384-2.625c0.991-0.723,2.063-1.365,2.625-2.035
	c0.562-0.67,0.616-1.366,0.455-2.839c-0.161-1.474-0.536-3.724-0.509-5.893c0.027-2.17,0.456-4.259,1.554-6.991
	c1.098-2.731,2.866-6.106,4.017-8.919c1.152-2.813,1.688-5.063,2.839-6.803c1.152-1.741,2.92-2.974,4.741-4.821
	c1.821-1.849,3.696-4.313,4.741-6.482c1.044-2.169,1.259-4.044,1.553-6.214c0.295-2.169,0.669-4.634,0.857-7.553
	c0.188-2.92,0.188-6.295,0.348-9.08c0.161-2.785,0.482-4.981,1.004-6.723c0.522-1.741,1.246-3.027,2.197-3.831
	c0.951-0.803,2.129-1.124,3.334-0.763s2.438,1.406,2.866,2.745c0.429,1.34,0.054,2.974-0.026,4.42s0.134,2.705,0.603,3.441
	c0.469,0.737,1.192,0.951,1.821,0.656c0.629-0.294,1.165-1.098,1.835-1.406c0.669-0.308,1.473-0.12,2.37,0.067
	c0.897,0.188,1.889,0.375,2.746,0.12c0.857-0.254,1.58-0.95,1.929-1.888c0.348-0.938,0.321-2.116-0.389-3.375
	c-0.709-1.259-2.103-2.599-3.308-4.005c-1.206-1.406-2.224-2.879-2.759-3.95s-0.589-1.741,0.469-2.732
	c1.058-0.991,3.228-2.303,4.674-3.481c1.447-1.179,2.17-2.224,2.692-3.161c0.522-0.938,0.844-1.768,1.019-2.678
	c0.174-0.911,0.2-1.902,0.709-2.264s1.5-0.094,2.223-0.147c0.723-0.053,1.179-0.428,1.754-1.313
	c0.576-0.884,1.272-2.276,2.357-3.829c1.085-1.554,2.558-3.269,4.179-4.647c1.62-1.379,3.388-2.424,5.464-4.084
	c2.075-1.661,4.459-3.938,6.187-5.304c1.729-1.366,2.799-1.821,4.474-2.465c1.674-0.643,3.95-1.473,13.285-4.593
	c9.333-3.12,25.726-8.531,40.992-13.621c15.268-5.089,29.409-9.856,36.48-12.24s7.071-2.384,8.731-3
	c1.66-0.615,4.982-1.848,7.74-3.429c2.759-1.579,4.955-3.508,11.813-9.053c6.856-5.544,18.374-14.704,26.195-20.73
	c7.82-6.026,11.945-8.92,14.998-11.839c3.054-2.92,5.036-5.866,7.956-9.964c2.919-4.098,6.776-9.348,11.356-15.188
	c4.58-5.839,9.883-12.266,13.285-16.659c3.401-4.393,4.901-6.75,6.508-8.33c1.607-1.581,3.322-2.384,4.474-2.732
	c1.151-0.349,1.741-0.242,2.304-1.286c0.563-1.045,1.098-3.241,2.169-7.152s2.679-9.535,4.982-17.383
	c2.303-7.848,5.303-17.919,7.258-23.168s2.866-5.678,3.67-5.33s1.5,1.473,2.839,1.902c1.34,0.429,3.321,0.161,5.116,0.188
	s3.401,0.348,4.714,0.268c1.313-0.08,2.33-0.562,1.875-1.205s-2.384-1.446-3.214-2.437c-0.83-0.992-0.563-2.17-0.215-3.402
	c0.349-1.232,0.777-2.518,0.349-3.75s-1.715-2.41-2.036-3.348c-0.321-0.938,0.321-1.634,0.134-2.224
	c-0.187-0.589-1.205-1.071-1.499-1.66c-0.295-0.59,0.133-1.286,0.08-1.902c-0.054-0.616-0.59-1.152-1.206-1.982
	c-0.615-0.831-1.312-1.956-1.098-2.893c0.214-0.937,1.339-1.688,1.366-2.356c0.026-0.67-1.045-1.259-1.42-2.089
	c-0.375-0.831-0.054-1.902,0.75-2.411c0.804-0.509,2.089-0.456,2.625-1.018s0.321-1.741-0.014-2.611
	c-0.334-0.87-0.79-1.433-0.79-2.116c0-0.683,0.456-1.486,0.362-2.411c-0.095-0.924-0.737-1.968-1.434-2.357
	s-1.446-0.121-1.889-0.241c-0.441-0.121-0.575-0.629-1.004-1.205c-0.429-0.576-1.152-1.219-1.795-1.339s-1.205,0.281-1.54,0.214
	s-0.441-0.603-0.549-1.339c-0.107-0.737-0.215-1.674-0.684-2.022c-0.469-0.349-1.299-0.108-1.848,0.106s-0.817,0.402-1.139,0.04
	c-0.321-0.361-0.696-1.272-1.353-1.687c-0.656-0.416-1.594-0.335-2.598-1.902c-1.005-1.567-2.076-4.781-3.147-6.415
	s-2.143-1.688-3.147-1.58c-1.004,0.107-1.941,0.375-2.825,0.388s-1.715-0.227-3.054-1.084s-3.188-2.33-4.38-3.375
	c-1.191-1.044-1.728-1.661-1.995-2.826c-0.268-1.166-0.268-2.879-0.214-5.196c0.054-2.317,0.16-5.237,0.602-6.482
	c0.442-1.246,1.22-0.817,1.996-0.549c0.777,0.268,1.554,0.375,2.317,0.455c0.763,0.08,1.513,0.134,2.558,0
	c1.045-0.134,2.384-0.456,3.629-0.281c1.245,0.174,2.397,0.843,3.522,1.446s2.224,1.139,3.241,1.353
	c1.018,0.214,1.955,0.107,2.651-0.281c0.696-0.389,1.152-1.058,1.634-1.045c0.482,0.013,0.991,0.709,1.808,0.871
	c0.817,0.161,1.942-0.214,2.84-0.442c0.897-0.228,1.566-0.308,2.049-0.87s0.776-1.607,0.857-2.438c0.08-0.83-0.054-1.446-0.75-1.768
	s-1.956-0.349-3.335-0.736c-1.38-0.389-2.879-1.139-3.964-1.219c-1.085-0.081-1.754,0.509-2.558,0.509s-1.741-0.589-3.081-1.42
	c-1.339-0.83-3.08-1.902-4.433-2.692s-2.316-1.299-3.335-1.459c-1.018-0.161-2.089,0.027-2.544-0.201
	c-0.455-0.228-0.295-0.87-0.147-1.768s0.281-2.049-0.389-3.067s-2.143-1.902-3.281-2.478c-1.138-0.576-1.941-0.844-2.799-0.75
	c-0.857,0.093-1.768,0.549-3.12,0.763s-3.147,0.187-4.714,0.026c-1.567-0.161-2.906-0.455-4.071-1.031
	c-1.165-0.576-2.156-1.434-3.71-2.679c-1.554-1.246-3.67-2.879-4.728-3.696c-1.058-0.817-1.058-0.817-1.821-1.433
	c-0.763-0.616-2.29-1.848-3.695-3.456c-1.407-1.607-2.692-3.589-3.79-4.848c-1.099-1.259-2.009-1.795-3.147-3.147
	c-1.138-1.353-2.504-3.521-3.816-4.62c-1.313-1.098-2.571-1.125-3.429-1.018s-1.313,0.348-1.969-0.147s-1.513-1.728-2.25-2.491
	c-0.736-0.763-1.353-1.058-2.638-1.206c-1.286-0.147-3.241-0.147-4.661-0.522c-1.419-0.375-2.303-1.125-3.321-1.915
	c-1.018-0.79-2.169-1.62-2.973-2.008c-0.804-0.389-1.259-0.335-2.143,0c-0.884,0.334-2.196,0.951-3.188,1.634
	c-0.991,0.683-1.66,1.433-2.518,1.768c-0.857,0.334-1.902,0.254-2.84,0.375c-0.938,0.12-1.768,0.442-2.116,1.929
	c-0.348,1.486-0.214,4.138-0.013,6.428s0.469,4.218,0.321,5.156s-0.71,0.884-1.34,0.656c-0.629-0.228-1.325-0.629-2.075-0.603
	c-0.75,0.026-1.554,0.482-2.665,0.79c-1.111,0.308-2.531,0.469-3.684,0.201c-1.151-0.268-2.035-0.964-2.919-1.018
	c-0.884-0.054-1.768,0.536-2.585,1.098c-0.816,0.563-1.566,1.098-2.25,1.125c-0.683,0.026-1.299-0.456-1.888-0.991
	c-0.59-0.536-1.151-1.125-1.728-1.379s-1.165-0.174-1.701-0.188s-1.019-0.12-1.421-0.401c-0.402-0.281-0.724-0.736-1.313-0.897
	c-0.59-0.161-1.447-0.026-2.277-0.161c-0.83-0.134-1.634-0.536-2.424-0.522c-0.79,0.013-1.566,0.442-1.955,0.991
	c-0.389,0.549-0.389,1.219-0.764,1.567s-1.125,0.375-1.848,0.147c-0.724-0.228-1.42-0.71-2.13-0.75s-1.433,0.361-2.021,0.75
	c-0.59,0.389-1.045,0.764-1.581,0.831c-0.535,0.067-1.151-0.174-2.344-0.268c-1.191-0.094-2.959-0.04-4.325-0.294
	c-1.366-0.254-2.33-0.817-3.368-1.071c-1.038-0.255-2.149-0.201-2.906-0.361s-1.159-0.535-1.795-0.683
	c-0.637-0.147-1.507-0.067-2.137-0.188c-0.629-0.121-1.018-0.442-1.714-0.583s-1.701-0.1-2.217-0.288
	c-0.516-0.188-0.542-0.603-0.455-1.005s0.288-0.79,0.114-1.238c-0.175-0.449-0.724-0.958-1.373-1.828
	c-0.649-0.871-1.399-2.103-1.929-2.813c-0.528-0.71-0.837-0.897-1.573-0.991s-1.902-0.094-2.926-0.107
	c-1.024-0.013-1.909-0.04-2.739,0.201s-1.606,0.75-2.37,1.112c-0.764,0.361-1.514,0.576-2.21,0.589
	c-0.696,0.014-1.339-0.174-3.188-0.736c-1.848-0.563-4.901-1.5-6.615-1.982c-1.715-0.482-2.089-0.509-2.504-0.094
	c-0.416,0.416-0.871,1.272-1.313,1.742c-0.441,0.468-0.87,0.549-1.379,0.093c-0.509-0.455-1.099-1.446-1.862-1.861
	c-0.763-0.415-1.7-0.254-2.41-0.496c-0.71-0.241-1.191-0.883-1.554-1.968c-0.361-1.085-0.603-2.612-0.669-3.871
	c-0.067-1.259,0.04-2.25-0.147-3.067s-0.67-1.459-0.884-2.223c-0.215-0.763-0.161-1.647,0.066-2.986
	c0.229-1.339,0.63-3.134,0.589-4.459c-0.039-1.326-0.521-2.182-1.125-2.852c-0.603-0.669-1.325-1.151-2.289-1.486
	c-0.965-0.334-2.17-0.522-3.054-0.696s-1.446-0.335-2.304-0.817c-0.856-0.482-2.009-1.286-2.92-2.156
	c-0.91-0.871-1.58-1.808-2.424-2.25c-0.844-0.442-1.861-0.389-2.879-0.63c-1.019-0.241-2.036-0.777-2.438-1.446
	c-0.402-0.669-0.188-1.473,0.415-2.116c0.603-0.643,1.594-1.125,2.411-1.714c0.816-0.589,1.459-1.286,1.513-1.941
	c0.054-0.657-0.482-1.272-1.366-1.969c-0.884-0.696-2.115-1.473-3.026-1.66c-0.91-0.188-1.5,0.214-2.304,0.401
	c-0.803,0.188-1.821,0.161-2.799,0.094s-1.915-0.174-2.705-0.121s-1.433,0.268-1.955,0.763c-0.522,0.496-0.924,1.272-1.674,1.661
	c-0.75,0.389-1.849,0.389-3.764,0.188c-1.915-0.201-4.646-0.603-6.429-0.911c-1.781-0.308-2.611-0.522-3.763-1.286
	c-1.152-0.763-2.625-2.075-3.817-2.825s-2.103-0.938-3.321-1.474s-2.745-1.419-4.271-2.531c-1.527-1.111-3.054-2.45-4.34-3.803
	s-2.33-2.719-3.334-3.67c-1.004-0.951-1.969-1.486-3.509-2.129c-1.54-0.643-3.656-1.393-5.33-1.889
	c-1.674-0.495-2.906-0.736-4.219-1.232c-1.312-0.496-2.705-1.246-3.843-2.063c-1.139-0.817-2.022-1.7-2.625-2.383
	s-0.924-1.165-1.165-1.861c-0.241-0.697-0.402-1.607-0.964-2.384s-1.527-1.419-2.706-2.103c-1.178-0.683-2.571-1.406-3.656-1.822
	c-1.084-0.415-1.861-0.522-2.598-0.709c-0.736-0.188-1.433-0.456-2.022-0.804s-1.071-0.776-1.714-1.272
	c-0.643-0.496-1.446-1.058-2.438-1.621c-0.991-0.563-2.169-1.125-3.401-2.063c-1.232-0.938-2.518-2.25-3.496-3.468
	c-0.977-1.219-1.647-2.343-2.37-3.307c-0.723-0.964-1.5-1.768-2.37-2.692c-0.871-0.924-1.835-1.969-2.879-2.879
	c-1.045-0.911-2.17-1.688-3.295-2.183c-1.125-0.496-2.25-0.71-3.026-0.442c-0.776,0.268-1.206,1.018-1.152,1.968
	s0.589,2.103,0.321,2.947c-0.268,0.843-1.339,1.379-2.129,2.075c-0.791,0.696-1.299,1.554-0.978,2.478
	c0.321,0.924,1.473,1.915,2.491,2.558c1.018,0.643,1.902,0.938,1.794,1.004c-0.107,0.067-1.205-0.094-2.143-0.147
	c-0.938-0.053-1.714,0-2.343,0.549c-0.629,0.549-1.112,1.594-1.259,2.451c-0.147,0.857,0.04,1.526-0.469,1.808
	s-1.714,0.174-2.638,0.469c-0.924,0.295-1.567,0.991-1.875,2.076c-0.308,1.084-0.282,2.558-0.442,3.897
	c-0.161,1.339-0.509,2.544-1.045,3.575s-1.259,1.889-1.848,2.183c-0.589,0.294-1.044,0.026-1.272-0.75
	c-0.228-0.777-0.228-2.063-0.669-3.241c-0.442-1.178-1.326-2.25-2.464-3.441c-1.139-1.192-2.531-2.504-3.509-2.906
	s-1.54,0.107-2.424,1.406c-0.884,1.299-2.089,3.388-3.643,5.237c-1.554,1.848-3.456,3.455-4.848,4.145
	c-1.393,0.689-2.276,0.463-3.173,0.51c-0.897,0.047-1.808,0.369-2.571,0.423c-0.763,0.053-1.379-0.161-2.129-0.375
	c-0.75-0.214-1.634-0.428-2.839-0.334c-1.205,0.093-2.732,0.495-4.165,0.857c-1.434,0.361-2.772,0.683-3.763,0.536
	s-1.634-0.763-2.317-0.897c-0.683-0.134-1.406,0.214-2.545,0.924c-1.138,0.709-2.691,1.781-4.004,2.531
	c-1.312,0.75-2.384,1.178-3.294,1.768c-0.911,0.589-1.661,1.339-2.143,1.848c-0.482,0.509-0.696,0.777-1.232,0.911
	s-1.393,0.134-2.371,0.268c-0.978,0.134-2.076,0.401-2.813,0.482c-0.737,0.08-1.111-0.027-1.379,0.281
	c-0.268,0.308-0.429,1.031-0.937,1.286c-0.509,0.254-1.366,0.04-1.647-0.482c-0.282-0.522,0.013-1.353-0.335-1.594
	c-0.348-0.241-1.339,0.107-2.196,0.482s-1.581,0.777-2.518,0.897c-0.938,0.121-2.089-0.041-2.959,0.201
	c-0.871,0.241-1.46,0.884-2.411,2.143c-0.951,1.258-2.263,3.133-3.79,4.566c-1.526,1.433-3.268,2.424-4.633,2.826
	c-1.366,0.401-2.357,0.214-3.482,0.455c-1.125,0.241-2.384,0.911-3.361,1.621c-0.978,0.709-1.674,1.46-2.638,1.875
	c-0.964,0.415-2.196,0.496-3.482,0.254c-1.286-0.241-2.625-0.803-3.656-0.897c-1.031-0.094-1.754,0.281-2.625,1.152
	c-0.871,0.87-1.889,2.236-2.625,3.481c-0.737,1.246-1.192,2.371-1.313,3.469c-0.121,1.098,0.094,2.169,0.308,3.482
	s0.429,2.866,1.018,3.764c0.589,0.897,1.554,1.138,2.692,1.513c1.138,0.375,2.45,0.884,3.08,1.272
	c0.629,0.388,0.576,0.656,0.482,1.018c-0.094,0.361-0.228,0.817,0.013,1.419c0.241,0.603,0.857,1.353,1.125,2.331
	s0.188,2.183-0.415,3.348c-0.603,1.165-1.728,2.29-2.625,3.281c-0.898,0.991-1.567,1.848-1.634,2.611
	c-0.067,0.764,0.469,1.433,1.219,2.223c0.75,0.791,1.713,1.701,2.316,2.438c0.603,0.737,0.844,1.299,0.563,1.849
	c-0.281,0.549-1.085,1.084-1.794,1.433c-0.71,0.348-1.326,0.509-1.474,1.232c-0.147,0.723,0.174,2.009,0.389,3.643
	c0.214,1.634,0.321,3.616,0.401,5.424c0.081,1.808,0.135,3.442,0.349,4.955c0.214,1.514,0.589,2.906,0.522,4.581
	c-0.067,1.674-0.576,3.629-1.192,5.316c-0.616,1.688-1.339,3.107-2.036,4.004c-0.696,0.897-1.365,1.272-1.888,1.982
	c-0.522,0.709-0.897,1.754-1.942,3.268c-1.045,1.514-2.759,3.495-4.245,5.076c-1.487,1.581-2.746,2.759-3.964,4.111
	c-1.219,1.353-2.397,2.879-3.883,4.084c-1.487,1.205-3.282,2.089-4.38,2.706c-1.098,0.616-1.5,0.963-1.995,0.79
	c-0.496-0.174-1.085-0.87-1.581-0.71c-0.496,0.161-0.897,1.179-1.541,1.996c-0.643,0.817-1.526,1.433-2.438,1.956
	c-0.911,0.522-1.848,0.951-2.316,1.634s-0.469,1.62-0.656,2.691c-0.188,1.072-0.563,2.277-0.964,3.254
	c-0.401,0.978-0.831,1.728-1.286,2.545c-0.455,0.816-0.938,1.701-1.754,2.223c-0.817,0.522-1.969,0.683-2.813,0.938
	c-0.843,0.254-1.379,0.603-1.459,1.621c-0.08,1.018,0.294,2.705,0.616,3.883c0.321,1.178,0.589,1.848,1.085,2.464
	c0.495,0.616,1.218,1.179,1.741,2.143c0.522,0.964,0.844,2.33,0.991,3.469c0.147,1.138,0.121,2.049,0.669,2.893
	c0.549,0.843,1.674,1.62,2.425,2.611c0.75,0.991,1.125,2.196,1.633,3.187s1.151,1.768,2.29,2.156
	c1.138,0.388,2.772,0.388,4.058,0.603s2.223,0.643,2.799,1.259c0.576,0.616,0.79,1.419,0.509,1.808s-1.058,0.361-1.969,0.455
	s-1.955,0.308-3.013,0.469c-1.058,0.161-2.129,0.267-2.946,0.08c-0.817-0.188-1.38-0.67-1.996-1.286
	c-0.616-0.616-1.286-1.366-1.982-2.089s-1.419-1.419-2.103-1.486c-0.683-0.067-1.326,0.495-2.009,1.446
	c-0.683,0.951-1.406,2.29-1.955,3.563c-0.549,1.272-0.924,2.478-1.352,3.522c-0.429,1.044-0.911,1.929-1.313,3.201
	c-0.402,1.272-0.724,2.933-1.005,4.473c-0.281,1.54-0.522,2.96-1.071,4.5c-0.549,1.54-1.406,3.201-2.41,4.473
	c-1.004,1.272-2.157,2.156-3.174,2.666c-1.018,0.509-1.902,0.643-2.598,0.428s-1.205-0.777-1.875-0.884
	c-0.669-0.107-1.5,0.241-2.451,0.656s-2.022,0.897-2.772,0.777s-1.179-0.844-2.116-0.817c-0.937,0.026-2.384,0.803-3.643,1.312
	c-1.259,0.509-2.331,0.75-3.134,0.723c-0.804-0.026-1.339-0.321-1.915-0.188c-0.577,0.134-1.192,0.697-1.675,1.407
	c-0.482,0.709-0.83,1.567-1.419,2.478c-0.589,0.91-1.42,1.874-2.33,2.571c-0.911,0.696-1.902,1.125-2.504,1.714
	c-0.603,0.589-0.817,1.339-0.496,2.772c0.322,1.433,1.179,3.549,2.331,6.08c1.151,2.531,2.598,5.477,4.191,7.741
	c1.594,2.263,3.334,3.843,4.687,5.33c1.353,1.487,2.317,2.879,3.147,3.844c0.83,0.964,1.526,1.5,1.339,2.183
	c-0.188,0.683-1.259,1.514-1.607,2.384c-0.349,0.871,0.026,1.781,0.388,2.531c0.362,0.75,0.71,1.339,0.456,1.781
	s-1.112,0.736-1.446,1.232c-0.335,0.496-0.147,1.192-0.067,1.901c0.08,0.71,0.054,1.433-0.415,1.714s-1.379,0.12-1.862,0.496
	c-0.482,0.375-0.536,1.285-0.951,1.982c-0.416,0.697-1.192,1.179-1.379,1.889s0.214,1.647-0.134,2.223
	c-0.348,0.576-1.446,0.79-1.955,1.259c-0.509,0.468-0.429,1.192-0.676,1.721c-0.248,0.529-0.823,0.863-1.031,1.479
	c-0.208,0.616-0.046,1.513,0.549,2.571c0.596,1.058,1.627,2.277,2.391,3.502c0.763,1.226,1.258,2.458,1.58,3.355
	c0.321,0.897,0.469,1.459,0.984,2.076c0.516,0.616,1.399,1.286,1.976,2.304c0.576,1.018,0.843,2.383,1.044,3.763
	s0.335,2.772,0.656,3.844c0.322,1.071,0.831,1.821,1.366,2.826c0.536,1.004,1.098,2.263,1.366,3.374
	c0.268,1.111,0.241,2.076-0.026,2.933c-0.268,0.857-0.776,1.608-1.393,2.036c-0.616,0.43-1.339,0.536-1.5,1.272
	c-0.16,0.737,0.241,2.104,0.536,2.974c0.295,0.87,0.482,1.245,0.844,1.594c0.361,0.348,0.897,0.67,1.206,1.259
	c0.308,0.589,0.388,1.446,0.134,3.013c-0.254,1.567-0.844,3.844-1.795,5.344s-2.263,2.224-3.281,2.438
	c-1.018,0.214-1.742-0.08-2.344,0.388c-0.603,0.47-1.085,1.701-2.438,2.84s-3.576,2.183-5.237,2.518
	c-1.66,0.335-2.758-0.04-3.562-0.415s-1.312-0.75-2.143-1.313c-0.83-0.563-1.982-1.313-2.986-1.526
	c-1.004-0.215-1.862,0.107-2.371,0.603s-0.67,1.165,0.335,2.116c1.004,0.95,3.173,2.183,4.808,3.401
	c1.634,1.219,2.732,2.424,3.509,3.683c0.776,1.259,1.232,2.571,1.46,3.63c0.228,1.058,0.228,1.861,0.603,2.035
	c0.375,0.174,1.125-0.281,1.941-0.455s1.701-0.067,2.665,0.441c0.964,0.51,2.009,1.42,2.919,2.236
	c0.911,0.817,1.688,1.541,2.719,1.929c1.031,0.389,2.317,0.442,3.589,0.563c1.272,0.121,2.531,0.309,3.429,0.684
	s1.433,0.938,2.049,1.098c0.616,0.161,1.312-0.08,2.691,0.576s3.442,2.21,5.826,4.821s5.089,6.28,7.567,9.24
	c2.478,2.959,4.728,5.209,6.388,6.066c1.661,0.856,2.732,0.321,3.75,0.563s1.982,1.259,3.241,2.598c1.259,1.34,2.813,3,4.768,4.099
	c1.956,1.098,4.313,1.634,5.678,1.553c1.366-0.08,1.741-0.776,1.661-1.74c-0.081-0.965-0.616-2.196-0.938-3.375
	c-0.322-1.179-0.428-2.304-0.857-3.215c-0.429-0.91-1.179-1.606-1.848-2.464c-0.67-0.856-1.259-1.875-1.232-2.731
	c0.027-0.857,0.669-1.554,1.755-1.178s2.613,1.825,3.511,2.871c0.897,1.046,1.165,1.688,1.647,1.688c0.482,0,1.179-0.643,1.7-0.938
	c0.522-0.296,0.869-0.245,1.23-0.487s0.736-0.778,1.071-1.34c0.335-0.563,0.629-1.152,0.456-1.769
	c-0.174-0.616-0.817-1.259-1.018-1.781c-0.201-0.522,0.04-0.924,0.469-0.91c0.428,0.013,1.044,0.441,1.634,0.816
	c0.589,0.375,1.151,0.697,1.808,0.55s1.406-0.764,1.929-1.607c0.522-0.844,0.817-1.915,1.205-2.719s0.871-1.339,1.139-1.915
	c0.268-0.576,0.321-1.191,0.401-1.62s0.188-0.67,0.482-0.951c0.295-0.281,0.777-0.603,1.112-1.272
	c0.334-0.67,0.521-1.688,0.656-2.558c0.134-0.87,0.214-1.594,0.589-2.584c0.375-0.991,1.044-2.251,1.5-3.362
	s0.697-2.075,1.192-2.544c0.495-0.469,1.246-0.442,2.129-0.71c0.884-0.269,1.902-0.83,3.081-1.5c1.178-0.67,2.518-1.446,3.75-1.674
	c1.232-0.228,2.357,0.094,2.746,0.95c0.388,0.857,0.04,2.251-0.831,3.161c-0.87,0.911-2.263,1.339-3.482,1.955
	s-2.263,1.42-2.986,2.316c-0.724,0.897-1.125,1.889-1.754,2.946c-0.629,1.059-1.486,2.184-2.183,3.281
	c-0.696,1.099-1.232,2.17-0.776,2.611c0.455,0.442,1.901,0.255,3.026,0.188c1.125-0.066,1.928-0.013,2.491-0.401
	s0.884-1.219,1.246-2.41c0.361-1.192,0.763-2.746,1.433-3.309c0.669-0.563,1.607-0.134,2.032,0.375s0.338,1.098,0.298,2.344
	c-0.041,1.245-0.034,3.147-0.378,4.46c-0.345,1.313-1.041,2.036-1.938,2.478s-1.996,0.603-2.29,1.098
	c-0.295,0.496,0.214,1.326,0.897,2.531c0.683,1.206,1.54,2.786,2.585,3.121c1.044,0.334,2.276-0.576,3.066-1.97
	c0.79-1.393,1.138-3.267,1.5-5.356c0.362-2.089,0.736-4.393,0.938-6.455c0.201-2.062,0.228-3.884,0.526-5.705
	s0.867-3.644,1.192-4.889c0.325-1.245,0.405-1.915,0.472-2.638c0.067-0.724,0.12-1.5-0.308-2.357
	c-0.429-0.857-1.339-1.795-2.116-2.866s-1.419-2.276-1.714-3.294c-0.294-1.018-0.241-1.849-0.241-3.027
	c0-1.178-0.054-2.705,0.161-3.95s0.696-2.209,1.754-2.705c1.059-0.495,2.692-0.521,3.549-1.271s0.938-2.223,1.701-3.081
	c0.763-0.856,2.209-1.098,3.294-1.499c1.085-0.402,1.808-0.965,2.223-0.644c0.416,0.322,0.522,1.526,0.134,2.384
	c-0.389,0.857-1.272,1.366-1.956,1.969s-1.165,1.3-1.527,1.982c-0.362,0.684-0.603,1.353-1.218,1.969
	c-0.616,0.615-1.607,1.178-2.237,1.901s-0.897,1.607-0.776,2.531c0.12,0.924,0.629,1.889,1.379,3.134
	c0.75,1.245,1.74,2.772,2.531,4.111c0.79,1.339,1.379,2.491,1.259,4.218c-0.121,1.729-0.951,4.031-1.526,5.974
	c-0.576,1.941-0.897,3.521-0.696,4.874c0.201,1.353,0.924,2.478,1.42,3.71s0.763,2.571,1.246,3.12
	c0.482,0.549,1.178,0.309,1.661-0.308c0.482-0.616,0.75-1.607,1.393-1.822c0.643-0.214,1.661,0.349,2.291,0.938
	c0.629,0.59,0.87,1.206,0.83,2.076c-0.041,0.871-0.362,1.995-0.375,3.268c-0.013,1.272,0.282,2.692,0.054,4.099
	c-0.228,1.406-0.978,2.799-1.661,4.298c-0.683,1.501-1.299,3.107-1.955,4.487c-0.656,1.379-1.353,2.53-2.116,3.736
	c-0.764,1.205-1.594,2.463-2.116,3.789s-0.736,2.719-0.924,3.79s-0.348,1.821-0.563,2.651s-0.482,1.741-1.206,2.946
	s-1.901,2.705-2.544,3.964s-0.75,2.277-0.643,3.589c0.107,1.313,0.428,2.92,0.562,4.205c0.134,1.286,0.081,2.25-0.401,3.349
	c-0.482,1.098-1.393,2.33-2.17,3.401c-0.776,1.071-1.419,1.982-1.875,2.946c-0.456,0.965-0.723,1.982-0.857,3.107
	c-0.134,1.125-0.134,2.356-0.536,3.321c-0.401,0.964-1.205,1.66-2.571,2.571c-1.366,0.91-3.294,2.035-4.259,3.294
	c-0.964,1.259-0.964,2.651-1.044,3.757c-0.08,1.104-0.241,1.922-0.509,2.745c-0.268,0.824-0.643,1.654-0.723,2.552
	c-0.081,0.896,0.134,1.861-0.214,2.771c-0.348,0.911-1.259,1.769-1.915,2.665c-0.656,0.897-1.058,1.835-1.714,2.585
	s-1.567,1.313-2.973,1.621c-1.406,0.308-3.308,0.361-4.701,0.563c-1.393,0.2-2.277,0.549-3.174,0.695
	c-0.897,0.147-1.808,0.094-2.711,0.061c-0.904-0.034-1.802-0.048-2.411,0.494s-0.931,1.641-0.65,2.658
	c0.282,1.018,1.166,1.955,1.755,2.893c0.589,0.938,0.883,1.875,0.669,2.839c-0.214,0.965-0.938,1.956-0.897,2.826
	c0.041,0.87,0.844,1.62,1.554,2.397c0.71,0.776,1.326,1.58,1.581,2.651c0.254,1.071,0.147,2.41-0.268,3.495
	s-1.139,1.915-1.139,2.853s0.723,1.981,1.058,2.759c0.334,0.776,0.281,1.285,0.12,1.874c-0.161,0.59-0.428,1.26-0.241,1.982
	c0.188,0.724,0.83,1.5,1.393,2.304c0.563,0.804,1.044,1.634,1.272,2.731c0.228,1.099,0.201,2.465,0.268,3.643
	c0.066,1.179,0.228,2.17,0.161,3.054c-0.067,0.885-0.362,1.661-1.353,2.545c-0.991,0.884-2.679,1.875-3.817,2.424
	c-1.138,0.55-1.728,0.656-2.156,1.059c-0.429,0.401-0.696,1.098-1.272,1.82c-0.576,0.724-1.46,1.474-2.116,1.915
	c-0.656,0.442-1.085,0.576-2.036,0.389c-0.951-0.188-2.424-0.696-3.951-1.245s-3.107-1.139-4.459-1.26
	c-1.353-0.12-2.478,0.228-3.133,0.67c-0.657,0.442-0.844,0.978-1.246,1.62c-0.402,0.644-1.018,1.394-1.661,2.09
	s-1.313,1.339-1.459,1.901c-0.147,0.563,0.228,1.045,0.147,1.554c-0.08,0.509-0.616,1.045-0.696,1.594
	c-0.081,0.549,0.294,1.111,0.87,1.66c0.576,0.55,1.352,1.085,1.674,2.036c0.321,0.951,0.188,2.316,0.134,3.589
	s-0.027,2.451,0.428,2.893c0.456,0.442,1.339,0.147,1.996,0.389s1.084,1.018,1.674,1.179c0.589,0.16,1.339-0.295,2.223-0.536
	c0.884-0.24,1.902-0.268,2.906-0.308s1.995-0.094,2.611-0.107s0.857,0.014,0.402,0.603c-0.456,0.59-1.607,1.741-2.625,2.987
	c-1.018,1.245-1.902,2.584-2.799,3.495c-0.897,0.91-1.808,1.393-2.383,2.009s-0.817,1.366-1.111,2.089
	c-0.295,0.724-0.643,1.42-1.299,2.036s-1.62,1.151-1.996,2.129c-0.375,0.978-0.16,2.397,0.014,3.576
	c0.174,1.178,0.308,2.115,1.044,2.745c0.737,0.629,2.076,0.951,2.947,1.474c0.87,0.521,1.271,1.245,1.674,1.955
	c0.401,0.71,0.803,1.406,1.634,1.446c0.83,0.04,2.089-0.576,2.974-1.152c0.883-0.575,1.392-1.111,1.861-1.526s0.897-0.71,1.5-1.031
	s1.379-0.67,1.875-1.339c0.496-0.67,0.709-1.661,1.205-2.13c0.496-0.469,1.272-0.415,1.982-0.79
	c0.709-0.375,1.353-1.179,1.901-1.848c0.549-0.67,1.004-1.205,1.38-1.715c0.375-0.509,0.669-0.991,1.178-1.325
	c0.509-0.335,1.232-0.522,1.634-1.059c0.402-0.535,0.482-1.42,0.791-1.981c0.308-0.563,0.843-0.804,1.392-1.005
	c0.549-0.2,1.112-0.361,1.808-0.683c0.697-0.321,1.527-0.804,2.628-0.624C127.795,629.238,129.167,630.08,130.71,631.385
	L130.71,631.385z M94.347,524.502c-0.897,0.535-1.647,1.714-1.688,2.731c-0.04,1.018,0.629,1.875,1.554,2.17
	c0.924,0.294,2.103,0.026,2.826-0.549c0.723-0.576,0.991-1.46,0.964-2.29c-0.026-0.831-0.348-1.607-1.031-2.05
	C96.289,524.073,95.244,523.966,94.347,524.502L94.347,524.502z M107.954,541.483c-0.75,0.389-1.607,1.407-1.875,2.571
	c-0.268,1.166,0.054,2.478,1.044,3.033c0.991,0.557,2.652,0.355,3.542-0.16s1.011-1.346,0.77-2.29
	c-0.241-0.944-0.844-2.002-1.466-2.651C109.346,541.336,108.704,541.096,107.954,541.483L107.954,541.483z M126.623,538.188
	c-0.938-0.174-1.875,0.282-3.549,0.617c-1.674,0.334-4.085,0.549-5.799,0.816s-2.732,0.589-3.026,1.474
	c-0.295,0.884,0.134,2.33,0.56,3.48c0.425,1.151,0.849,2.007,1.77,2.367c0.921,0.36,2.341,0.227,4.35,0.025
	c2.008-0.2,4.607-0.469,6.203-1.084c1.597-0.614,2.191-1.577,2.409-2.621c0.217-1.043,0.056-2.168-0.493-3.133
	C128.497,539.167,127.56,538.363,126.623,538.188L126.623,538.188z M131.069,530.529c-0.777,0.468-1.527,1.62-1.956,2.53
	c-0.429,0.911-0.536,1.581-0.08,2.224c0.455,0.643,1.473,1.259,2.237,1.353c0.763,0.094,1.272-0.335,1.593-1.139
	s0.455-1.981,0.522-2.879c0.067-0.897,0.067-1.514-0.335-1.929S131.845,530.061,131.069,530.529L131.069,530.529z M133.961,500.263
	c-1.125-0.268-2.705-0.83-4.178-1.146c-1.473-0.314-2.839-0.382-3.046,0.194c-0.208,0.576,0.743,1.795,1.459,3.021
	s1.199,2.457,1.581,3.516c0.381,1.058,0.663,1.941,1.205,2.075s1.346-0.481,2.297-1.353c0.951-0.87,2.049-1.995,2.598-3.054
	c0.549-1.058,0.549-2.049,0.215-2.531C135.756,500.504,135.086,500.53,133.961,500.263L133.961,500.263z M145.666,487.861
	c-0.214,0.991-1.313,2.143-2.531,2.893s-2.558,1.099-3.629,1.46c-1.071,0.362-1.875,0.736-2.544,1.433
	c-0.669,0.696-1.205,1.715-1.955,2.17s-1.714,0.349-3.201,0.107c-1.487-0.241-3.496-0.616-5.491-0.563s-3.977,0.535-4.875,1.433
	s-0.71,2.21,0.013,3.241s1.982,1.781,2.531,2.491c0.549,0.709,0.388,1.379,0.669,2.035s1.004,1.299,1.46,1.995
	c0.455,0.696,0.643,1.446,0.536,2.518c-0.107,1.072-0.509,2.465-1.393,3.362c-0.884,0.897-2.25,1.299-3.389,1.835
	c-1.138,0.535-2.049,1.204-3.187,1.499c-1.139,0.295-2.504,0.215-3.643,0.134c-1.138-0.08-2.049-0.16-2.718-0.214
	c-0.67-0.054-1.098-0.08-1.219-0.643s0.067-1.661,0.429-3.281c0.361-1.62,0.897-3.764,1.192-6.066
	c0.294-2.304,0.348-4.769,0.388-6.482c0.041-1.714,0.067-2.679,0.643-3.75c0.576-1.071,1.701-2.249,2.438-3.575
	s1.085-2.799,1.701-3.991c0.616-1.191,1.5-2.103,2.946-3c1.446-0.896,3.455-1.781,5.518-2.356c2.062-0.576,4.178-0.844,5.946-0.844
	s3.188,0.268,4.152,0.736c0.964,0.469,1.473,1.139,2.745,1.634c1.272,0.496,3.308,0.817,4.661,1.394
	C145.21,486.04,145.88,486.87,145.666,487.861L145.666,487.861z M152.656,465.792c-0.268,0.724-0.375,1.875-0.696,3.134
	s-0.857,2.625-1.553,3.91c-0.697,1.286-1.554,2.491-1.902,3.616c-0.349,1.125-0.188,2.17,0.375,2.933
	c0.563,0.764,1.527,1.246,2.504,1.326s1.968-0.241,2.665-1.018c0.696-0.777,1.098-2.009,1.607-3.228
	c0.509-1.219,1.125-2.424,1.259-3.724c0.134-1.299-0.214-2.691-0.817-4.084s-1.46-2.785-2.103-3.334
	C153.353,464.774,152.924,465.069,152.656,465.792L152.656,465.792z M134.644,467.493c-0.496,0.281-0.924,1.085-1.741,1.741
	s-2.022,1.164-2.893,1.874s-1.406,1.621-1.446,2.41c-0.04,0.791,0.415,1.461,1.406,2.251c0.991,0.79,2.518,1.7,4.098,2.383
	c1.581,0.684,3.214,1.139,4.473,1.112c1.259-0.027,2.143-0.535,2.317-1.246c0.174-0.709-0.362-1.62-1.031-2.37
	s-1.473-1.339-1.982-2.303c-0.509-0.965-0.723-2.304-0.938-3.309c-0.214-1.004-0.429-1.674-0.817-2.129
	C135.702,467.452,135.139,467.212,134.644,467.493L134.644,467.493z M36.732,351.805c-0.382,0.77-0.235,1.641,0.027,2.264
	c0.261,0.623,0.636,0.998,1.339,1.339c0.703,0.342,1.734,0.649,2.471,0.744c0.736,0.093,1.179-0.027,1.359-0.697
	c0.181-0.669,0.101-1.888-0.442-2.939c-0.542-1.052-1.547-1.936-2.504-2.042C38.024,350.366,37.114,351.035,36.732,351.805
	L36.732,351.805z M237.335,102.247c-0.388,1.298-0.281,2.959,0.402,3.897c0.683,0.937,1.941,1.151,2.758,0.709
	c0.817-0.442,1.192-1.54,0.952-2.946c-0.241-1.406-1.099-3.12-1.969-3.509C238.608,100.01,237.724,100.947,237.335,102.247
	L237.335,102.247z M234.228,110.496c-1.004,0.388-2.209,1.272-3.442,2.036c-1.232,0.763-2.491,1.406-2.879,2.236
	c-0.389,0.831,0.093,1.848,0.857,3.094c0.763,1.246,1.808,2.719,2.906,3.549s2.25,1.018,3.188,0.456
	c0.937-0.563,1.66-1.875,2.102-3.415s0.603-3.308,0.536-4.701c-0.067-1.393-0.362-2.411-0.911-2.973
	C236.036,110.214,235.232,110.107,234.228,110.496L234.228,110.496z M223.125,123.071c0.857,1.071,2.223,2.116,3.348,3.228
	c1.125,1.112,2.009,2.29,2.464,2.451c0.455,0.16,0.482-0.697,0.536-1.741c0.053-1.045,0.133-2.277-0.054-3.415
	c-0.188-1.138-0.643-2.183-1.688-3.094c-1.045-0.911-2.679-1.687-3.803-1.781c-1.125-0.094-1.741,0.495-1.875,1.339
	C221.92,120.901,222.269,122,223.125,123.071z"/>
</svg>
