<?xml version="1.0" encoding="utf-8"?>
<!-- Generator: Adobe Illustrator 15.1.0, SVG Export Plug-In . SVG Version: 6.00 Build 0)  -->
<!DOCTYPE svg PUBLIC "-//W3C//DTD SVG 1.1//EN" "http://www.w3.org/Graphics/SVG/1.1/DTD/svg11.dtd">
<svg version="1.1" id="Layer_1" xmlns="http://www.w3.org/2000/svg" xmlns:xlink="http://www.w3.org/1999/xlink" x="0px" y="0px"
	 width="792px" height="612px" viewBox="0 0 792 612" enable-background="new 0 0 792 612" xml:space="preserve">
<path fill-rule="evenodd" clip-rule="evenodd" stroke="#000000" stroke-width="2.9999" stroke-linecap="round" stroke-linejoin="round" stroke-miterlimit="22.9256" d="
	M175.608,116.934c-2.766,2.655-8.298,6.195-13.276,6.97c-4.979,0.774-9.404-1.217-13.94-1.549c-4.536-0.332-9.183,0.996-13.276,0.83
	s-7.634-1.826-9.072-3.928c-1.438-2.103-0.774-4.646-2.157-6.804c-1.383-2.157-4.813-3.927-7.025-5.808
	c-2.213-1.881-3.208-3.872-1.936-5.421c1.272-1.549,4.813-2.655,7.191-3.816c2.378-1.162,3.595-2.379,2.434-4.48
	c-1.162-2.103-4.702-5.09-4.425-7.579c0.276-2.49,4.37-4.481,7.413-3.43c3.042,1.051,5.034,5.145,6.749,4.923
	c1.715-0.222,3.153-4.758,4.979-5.809c1.825-1.051,4.038,1.383,6.417,3.928c2.378,2.544,4.923,5.199,7.689,5.919
	c2.766,0.719,5.752-0.498,10.787,0.276c5.034,0.774,12.114,3.54,14.438,6.085c2.323,2.545-0.111,4.868-0.94,7.081
	c-0.83,2.213-0.056,4.314,0.332,6.251C178.374,112.509,178.374,114.279,175.608,116.934L175.608,116.934z M309.567,566.07
	c-1.106-0.664-2.821-1.328-4.232-2.518s-2.517-2.904-4.757-3.928c-2.241-1.023-5.615-1.354-7.883-2.295
	c-2.268-0.941-3.429-2.489-3.623-4.26c-0.193-1.771,0.581-3.762,2.379-4.48c1.797-0.72,4.619-0.166,7.136,0.027
	s4.729,0.027,7.33,0.249c2.6,0.221,5.587,0.829,8.464,1.023c2.876,0.193,5.642-0.028,7.924,0.35c2.282,0.379,4.08,1.356,5.02,2.794
	c0.94,1.438,1.023,3.338,0.374,4.426s-2.032,1.364-2.392,2.83c-0.359,1.466,0.304,4.121-1.023,6.195
	c-1.328,2.074-4.647,3.568-7.081,3.734c-2.434,0.166-3.983-0.996-5.006-1.909C311.171,567.397,310.673,566.733,309.567,566.07
	L309.567,566.07z M526.938,447.857c-0.996-1.161-2.047-2.71-2.684-3.982c-0.636-1.272-0.857-2.269-1.853-2.987
	c-0.996-0.719-2.766-1.161-4.177-1.881c-1.41-0.719-2.461-1.715-1.964-3.098c0.498-1.383,2.545-3.152,4.729-4.785
	c2.186-1.632,4.509-3.125,6.583-4.01c2.074-0.886,3.899-1.162,5.089-0.332s1.743,2.766,3.236,4.01
	c1.494,1.245,3.928,1.799,5.587,2.075c1.66,0.276,2.545,0.276,4.066-0.525c1.521-0.803,3.679-2.406,5.587-4.149
	c1.908-1.742,3.568-3.623,4.979-3.401c1.411,0.221,2.572,2.544,2.932,4.923c0.36,2.379-0.082,4.813-1.051,6.334
	c-0.968,1.521-2.462,2.13-3.955,2.268c-1.494,0.139-2.987-0.193-4.536-0.166c-1.549,0.028-3.153,0.415-4.148,1.826
	c-0.996,1.41-1.384,3.845-2.435,5.78c-1.051,1.937-2.766,3.374-5.062,4.094c-2.296,0.719-5.172,0.719-7.081,0.332
	C528.873,449.794,527.933,449.02,526.938,447.857L526.938,447.857z M401.615,248.022c-1.286,0.249-1.093,1.494-1.646,2.821
	c-0.553,1.327-1.854,2.738-2.904,4.536c-1.051,1.798-1.854,3.983-0.665,5.38c1.19,1.396,4.371,2.005,5.926,1.724
	c1.556-0.281,1.487-1.452,2.054-1.812c0.567-0.36,1.771,0.092,2.593-0.387c0.823-0.479,1.266-1.89,1.294-2.9
	c0.027-1.01-0.36-1.618-0.401-2.904c-0.042-1.287,0.263-3.25-0.969-4.605C405.667,248.52,402.9,247.773,401.615,248.022
	L401.615,248.022z M303.053,297.889c-0.941,1.272-1.715,3.375-0.471,5.255c1.245,1.881,4.508,3.541,7.053,4.177
	c2.544,0.636,4.37,0.249,5.2-1.106c0.83-1.355,0.664-3.678,1.079-6.195c0.415-2.518,1.41-5.228,1.133-7.219
	c-0.276-1.992-1.825-3.264-3.042-2.323c-1.217,0.94-2.102,4.093-3.347,5.338c-1.245,1.245-2.849,0.581-4.204,0.47
	C305.099,296.174,303.993,296.616,303.053,297.889L303.053,297.889z M197.641,462.846c-1.852,1.604-3.4,3.706-3.788,6.195
	s0.387,5.366,0.442,7.523c0.056,2.157-0.608,3.596-2.655,4.868s-5.477,2.379-7.8,3.374c-2.323,0.996-3.54,1.881-4.812,2.157
	s-2.6-0.055-5.2-0.387c-2.6-0.332-6.472-0.664-8.519-0.332c-2.047,0.332-2.268,1.327-3.541,2.987
	c-1.272,1.659-3.596,3.982-6.859,6.251c-3.263,2.268-7.468,4.48-9.403,6.306c-1.937,1.825-1.605,3.264-1.218,4.813
	s0.83,3.209,1.272,4.868c0.443,1.66,0.885,3.319,0.719,5.089c-0.166,1.771-0.94,3.651-2.158,4.37
	c-1.217,0.72-2.876,0.276-4.287,0.083c-1.411-0.193-2.572-0.139-3.153,0.637c-0.581,0.774-0.581,2.268-1.106,2.959
	c-0.526,0.691-1.577,0.581-2.213,1.023s-0.857,1.438-1.328,2.185c-0.47,0.747-1.189,1.245-2.24,1.355
	c-1.051,0.111-2.434-0.166-3.79-0.415c-1.355-0.248-2.683-0.47-3.678-0.276c-0.996,0.193-1.66,0.803-2.988,1.577
	c-1.327,0.774-3.319,1.715-3.789,2.683c-0.471,0.968,0.581,1.964,0.415,2.766c-0.166,0.803-1.549,1.411-2.572,1.217
	c-1.023-0.193-1.687-1.188-2.351-2.212c-0.664-1.023-1.328-2.075-1.936-2.241s-1.162,0.554-1.826,1.023
	c-0.664,0.471-1.438,0.691-2.323,0.608c-0.885-0.082-1.881-0.47-3.292-0.636c-1.411-0.166-3.236-0.11-4.48-0.581
	c-1.245-0.47-1.909-1.466-2.628-1.908s-1.494-0.332-2.24-0.47c-0.747-0.139-1.466-0.525-2.351-0.969
	c-0.885-0.442-1.937-0.94-2.766-1.079c-0.83-0.138-1.438,0.084-1.77,0.72c-0.332,0.637-0.387,1.688-1.245,1.853
	c-0.857,0.167-2.517-0.553-4.011-0.939c-1.494-0.388-2.821-0.442-4.287,0.083c-1.466,0.525-3.07,1.632-4.038,2.571
	c-0.968,0.941-1.3,1.716-2.821,1.135c-1.521-0.581-4.232-2.517-5.089-4.204c-0.857-1.688,0.138-3.126,1.162-4.37
	c1.023-1.245,2.074-2.296,1.604-3.983c-0.471-1.687-2.461-4.01-4.287-5.835c-1.826-1.826-3.485-3.153-4.785-3.596
	c-1.3-0.443-2.241-0.001-3.596,0.138c-1.355,0.139-3.125-0.027-4.813-0.913c-1.688-0.885-3.292-2.488-4.536-3.346
	s-2.129-0.969-3.402-0.886s-2.932,0.36-3.873,0.166c-0.94-0.193-1.162-0.857-0.636-1.964c0.526-1.106,1.798-2.654,2.822-3.955
	c1.023-1.3,1.797-2.351,2.544-3.457c0.747-1.106,1.466-2.268,1.659-3.374c0.194-1.106-0.138-2.158,0.138-3.348
	c0.277-1.188,1.162-2.517,1.881-3.567c0.719-1.051,1.272-1.825,0.166-2.711c-1.106-0.885-3.872-1.88-4.84-3.07
	c-0.968-1.188-0.139-2.571,0.58-4.01c0.719-1.438,1.328-2.932,1.66-4.26c0.332-1.327,0.387-2.489,1.383-3.042
	c0.996-0.554,2.932-0.498,4.951-1.355c2.02-0.857,4.121-2.628,6.057-5.338c1.936-2.711,3.707-6.362,4.454-8.713
	c0.747-2.352,0.47-3.402,0.608-4.094c0.139-0.691,0.691-1.023,1.245-2.295c0.553-1.272,1.106-3.485,1.217-5.754
	c0.111-2.268-0.221-4.591,0.083-5.808s1.244-1.328,2.268-2.075c1.023-0.746,2.129-2.129,2.047-3.54
	c-0.083-1.41-1.355-2.849-2.213-4.563c-0.857-1.715-1.299-3.706-0.331-4.729c0.968-1.023,3.346-1.079,5.338-0.388
	c1.991,0.691,3.595,2.13,4.923,2.518c1.328,0.387,2.378-0.277,3.375-1.521c0.996-1.245,1.936-3.07,3.181-3.706
	c1.244-0.636,2.793-0.083,4.259,0.719c1.466,0.803,2.849,1.854,3.623,3.07s0.94,2.6,2.876,3.181s5.643,0.359,7.911,1.051
	c2.268,0.692,3.098,2.296,4.425,3.153s3.153,0.969,4.979,1.964c1.826,0.996,3.651,2.876,6.196,3.679
	c2.544,0.802,5.808,0.525,7.882,1.106c2.075,0.581,2.959,2.019,3.651,2.986c0.691,0.969,1.189,1.467,2.766,1.826
	c1.577,0.359,4.232,0.581,6.307,1.244c2.074,0.664,3.567,1.771,4.729,2.462c1.162,0.691,1.992,0.968,2.988,0.719
	c0.996-0.249,2.157-1.022,3.429-2.737c1.272-1.716,2.655-4.37,4.176-6.417c1.521-2.047,3.181-3.485,4.287-4.646
	c1.107-1.162,1.66-2.047,1.77-3.846c0.111-1.797-0.221-4.508-0.027-6.693c0.193-2.185,0.912-3.844,1.797-3.623
	c0.885,0.222,1.936,2.323,2.766,3.734s1.438,2.13,1.632,1.244c0.193-0.885-0.027-3.374-0.332-5.228
	c-0.304-1.853-0.691-3.069-0.498-4.646c0.193-1.576,0.967-3.513,1.438-5.338c0.47-1.825,0.636-3.54,0.276-4.563
	s-1.244-1.355-1.853-0.968s-0.94,1.493-1.853,1.3c-0.913-0.193-2.406-1.688-3.292-2.904s-1.162-2.157-1.604-3.125
	c-0.442-0.968-1.051-1.964-0.664-2.85c0.387-0.885,1.771-1.659,2.351-2.461c0.581-0.803,0.359-1.632-0.276-2.186
	c-0.636-0.553-1.688-0.829-2.296-1.632c-0.608-0.802-0.774-2.129-0.968-3.374c-0.194-1.244-0.415-2.406-1.383-2.738
	s-2.683,0.166-3.734-0.359c-1.051-0.525-1.438-2.074-2.296-3.319c-0.857-1.245-2.185-2.185-3.097-2.738
	c-0.913-0.553-1.411-0.719-2.932-0.774c-1.521-0.055-4.066,0-5.698-1.134c-1.632-1.135-2.351-3.457-1.714-4.343
	c0.636-0.885,2.627-0.331,4.259-0.83c1.632-0.497,2.904-2.046,2.683-3.484c-0.222-1.438-1.936-2.766-0.83-3.236
	c1.106-0.47,5.034-0.083,7.329,0.94c2.296,1.023,2.96,2.683,4.122,2.96c1.162,0.276,2.821-0.83,4.065-0.11
	c1.245,0.719,2.075,3.263,3.651,4.757s3.9,1.937,6.417,2.545s5.228,1.382,6.14,0.885c0.913-0.498,0.027-2.268-0.581-3.623
	s-0.94-2.296-0.636-2.877c0.304-0.58,1.244-0.802,0.912-1.659c-0.332-0.857-1.936-2.352-1.742-4.094
	c0.193-1.743,2.185-3.733,3.789-4.315c1.604-0.58,2.821,0.25,3.264,1.771c0.443,1.521,0.111,3.734,0.498,4.785
	c0.387,1.052,1.494,0.94,2.794,1.106c1.3,0.166,2.793,0.608,4.84,1.3c2.047,0.692,4.646,1.632,6.361,2.323
	c1.715,0.691,2.544,1.134,3.319,0.83c0.774-0.304,1.494-1.355,0.747-1.992c-0.747-0.636-2.959-0.857-3.789-1.742
	c-0.83-0.886-0.276-2.434,1.521-2.904c1.798-0.47,4.84,0.138,7.053-0.554s3.596-2.683,4.702-3.208
	c1.106-0.525,1.936,0.415,2.462-0.83c0.525-1.244,0.747-4.674,1.825-6.61c1.079-1.936,3.015-2.378,5.172-2.655
	c2.157-0.276,4.536-0.387,6.278-0.912s2.849-1.466,3.928-0.996c1.079,0.471,2.129,2.351,3.651,3.07
	c1.521,0.719,3.512,0.276,4.729-0.083s1.66-0.636,0.885-1.742s-2.766-3.042-2.793-4.426c-0.028-1.383,1.908-2.213,3.817-3.153
	c1.908-0.94,3.789-1.991,4.951-3.928c1.162-1.936,1.604-4.757,2.378-6.749c0.775-1.99,1.881-3.152,2.793-2.737
	c0.913,0.415,1.632,2.406,1.798,4.369c0.167,1.965-0.221,3.9,0.332,4.869c0.553,0.968,2.047,0.968,2.904-0.028
	c0.857-0.995,1.079-2.987,1.245-4.923c0.166-1.937,0.276-3.817,0.968-5.2c0.691-1.383,1.964-2.268,3.043-2.24
	c1.079,0.027,1.963,0.968,3.208,0.802c1.245-0.166,2.849-1.438,4.149-2.268c1.3-0.83,2.295-1.218,2.627-0.305s0,3.125,0.636,4.232
	c0.636,1.105,2.24,1.105,3.153-0.028c0.913-1.134,1.134-3.401,2.213-4.48c1.079-1.079,3.015-0.969,4.425-0.47
	c1.411,0.497,2.295,1.383,2.876,2.571c0.581,1.189,0.857,2.683,1.438,2.683s1.466-1.493,1.715-2.959s-0.138-2.904,0.636-3.264
	s2.71,0.359,4.176,1.3s2.462,2.102,2.987,1.825s0.581-1.991-0.664-3.264c-1.245-1.271-3.79-2.102-4.868-3.181
	c-1.079-1.078-0.691-2.406-0.028-3.181c0.664-0.774,1.604-0.995,1.909-2.047c0.304-1.051-0.028-2.932-0.139-5.2
	c-0.11-2.268,0-4.923-0.415-6.638c-0.415-1.715-1.355-2.489-2.185-3.733c-0.83-1.245-1.549-2.96-1.494-5.394
	c0.056-2.434,0.885-5.587,1.549-7.994s1.162-4.065,2.545-4.37c1.383-0.304,3.651,0.747,5.698,0.249s3.872-2.544,5.947-5.725
	c2.074-3.181,4.397-7.495,6.638-7.882c2.24-0.387,4.397,3.153,4.619,6.444s-1.494,6.333-2.046,8.628
	c-0.554,2.295,0.055,3.844-0.304,5.504c-0.36,1.66-1.688,3.43-3.568,5.283c-1.881,1.853-4.314,3.789-6.084,6.14
	c-1.771,2.351-2.877,5.117-3.347,7.108s-0.304,3.208,0.47,4.729c0.775,1.521,2.157,3.347,3.679,4.564
	c1.521,1.217,3.181,1.825,3.983,2.876c0.802,1.051,0.747,2.545,2.185,3.153c1.438,0.608,4.37,0.332,7.606-0.028
	c3.236-0.359,6.776-0.802,9.155-1.023c2.378-0.221,3.596-0.221,4.287,0.056s0.857,0.83,1.411,1.604
	c0.553,0.774,1.494,1.771,1.936,3.071s0.387,2.904,1.051,4.094c0.664,1.189,2.047,1.964,3.125,1.854
	c1.079-0.111,1.853-1.106,3.043-2.435c1.189-1.328,2.793-2.987,4.95-3.596c2.158-0.608,4.868-0.166,6.749-0.94
	s2.932-2.766,4.84-4.121c1.909-1.355,4.675-2.074,6.693-2.821c2.019-0.746,3.292-1.521,5.283-1.853
	c1.991-0.332,4.702-0.222,5.753,0.608c1.051,0.83,0.442,2.379,0.968,3.706c0.525,1.328,2.185,2.434,3.651,2.766
	c1.466,0.332,2.738-0.11,4.231-0.11s3.208,0.442,4.315-0.36c1.106-0.802,1.604-2.848,1.908-4.203s0.415-2.02-0.332-2.684
	c-0.747-0.663-2.351-1.327-2.24-2.351c0.11-1.023,1.936-2.406,3.374-2.489c1.438-0.083,2.489,1.134,3.596,1.854
	c1.106,0.719,2.268,0.94,2.849,0.387c0.581-0.553,0.581-1.881,1.743-2.268c1.162-0.388,3.485,0.166,4.812,0.055
	c1.328-0.11,1.66-0.885,0.415-2.074c-1.244-1.189-4.065-2.793-5.089-4.785s-0.249-4.37-0.304-7.025s-0.94-5.587-0.913-7.772
	c0.028-2.185,0.968-3.624,1.937-5.145c0.968-1.521,1.964-3.125,2.628-4.674s0.995-3.042,1.576-4.259
	c0.581-1.217,1.41-2.157,2.794-3.042c1.383-0.885,3.318-1.715,4.591-1.494c1.272,0.222,1.881,1.494,2.711,2.518
	c0.829,1.023,1.881,1.797,2.627,3.125c0.747,1.328,1.189,3.208,2.02,4.343c0.83,1.134,2.047,1.521,2.987,1.494
	c0.94-0.028,1.604-0.471,2.268-1.743c0.664-1.272,1.327-3.374,1.383-5.172s-0.497-3.292-0.248-4.425s1.299-1.909,1.88-3.208
	c0.581-1.3,0.691-3.125,0.166-4.453s-1.687-2.157-2.517-1.992c-0.83,0.166-1.327,1.328-2.352,1.66
	c-1.022,0.332-2.571-0.166-3.18-1.383c-0.608-1.217-0.277-3.153,0.636-4.231c0.913-1.079,2.406-1.3,2.876-1.854
	c0.471-0.553-0.082-1.438-0.857-1.715c-0.774-0.277-1.77,0.055-2.351-0.415s-0.746-1.742-0.166-2.766
	c0.581-1.023,1.908-1.798,3.042-2.351c1.135-0.553,2.075-0.885,2.573-1.438s0.553-1.327,1.604-1.659
	c1.051-0.332,3.097-0.221,4.84-0.332c1.742-0.11,3.181-0.442,4.618-0.47c1.439-0.028,2.877,0.249,4.398,0.249
	s3.125-0.276,4.563-0.138s2.711,0.691,4.121,1.079c1.411,0.387,2.96,0.608,3.623-0.442c0.664-1.051,0.443-3.375,0.664-4.813
	c0.222-1.438,0.885-1.991,1.549-1.548c0.664,0.442,1.328,1.88,2.047,2.074c0.72,0.193,1.494-0.857,1.937-1.825
	c0.442-0.968,0.553-1.854,1.521-2.213c0.969-0.359,2.794-0.193,4.758-0.193s4.065-0.166,4.896-1.051s0.388-2.489-0.83-3.208
	c-1.217-0.719-3.208-0.553-4.535-0.152c-1.328,0.401-1.991,1.037-2.476,1.079c-0.483,0.041-0.788-0.512-1.3-1.038
	c-0.512-0.526-1.23-1.023-2.047-1.217c-0.815-0.194-1.729-0.083-2.337-0.263c-0.608-0.18-0.913-0.65-0.691-1.479
	c0.221-0.83,0.968-2.02,0.926-2.642c-0.041-0.623-0.871-0.678-1.632-0.36c-0.76,0.318-1.452,1.01-2.185,1.065
	c-0.733,0.055-1.508-0.526-1.854-1.287c-0.345-0.76-0.263-1.701-0.58-1.687c-0.318,0.013-1.038,0.981-1.508,1.839
	c-0.471,0.857-0.691,1.604-1.217,1.922c-0.525,0.318-1.355,0.207-2.199,0.152c-0.843-0.055-1.701-0.055-2.213-0.498
	c-0.512-0.442-0.677-1.327-0.995-1.078c-0.318,0.249-0.788,1.631-1.245,2.613c-0.456,0.982-0.898,1.563-1.521,2.061
	c-0.623,0.498-1.425,0.913-2.103,0.346s-1.23-2.116-1.701-2.392c-0.47-0.277-0.857,0.719-1.037,1.7
	c-0.18,0.982-0.152,1.95-0.553,2.532c-0.401,0.58-1.231,0.774-2.711,1.12c-1.479,0.346-3.609,0.844-4.799,1.328
	s-1.438,0.955-1.895,1.66s-1.12,1.646-1.991,1.258c-0.871-0.387-1.95-2.102-2.601-2.475c-0.649-0.374-0.871,0.595-1.092,1.673
	c-0.222,1.078-0.442,2.268-1.313,2.766c-0.872,0.498-2.393,0.304-3.651,0.056c-1.259-0.249-2.254-0.554-2.918-1.093
	c-0.664-0.54-0.996-1.313-1.106-2.31c-0.111-0.996,0-2.213-0.194-3.111c-0.193-0.899-0.69-1.48-1.396-1.784
	c-0.705-0.304-1.618-0.332-2.282-0.761s-1.079-1.259-2.047-1.576c-0.968-0.319-2.49-0.125-3.666-0.166
	c-1.175-0.042-2.004-0.319-2.654-1.204c-0.65-0.885-1.121-2.378-1.051-3.623s0.677-2.241,1.258-2.739
	c0.581-0.498,1.134-0.498,1.59-1.23c0.457-0.733,0.816-2.198,0.913-3.926c0.097-1.728-0.069-3.72-0.844-5.103
	c-0.774-1.383-2.157-2.157-2.738-3.098c-0.581-0.94-0.36-2.047,0.083-2.959c0.442-0.913,1.106-1.632,0.774-2.461
	c-0.332-0.83-1.66-1.771-1.964-2.766c-0.304-0.996,0.415-2.046,1.189-2.849c0.774-0.802,1.604-1.355,1.963-2.351
	s0.249-2.434,0.747-2.71c0.498-0.276,1.604,0.608,2.682,0.913c1.079,0.304,2.13,0.027,2.352-1.051s-0.387-2.959,0.027-4.093
	c0.415-1.134,1.854-1.521,2.904-1.88c1.051-0.36,1.715-0.692,2.24-1.854c0.525-1.162,0.913-3.153,1.66-4.314
	c0.746-1.162,1.853-1.493,2.655-2.793c0.802-1.3,1.3-3.568,1.77-5.2c0.47-1.632,0.913-2.628,1.604-3.181
	c0.69-0.554,1.631-0.664,2.682-0.941c1.052-0.276,2.213-0.719,2.296-1.355s-0.912-1.466-1.162-2.959
	c-0.248-1.494,0.25-3.651-0.055-5.227c-0.305-1.577-1.411-2.573-2.711-2.739s-2.793,0.498-4.619,0.194
	c-1.825-0.304-3.982-1.577-5.476-1.688c-1.494-0.11-2.324,0.94-3.348,1.134c-1.023,0.193-2.24-0.47-2.987-0.47
	s-1.023,0.664-0.857,2.019c0.166,1.355,0.775,3.402,0.691,4.508c-0.083,1.106-0.857,1.272-1.77,1.604
	c-0.913,0.332-1.963,0.83-2.738,1.826s-1.272,2.489-1.521,3.79c-0.25,1.3-0.25,2.406,0.083,3.346s0.996,1.715,0.94,2.877
	c-0.055,1.162-0.829,2.71-1.742,3.734c-0.913,1.023-1.964,1.521-2.49,2.489c-0.525,0.968-0.525,2.407-0.47,3.485
	s0.166,1.797-0.581,2.378c-0.747,0.581-2.351,1.023-3.125,1.881c-0.774,0.857-0.719,2.129-1.134,3.264
	c-0.415,1.134-1.3,2.129-2.407,2.406c-1.106,0.276-2.434-0.166-3.319,0.276c-0.885,0.443-1.328,1.771-1.383,2.85
	c-0.055,1.078,0.276,1.908-0.332,2.572c-0.608,0.664-2.157,1.162-3.54,1.688c-1.383,0.525-2.6,1.079-3.651,0.747
	c-1.051-0.332-1.936-1.549-2.848-1.604c-0.913-0.055-1.854,1.051-2.047,2.186c-0.194,1.134,0.359,2.295,1.245,2.793
	c0.885,0.498,2.102,0.332,2.738,0.747c0.636,0.415,0.691,1.41,0.387,2.461s-0.968,2.157-1.3,3.07
	c-0.332,0.913-0.332,1.631-0.277,2.627c0.055,0.996,0.166,2.268-0.055,3.292c-0.221,1.023-0.774,1.798-1.051,2.517
	c-0.277,0.719-0.277,1.383-0.691,1.908c-0.415,0.525-1.245,0.912-1.466,1.908c-0.222,0.996,0.166,2.6,0.664,4.204
	c0.498,1.604,1.106,3.208,2.047,4.122c0.94,0.913,2.212,1.134,3.098,0.664s1.383-1.632,1.854-1.549
	c0.47,0.083,0.913,1.41,1.272,2.655c0.359,1.245,0.636,2.406,1.493,2.904c0.858,0.498,2.296,0.332,3.236,0.609
	c0.94,0.276,1.383,0.996,1.411,2.406c0.027,1.411-0.36,3.513-1.355,4.674c-0.996,1.162-2.6,1.383-3.79,1.936
	s-1.964,1.438-1.798,2.157s1.272,1.272,1.245,2.02c-0.028,0.747-1.189,1.687-2.019,2.71c-0.83,1.023-1.328,2.13-2.047,2.158
	c-0.719,0.027-1.659-1.023-2.323-0.996c-0.664,0.027-1.051,1.134-1.272,2.129c-0.221,0.996-0.277,1.88-0.83,2.323
	c-0.553,0.442-1.604,0.442-2.821,0.139c-1.217-0.305-2.6-0.913-3.402-0.774c-0.802,0.138-1.024,1.023-0.719,1.88
	c0.304,0.857,1.134,1.688,1.604,2.711c0.47,1.023,0.581,2.24,0.47,3.623c-0.11,1.383-0.442,2.932-0.857,4.37
	c-0.416,1.438-0.913,2.766-1.411,3.982c-0.498,1.217-0.996,2.324-0.858,3.265c0.139,0.94,0.913,1.715,1.107,2.6
	c0.193,0.885-0.194,1.881-1.107,3.209c-0.913,1.327-2.351,2.987-3.125,4.646c-0.774,1.659-0.885,3.319-1.051,4.646
	s-0.387,2.323-1.272,2.434c-0.886,0.11-2.435-0.664-3.762-1.438s-2.434-1.549-3.429-1.355c-0.996,0.193-1.881,1.355-3.015,2.074
	c-1.134,0.719-2.517,0.996-3.263,1.577c-0.747,0.581-0.858,1.466-0.858,3.153c0,1.688,0.111,4.176-0.166,5.338
	c-0.276,1.162-0.94,0.996-1.742,0.525c-0.802-0.47-1.743-1.244-3.015-1.382c-1.272-0.138-2.877,0.36-4.094,0.166
	c-1.217-0.194-2.047-1.079-2.185-2.185c-0.139-1.106,0.414-2.434,0.055-3.541c-0.36-1.106-1.632-1.991-2.406-3.181
	s-1.051-2.683-0.442-3.9c0.608-1.217,2.102-2.157,2.71-3.208c0.609-1.051,0.333-2.212-0.387-2.821
	c-0.719-0.609-1.881-0.664-2.379-1.494c-0.498-0.83-0.332-2.434-0.774-3.347c-0.442-0.914-1.494-1.134-1.66-1.853
	c-0.166-0.719,0.553-1.937,0.581-2.877c0.027-0.94-0.636-1.604-0.94-2.821c-0.304-1.217-0.249-2.987,0.111-4.702
	c0.359-1.715,1.023-3.375,1.023-4.619c0-1.245-0.664-2.075-1.411-2.628c-0.747-0.553-1.577-0.83-2.02-1.853
	c-0.442-1.023-0.498-2.793-0.498-4.813c0-2.02,0.055-4.287,0.719-5.919s1.937-2.627,1.798-3.623
	c-0.138-0.996-1.687-1.991-2.489-2.959s-0.858-1.909-1.383-3.292c-0.526-1.383-1.522-3.208-2.628-4.065
	c-1.106-0.857-2.323-0.747-3.07,0.083c-0.747,0.83-1.024,2.378-0.692,3.927c0.332,1.549,1.272,3.098,1.549,5.145
	c0.277,2.046-0.11,4.591-1.023,6.14c-0.913,1.549-2.352,2.102-3.458,1.466c-1.106-0.637-1.88-2.461-2.876-2.655
	c-0.996-0.194-2.213,1.244-2.849,2.544s-0.691,2.462-1.66,3.043c-0.968,0.581-2.849,0.581-4.065,1.217
	c-1.217,0.636-1.771,1.908-2.656,2.904c-0.885,0.996-2.102,1.715-3.678,2.075c-1.577,0.359-3.513,0.359-4.951-0.055
	c-1.438-0.415-2.379-1.245-3.679-2.13c-1.3-0.885-2.959-1.825-4.536-3.513s-3.07-4.121-2.931-5.974
	c0.138-1.854,1.908-3.126,2.792-5.006c0.885-1.881,0.885-4.37,0.167-5.366c-0.719-0.996-2.157-0.499-2.6-1.023
	c-0.443-0.526,0.11-2.075,1.244-2.987c1.134-0.913,2.849-1.19,3.734-2.241c0.885-1.051,0.939-2.876,1.327-4.093
	c0.387-1.217,1.106-1.826,0.249-2.434c-0.858-0.609-3.292-1.217-4.066-2.434c-0.774-1.217,0.111-3.042,0.442-4.868
	c0.332-1.826,0.111-3.651,0.028-5.532s-0.028-3.816,0.083-5.698c0.11-1.881,0.276-3.706,1.217-5.089
	c0.94-1.383,2.655-2.324,4.481-2.738c1.825-0.415,3.762-0.304,5.781-1.023c2.019-0.719,4.121-2.268,5.144-3.596
	s0.968-2.434,2.13-2.793c1.162-0.359,3.54,0.027,5.062-0.36c1.521-0.387,2.185-1.549,3.264-2.461
	c1.079-0.913,2.572-1.577,4.149-2.378c1.577-0.802,3.236-1.743,4.868-2.517s3.236-1.383,4.563-2.545
	c1.328-1.162,2.379-2.876,3.375-4.729c0.995-1.854,1.936-3.845,3.318-4.951c1.383-1.106,3.208-1.328,4.425-0.581
	c1.217,0.747,1.826,2.461,2.711,2.766c0.885,0.304,2.047-0.802,2.6-2.13c0.553-1.328,0.498-2.876,0.996-4.702
	c0.498-1.826,1.548-3.927,2.544-6.112c0.996-2.186,1.936-4.453,2.655-7.053c0.719-2.6,1.217-5.532,2.656-8.243
	c1.438-2.71,3.816-5.2,5.504-6.583c1.687-1.383,2.683-1.66,4.065-1.992c1.383-0.332,3.153-0.719,4.122-1.88
	c0.968-1.162,1.133-3.098,0.856-4.868c-0.276-1.77-0.995-3.375-0.276-4.979c0.719-1.604,2.876-3.208,5.393-4.259
	c2.517-1.051,5.394-1.549,6.777-3.292c1.382-1.743,1.271-4.73,1.991-6.389c0.719-1.66,2.269-1.992,3.873-3.153
	c1.604-1.162,3.264-3.153,4.785-4.314c1.521-1.162,2.904-1.494,4.37-2.434c1.466-0.94,3.015-2.489,5.117-4.646
	c2.102-2.158,4.757-4.923,7.468-6.693c2.711-1.771,5.477-2.545,7.246-3.928c1.771-1.383,2.545-3.375,4.398-5.311
	c1.854-1.937,4.785-3.817,6.168-4.066s1.217,1.134,1.715,2.074s1.659,1.438,3.098,0.83c1.438-0.608,3.152-2.323,4.342-2.765
	c1.189-0.443,1.854,0.387,2.323,1.825c0.471,1.438,0.747,3.485,1.604,4.038c0.858,0.553,2.296-0.387,3.762-0.442
	s2.96,0.774,4.37,1.411c1.411,0.636,2.738,1.078,3.458,2.102c0.719,1.023,0.829,2.627,0.719,4.094
	c-0.11,1.466-0.442,2.793,0.304,4.37c0.747,1.577,2.572,3.402,4.453,3.817s3.817-0.581,5.172-1.521
	c1.355-0.94,2.131-1.825,3.348-1.576c1.217,0.249,2.876,1.631,4.702,2.876c1.825,1.245,3.816,2.351,6.167,2.876
	c2.351,0.525,5.062,0.47,8.158,0.193c3.098-0.277,6.583-0.775,8.961-0.277c2.379,0.498,3.651,1.991,5.615,3.236
	c1.964,1.245,4.619,2.24,7.717,3.07c3.098,0.83,6.639,1.493,9.736,2.544c3.098,1.051,5.752,2.49,7.523,4.841
	c1.77,2.351,2.654,5.615,2.849,8.076c0.193,2.461-0.305,4.121-1.384,5.394c-1.078,1.272-2.737,2.157-3.982,3.761
	c-1.244,1.604-2.074,3.928-3.402,5.145c-1.327,1.217-3.152,1.328-5.338,1.079c-2.185-0.249-4.729-0.858-6.334-1.355
	c-1.604-0.498-2.268-0.885-3.153-0.498c-0.885,0.387-1.991,1.549-3.513,1.771c-1.521,0.221-3.456-0.498-5.974-1.328
	c-2.518-0.83-5.615-1.77-8.271-2.793s-4.867-2.13-6.914-2.932s-3.928-1.3-4.426-0.387c-0.498,0.913,0.387,3.236,1.881,5.255
	c1.493,2.019,3.596,3.734,5.753,5.089c2.157,1.355,4.37,2.351,6.278,2.987s3.513,0.913,4.398,1.743
	c0.885,0.83,1.051,2.212,0.802,3.54s-0.913,2.6-0.637,3.955c0.276,1.355,1.493,2.793,2.654,4.343
	c1.162,1.548,2.269,3.208,2.877,5.144c0.608,1.936,0.72,4.148,1.798,5.311c1.079,1.162,3.125,1.272,4.508,0.913
	c1.384-0.36,2.103-1.189,3.098-0.691c0.996,0.498,2.269,2.323,4.26,3.374c1.992,1.051,4.702,1.328,6.5,0.304
	s2.683-3.347,1.881-5.421c-0.803-2.075-3.291-3.9-5.338-4.314c-2.047-0.416-3.651,0.58-5.256,0.027
	c-1.604-0.553-3.208-2.655-3.152-4.508c0.055-1.854,1.77-3.458,3.899-3.651c2.13-0.194,4.674,1.023,7.164,1.825
	c2.489,0.802,4.923,1.189,7.136,1.742s4.204,1.272,5.891,1.632c1.688,0.359,3.07,0.359,5.034,1.328
	c1.964,0.968,4.509,2.904,6.361,2.932c1.854,0.027,3.016-1.853,3.099-3.541s-0.913-3.181-2.324-3.484
	c-1.41-0.305-3.235,0.58-4.618-0.167c-1.384-0.747-2.323-3.125-3.182-4.785c-0.856-1.659-1.631-2.6-3.181-3.18
	c-1.549-0.581-3.871-0.802-5.697-1.079c-1.825-0.276-3.153-0.608-2.849-1.328c0.304-0.719,2.24-1.826,3.181-3.264
	c0.94-1.438,0.885-3.208,1.106-4.342c0.222-1.134,0.719-1.632,1.466-2.932c0.747-1.3,1.742-3.402,2.71-5.255
	c0.969-1.853,1.909-3.458,4.204-3.9c2.297-0.442,5.947,0.276,7.025,1.355c1.079,1.079-0.414,2.517-0.691,3.844
	c-0.276,1.328,0.664,2.545,2.158,2.655c1.493,0.111,3.54-0.885,5.311-1.908c1.77-1.023,3.263-2.074,2.434-2.959
	c-0.83-0.885-3.982-1.604-4.813-2.627c-0.83-1.024,0.663-2.351,1.244-3.873c0.581-1.521,0.249-3.236-0.664-4.315
	c-0.912-1.079-2.405-1.521-3.872-1.797c-1.466-0.277-2.903-0.387-4.204-0.664c-1.3-0.276-2.462-0.719-2.628-2.6
	c-0.167-1.881,0.663-5.2,0.055-7.689c-0.608-2.489-2.654-4.148-4.674-6.333c-2.02-2.186-4.011-4.896-1.854-6.306
	s8.464-1.521,13.359-0.691s8.381,2.6,8.547,4.813c0.166,2.212-2.987,4.868-4.315,6.749c-1.327,1.88-0.829,2.987,0.332,4.259
	c1.162,1.272,2.987,2.71,4.841,3.761c1.853,1.051,3.733,1.715,5.642,1.521c1.909-0.194,3.845-1.245,5.311-2.932
	c1.467-1.687,2.462-4.01,2.323-5.946c-0.138-1.936-1.41-3.485-1.41-4.508s1.272-1.521,2.157-2.241
	c0.885-0.719,1.383-1.659,1.023-2.821c-0.359-1.162-1.576-2.544-0.802-4.536s3.54-4.591,5.56-5.587
	c2.019-0.996,3.291-0.387,4.619-0.968c1.327-0.581,2.71-2.351,2.876-4.453c0.166-2.103-0.885-4.536-0.415-6.085
	c0.471-1.549,2.462-2.212,3.789-0.525c1.328,1.687,1.991,5.725,3.236,6.444c1.244,0.719,3.07-1.881,4.813-4.287
	c1.743-2.406,3.402-4.619,4.813-5.697c1.411-1.079,2.572-1.024,3.153-2.656s0.581-4.951,1.272-6.859
	c0.691-1.909,2.074-2.407,2.876-1.411c0.802,0.996,1.023,3.485,2.213,4.979c1.189,1.493,3.347,1.991,4.619,0.747
	c1.272-1.245,1.659-4.232,2.268-6.195c0.609-1.964,1.438-2.904,1.079-3.651s-1.908-1.3-3.319-1.825
	c-1.41-0.526-2.683-1.023-3.264-2.13s-0.47-2.821-0.802-4.149s-1.106-2.268-0.526-3.236c0.581-0.968,2.518-1.964,4.979-2.434
	c2.463-0.47,5.449-0.415,8.271-1.051s5.477-1.963,6.555-1.77c1.079,0.193,0.581,1.908,0.969,3.54
	c0.387,1.632,1.659,3.18,3.098,3.347c1.438,0.166,3.043-1.051,4.951-0.774c1.908,0.277,4.121,2.046,5.283,3.706
	c1.161,1.66,1.271,3.208,2.019,3.264c0.747,0.055,2.13-1.383,3.43-1.659c1.3-0.277,2.517,0.608,2.82,1.688
	c0.305,1.079-0.303,2.351,0.443,3.567c0.747,1.217,2.849,2.378,3.679,3.762c0.83,1.383,0.387,2.987,0.193,4.425
	c-0.193,1.438-0.138,2.71-0.968,3.845c-0.83,1.134-2.544,2.13-3.347,3.568c-0.802,1.438-0.691,3.319-0.388,5.172
	c0.305,1.853,0.802,3.678,1.106,5.393s0.415,3.319,0.083,4.536c-0.332,1.217-1.105,2.047-1.632,3.43
	c-0.525,1.383-0.802,3.319-0.996,4.951c-0.193,1.632-0.304,2.959-0.608,4.342c-0.304,1.383-0.802,2.822-1.41,3.43
	c-0.608,0.609-1.327,0.387-2.323,1.051c-0.996,0.663-2.268,2.212-1.577,3.374c0.692,1.162,3.347,1.936,5.339,2.876
	c1.991,0.94,3.318,2.046,3.762,4.148c0.442,2.103,0,5.2,0.885,7.523c0.885,2.323,3.098,3.872,4.26,5.421
	c1.161,1.549,1.271,3.098,2.655,4.37c1.383,1.272,4.037,2.268,5.476,3.541s1.66,2.821,2.324,4.646
	c0.663,1.826,1.77,3.927,2.544,5.919s1.217,3.872,1.715,5.587c0.498,1.715,1.051,3.264,1.881,4.536
	c0.83,1.272,1.937,2.268,3.208,3.651c1.272,1.383,2.711,3.153,3.375,4.979c0.664,1.826,0.553,3.706,1.051,5.366
	s1.604,3.098,2.378,4.205c0.774,1.106,1.216,1.88,2.405,2.682c1.189,0.802,3.125,1.632,4.508,3.043s2.213,3.401,2.766,4.729
	c0.554,1.328,0.83,1.992,1.55,3.348c0.719,1.355,1.88,3.401,2.102,5.145c0.222,1.742-0.498,3.18-1.106,4.591
	c-0.608,1.411-1.106,2.793-0.691,4.481c0.415,1.687,1.742,3.678,2.074,5.919c0.332,2.24-0.331,4.729-0.968,6.251
	c-0.636,1.521-1.244,2.074-1.051,3.457c0.193,1.383,1.189,3.595,2.213,5.228c1.023,1.632,2.074,2.683,3.955,2.544
	s4.591-1.466,6.721-2.655c2.13-1.19,3.679-2.241,5.2-2.544c1.521-0.305,3.015,0.138,4.01,1.299c0.996,1.162,1.494,3.042,1.384,4.758
	c-0.111,1.714-0.83,3.263-1.189,4.646c-0.359,1.383-0.359,2.6-1.217,2.821c-0.857,0.221-2.572-0.553-4.288-0.608
	c-1.715-0.055-3.431,0.608-4.454,1.743s-1.355,2.739-0.968,4.758c0.387,2.02,1.493,4.453,2.627,5.477
	c1.135,1.023,2.296,0.636,4.315,0.028c2.019-0.609,4.896-1.438,6.693-2.96c1.798-1.521,2.517-3.734,3.07-6.112
	c0.553-2.379,0.94-4.923,1.659-6.196c0.72-1.272,1.771-1.272,2.296-0.249c0.525,1.023,0.525,3.069,1.078,4.37
	c0.554,1.3,1.66,1.853,2.379,3.015c0.72,1.162,1.051,2.932,0.968,4.923c-0.083,1.991-0.58,4.204-0.442,5.863
	c0.139,1.66,0.913,2.766,1.659,3.9c0.747,1.134,1.467,2.295,1.992,3.983c0.525,1.687,0.857,3.899,1.825,5.476
	c0.969,1.576,2.572,2.517,3.872,3.208c1.301,0.691,2.296,1.134,3.707,0.304c1.41-0.83,3.235-2.932,4.535-3.623
	c1.301-0.691,2.075,0.027,2.628,1.078c0.554,1.051,0.885,2.435,2.821,3.236c1.937,0.802,5.477,1.023,8.63,0.498
	c3.153-0.525,5.919-1.797,7.578-1.466c1.66,0.332,2.213,2.268,2.074,4.509c-0.138,2.24-0.968,4.785-2.876,6.472
	c-1.909,1.687-4.896,2.517-6.749,3.789s-2.572,2.987-4.231,4.093c-1.66,1.106-4.26,1.604-5.864,1.162
	c-1.604-0.443-2.212-1.826-3.181-2.517c-0.968-0.692-2.296-0.692-3.623,0c-1.328,0.691-2.655,2.074-3.098,3.042s0,1.521-0.056,2.129
	c-0.055,0.608-0.608,1.272-2.379,1.632c-1.77,0.359-4.757,0.416-6.417,1.827c-1.659,1.411-1.991,4.176-3.042,6.776
	c-1.052,2.6-2.821,5.034-4.647,5.366c-1.825,0.331-3.706-1.439-5.808-2.324c-2.103-0.885-4.426-0.885-4.758-0.166
	c-0.332,0.719,1.328,2.158,0.664,2.877c-0.664,0.719-3.65,0.719-6.583,0.055c-2.932-0.664-5.808-1.992-8.298-2.656
	c-2.489-0.664-4.591-0.664-6.582-0.055c-1.992,0.609-3.872,1.826-5.311,3.264c-1.438,1.439-2.434,3.098-3.651,3.485
	c-1.217,0.387-2.654-0.498-4.203-0.276c-1.55,0.221-3.209,1.549-4.205,3.319c-0.995,1.771-1.327,3.983-2.6,5.864
	s-3.485,3.43-4.204,5.089s0.056,3.43-0.222,4.426c-0.276,0.995-1.604,1.217-1.271,2.82c0.332,1.604,2.323,4.592,2.212,6.915
	c-0.11,2.323-2.323,3.983-4.535,3.54c-2.213-0.442-4.426-2.986-5.975-2.655c-1.549,0.332-2.435,3.541-2.711,6.361
	c-0.276,2.821,0.056,5.256,1.494,7.191c1.438,1.937,3.982,3.375,4.591,4.813s-0.719,2.876-1.688,4.176s-1.578,2.46-1.745,3.4
	c-0.166,0.94,0.11,1.659,1.189,1.881c1.078,0.222,2.959-0.056,3.982,0.829c1.023,0.886,1.189,2.932,1.742,4.397
	c0.554,1.467,1.494,2.352,2.545,2.241c1.052-0.11,2.213-1.217,3.319-2.268c1.106-1.052,2.157-2.047,3.706-1.55
	c1.55,0.499,3.596,2.489,5.56,4.011s3.845,2.572,5.283,3.734c1.438,1.161,2.434,2.434,2.073,3.098
	c-0.359,0.664-2.073,0.719-2.683,1.383c-0.607,0.664-0.11,1.936,0.83,2.627c0.94,0.692,2.323,0.803,3.43,1.633
	c1.106,0.829,1.937,2.378,1.659,3.401c-0.276,1.023-1.659,1.521-3.069,2.96c-1.411,1.438-2.85,3.816-4.066,4.536
	c-1.217,0.719-2.212-0.222-3.015-0.111c-0.802,0.111-1.41,1.272-1.853,2.933c-0.443,1.659-0.72,3.816-0.416,5.365
	c0.305,1.549,1.189,2.489,1.356,3.567c0.165,1.079-0.388,2.296-1.106,3.597c-0.72,1.3-1.604,2.683-2.02,4.204
	s-0.359,3.181,0.581,4.093c0.94,0.913,2.766,1.079,3.513,0.442c0.747-0.636,0.415-2.073,1.079-2.268
	c0.663-0.193,2.322,0.857,3.622,2.074c1.301,1.217,2.241,2.601,3.265,3.79c1.022,1.188,2.129,2.184,2.405,3.097
	c0.276,0.912-0.276,1.742-0.11,2.6s1.051,1.742,1.576,3.098c0.526,1.355,0.692,3.181,1.521,4.785
	c0.83,1.604,2.323,2.987,4.592,4.509c2.268,1.521,5.311,3.181,8.353,4.591c3.043,1.411,6.085,2.572,7.993,3.706
	c1.909,1.135,2.684,2.241,3.872,3.596c1.189,1.355,2.794,2.96,4.398,3.679c1.604,0.72,3.209,0.553,5.642,0.72
	c2.435,0.165,5.698,0.663,5.81,1.715c0.11,1.051-2.933,2.654-4.73,3.954c-1.798,1.301-2.351,2.297-2.074,3.983
	c0.276,1.688,1.383,4.066,1.189,5.338c-0.194,1.272-1.688,1.438-1.742,2.684c-0.056,1.245,1.327,3.567,1.161,5.643
	c-0.166,2.074-1.881,3.899-2.046,5.338c-0.167,1.438,1.217,2.489,1.963,3.623c0.747,1.134,0.857,2.352-0.276,2.683
	c-1.134,0.332-3.513-0.221-5.172-0.221c-1.66,0-2.601,0.553-3.485,0.442s-1.715-0.885-1.217-1.521
	c0.498-0.636,2.323-1.134,2.71-2.435c0.388-1.3-0.663-3.401-1.134-5.006c-0.47-1.604-0.359-2.71-1.078-3.872
	c-0.72-1.161-2.268-2.379-3.458-2.406c-1.188-0.027-2.019,1.134-3.235,2.02c-1.218,0.885-2.821,1.493-3.68,2.711
	c-0.856,1.217-0.967,3.042-1.825,4.425c-0.857,1.383-2.461,2.323-3.264,3.319c-0.802,0.995-0.802,2.046-1.825,3.125
	s-3.069,2.185-5.477,2.849c-2.406,0.664-5.172,0.886-7.274,0c-2.102-0.885-3.54-2.876-5.311-4.26
	c-1.771-1.383-3.872-2.157-5.919-2.434s-4.038-0.056-4.951-0.747c-0.912-0.691-0.746-2.295-1.41-2.6
	c-0.664-0.304-2.157,0.691-3.43,1.301c-1.272,0.608-2.323,0.829-3.43,0.387s-2.268-1.549-2.738-3.016
	c-0.47-1.466-0.249-3.291-0.138-4.812c0.11-1.521,0.11-2.738-0.72-3.513c-0.83-0.775-2.489-1.106-3.789-1.245
	c-1.3-0.138-2.24-0.083-2.904-0.774s-1.051-2.13-1.908-2.794c-0.857-0.663-2.186-0.553-3.9,0.249
	c-1.714,0.803-3.816,2.296-5.67,2.904c-1.853,0.609-3.457,0.332-4.702,0.359c-1.244,0.028-2.129,0.36-2.627-0.055
	s-0.608-1.576,0.138-2.435c0.747-0.857,2.352-1.41,2.85-2.213c0.497-0.802-0.111-1.853-0.996-2.82
	c-0.885-0.969-2.047-1.854-2.877-3.126c-0.829-1.272-1.327-2.932-1.825-4.093c-0.498-1.162-0.996-1.826-1.688-2.158
	s-1.576-0.332-2.489-0.47c-0.912-0.139-1.853-0.415-2.351-1.189s-0.553-2.047-1.355-2.711c-0.802-0.663-2.351-0.719-3.43-0.414
	c-1.078,0.304-1.688,0.968-2.683,1.023c-0.996,0.055-2.379-0.498-4.232-0.969c-1.853-0.47-4.176-0.857-5.586-1.688
	c-1.411-0.829-1.909-2.102-3.209-3.181c-1.3-1.078-3.401-1.963-5.642-3.125s-4.618-2.6-6.887-3.402
	c-2.268-0.802-4.425-0.968-7.081-1.715c-2.655-0.747-5.808-2.074-7.44-3.596c-1.632-1.521-1.742-3.235-1.022-4.231
	c0.719-0.996,2.268-1.272,2.959-2.352c0.691-1.078,0.525-2.959,0.664-4.508s0.581-2.766,1.383-3.236
	c0.803-0.47,1.964-0.193,2.932-0.581c0.969-0.387,1.743-1.438,1.604-2.6c-0.139-1.161-1.189-2.434-3.291-3.291
	c-2.103-0.858-5.256-1.3-5.449-2.351c-0.193-1.052,2.572-2.711,4.592-3.348c2.019-0.636,3.291-0.249,4.729-0.885
	s3.043-2.296,3.734-4.121s0.47-3.816-0.471-4.701c-0.94-0.886-2.6-0.664-3.679-0.056s-1.576,1.604-2.849,2.103
	c-1.272,0.497-3.318,0.497-5.145,0.995c-1.825,0.498-3.43,1.493-4.785,2.379c-1.355,0.885-2.461,1.659-3.319,2.517
	c-0.857,0.857-1.466,1.798-1.908,2.655c-0.442,0.858-0.719,1.632-1.937,2.02c-1.217,0.387-3.374,0.387-5.199,1.271
	c-1.825,0.886-3.318,2.655-4.702,4.039c-1.383,1.383-2.655,2.378-3.872,2.737c-1.218,0.36-2.379,0.084-3.816,0.692
	c-1.438,0.608-3.153,2.102-4.702,2.6c-1.55,0.498-2.933,0-4.536,0.027c-1.604,0.028-3.43,0.581-4.785,1.189s-2.24,1.272-3.596,1.742
	c-1.355,0.471-3.181,0.747-4.702,1.079s-2.738,0.719-4.121,0.442s-2.932-1.217-3.042-2.02c-0.111-0.802,1.217-1.466,1.604-2.876
	c0.388-1.411-0.166-3.568-0.996-5.311c-0.829-1.742-1.936-3.07-2.627-2.849s-0.968,1.991-1.908,3.098s-2.545,1.549-4.038,2.323
	c-1.494,0.774-2.877,1.881-3.68,3.374c-0.802,1.494-1.022,3.375-1.963,4.425c-0.94,1.052-2.601,1.272-4.163,1.688
	s-3.029,1.023-2.767,1.771c0.264,0.746,2.255,1.632,3.277,2.725c1.024,1.092,1.079,2.393-0.276,3.166
	c-1.354,0.774-4.121,1.024-5.518,1.715c-1.396,0.691-1.425,1.826-0.678,3.14s2.269,2.808,2.517,5.062
	c0.249,2.255-0.774,5.27-2.157,7.219c-1.383,1.95-3.125,2.836-4.37,2.199c-1.244-0.636-1.991-2.793-2.669-2.655
	c-0.678,0.139-1.286,2.572-1.079,4.204c0.208,1.633,1.231,2.462,1.549,3.54c0.318,1.079-0.068,2.407-0.207,4.619
	c-0.139,2.213-0.028,5.311-0.637,6.638c-0.608,1.328-1.936,0.886-3.126,0.886c-1.188,0-2.239,0.442-2.683,1.963
	c-0.442,1.521-0.276,4.121-0.774,6.112c-0.498,1.992-1.659,3.375-2.186,4.868c-0.524,1.494-0.414,3.099,0.526,3.679
	c0.94,0.581,2.71,0.139,3.816,1.328s1.549,4.01,2.435,5.946c0.885,1.937,2.213,2.987,4.343,3.899
	c2.129,0.913,5.062,1.688,6.693,2.739c1.631,1.051,1.963,2.378,0.773,3.208c-1.188,0.829-3.899,1.161-6.692,1.659
	c-2.794,0.498-5.671,1.162-7.994,2.794s-4.093,4.231-6.444,6.278c-2.351,2.047-5.283,3.54-6.223,3.457
	c-0.94-0.083,0.11-1.742-0.36-3.098c-0.47-1.355-2.461-2.406-4.785-3.291c-2.323-0.886-4.979-1.604-7.633-2.213
	c-2.655-0.608-5.311-1.106-6.75-0.885c-1.438,0.222-1.658,1.161-2.82,1.493s-3.264,0.056-5.228,0.166s-3.789,0.608-3.54,1.798
	s2.571,3.07,4.701,4.536s4.065,2.517,3.07,3.928c-0.995,1.41-4.923,3.181-7.855,4.038c-2.932,0.857-4.867,0.802-6.416-0.94
	s-2.711-5.172-3.845-6.97s-2.24-1.964-3.125-1.134c-0.886,0.829-1.55,2.654-1.272,4.563c0.276,1.909,1.493,3.9,3.152,6.141
	c1.66,2.24,3.761,4.729,3.65,6.278c-0.111,1.549-2.434,2.157-2.766,3.596s1.327,3.706,3.678,5.697
	c2.352,1.992,5.394,3.706,7.275,5.726c1.88,2.02,2.6,4.343,0.995,5.892c-1.604,1.549-5.531,2.323-5.781,3.291
	c-0.248,0.968,3.182,2.13,4.232,3.623c1.051,1.494-0.276,3.319-2.185,3.955c-1.909,0.637-4.397,0.084-4.619,1.162
	c-0.222,1.079,1.825,3.789,3.264,5.697c1.438,1.909,2.268,3.016,1.161,3.319c-1.106,0.305-4.148-0.193-6.389-1.632
	s-3.679-3.816-4.481-4.011c-0.802-0.193-0.968,1.798-1.327,3.236s-0.913,2.323-1.881,1.937c-0.968-0.388-2.351-2.047-3.153-4.038
	c-0.802-1.992-1.023-4.314-1.494-4.536c-0.47-0.222-1.188,1.659-2.434,2.239c-1.244,0.582-3.015-0.138-3.374-1.465
	c-0.359-1.328,0.691-3.264,1.161-4.702c0.471-1.438,0.36-2.379-0.636-3.623c-0.995-1.245-2.876-2.794-3.236-4.261
	c-0.359-1.465,0.803-2.848,3.43-2.986c2.628-0.138,6.722,0.968,10.013,1.688c3.292,0.719,5.781,1.051,6.473-0.111
	c0.691-1.161-0.415-3.816-2.213-5.67c-1.798-1.853-4.287-2.904-7.136-3.235c-2.849-0.332-6.058,0.055-8.962,0.553
	c-2.904,0.498-5.503,1.106-7.081,0.47c-1.577-0.636-2.129-2.517-0.996-3.54c1.134-1.023,3.955-1.188,4.453-2.268
	s-1.327-3.07-2.793-3.43c-1.466-0.359-2.572,0.913-3.319,0.857c-0.747-0.056-1.134-1.438-1.328-2.489
	c-0.194-1.051-0.194-1.771-0.83-2.434c-0.636-0.664-1.908-1.272-2.932-2.269c-1.023-0.995-1.798-2.379-3.264-3.651
	c-1.466-1.271-3.623-2.434-4.619-3.54c-0.996-1.106-0.831-2.157-0.526-3.54c0.304-1.383,0.747-3.098,1.106-5.006
	c0.359-1.908,0.636-4.011,1.134-5.919s1.217-3.624,1.549-5.311c0.332-1.688,0.277-3.347-0.913-4.177s-3.513-0.83-4.868-1.908
	c-1.355-1.079-1.743-3.236-2.573-4.37c-0.83-1.134-2.102-1.244-3.761-1.272c-1.66-0.027-3.706,0.028-5.559-1.134
	c-1.854-1.162-3.513-3.54-5.228-5.062c-1.715-1.521-3.485-2.185-4.896-3.429c-1.41-1.245-2.461-3.07-3.54-4.287
	c-1.079-1.217-2.186-1.825-4.094-2.103c-1.909-0.276-4.619-0.221-6.721-1.438c-2.103-1.218-3.596-3.707-4.509-5.339
	c-0.913-1.632-1.245-2.406-0.94-3.181c0.304-0.774,1.245-1.549,0.525-2.71c-0.719-1.162-3.098-2.711-3.596-4.26
	c-0.498-1.549,0.885-3.098,0.47-4.896s-2.627-3.845-4.011-4.397c-1.383-0.554-1.936,0.387-2.821,1.88
	c-0.885,1.494-2.102,3.541-3.181,3.596c-1.079,0.056-2.019-1.88-2.489-3.679c-0.471-1.797-0.471-3.456,0.138-4.342
	c0.609-0.885,1.825-0.996,2.517-2.157c0.691-1.162,0.857-3.374,0.138-4.343c-0.719-0.968-2.323-0.691-4.093-0.304
	c-1.771,0.387-3.707,0.885-5.809,1.327s-4.37,0.83-5.946,1.41c-1.577,0.581-2.462,1.355-3.264,2.711s-1.521,3.291-1.162,4.509
	c0.359,1.217,1.798,1.715,2.019,2.655s-0.774,2.323-1.521,4.121c-0.747,1.798-1.245,4.01-0.415,6.25
	c0.83,2.241,2.987,4.509,5.56,5.67c2.572,1.162,5.559,1.218,7.053,2.324s1.494,3.264,1.715,4.84
	c0.221,1.577,0.664,2.572,0.857,4.038c0.194,1.467,0.139,3.402,1.051,5.643c0.913,2.241,2.793,4.785,4.923,6.971
	c2.129,2.185,4.508,4.01,7.357,4.535c2.849,0.526,6.167-0.248,8.491,0c2.323,0.249,3.65,1.521,3.125,2.573
	c-0.526,1.051-2.904,1.88-3.042,3.263c-0.138,1.384,1.963,3.319,3.955,4.481c1.992,1.161,3.872,1.549,5.56,2.019
	c1.688,0.471,3.181,1.023,5.2,1.826c2.019,0.802,4.564,1.852,6.999,3.207c2.434,1.355,4.757,3.015,6.195,4.841
	c1.438,1.825,1.991,3.816,2.102,5.559c0.111,1.743-0.221,3.236-0.995,4.093c-0.774,0.858-1.992,1.079-3.679,0.028
	c-1.688-1.051-3.844-3.374-6.195-4.48c-2.352-1.106-4.896-0.996-6.832-0.359c-1.936,0.636-3.264,1.797-3.347,3.125
	s1.079,2.821,2.185,3.872c1.106,1.052,2.158,1.659,3.153,2.766c0.996,1.106,1.936,2.711,1.189,4.813
	c-0.747,2.103-3.181,4.703-5.228,6.666c-2.047,1.964-3.706,3.292-6.057,4.729c-2.351,1.439-5.394,2.987-7.938,3.513
	c-2.545,0.526-4.592,0.028-4.729-1.188c-0.139-1.218,1.631-3.153,2.821-5.007c1.189-1.854,1.797-3.623,2.434-4.95
	c0.636-1.328,1.3-2.214,1.272-4.094c-0.028-1.881-0.747-4.758-1.66-6.998c-0.913-2.24-2.019-3.845-3.624-4.426
	c-1.604-0.58-3.706-0.138-5.089-0.774c-1.383-0.636-2.047-2.351-2.324-4.176c-0.276-1.826-0.166-3.762-1.162-5.2
	c-0.996-1.438-3.098-2.379-5.338-3.458c-2.24-1.078-4.619-2.295-6.998-3.622c-2.379-1.328-4.757-2.766-6.831-4.37
	c-2.075-1.604-3.845-3.375-5.67-5.422c-1.826-2.046-3.706-4.37-5.365-6.555s-3.097-4.231-5.143-6.527
	c-2.046-2.296-4.702-4.841-6.25-7.33s-1.991-4.923-2.766-7.522c-0.774-2.601-1.88-5.366-2.655-7.579s-1.217-3.872-1.715-5.199
	c-0.498-1.328-1.051-2.324-2.544-2.435c-1.494-0.11-3.928,0.664-5.809,0.498s-3.208-1.271-4.48-0.94
	c-1.272,0.332-2.489,2.103-4.536,3.541c-2.047,1.438-4.923,2.544-8.132,3.318s-6.749,1.217-8.629,2.379
	c-1.881,1.161-2.102,3.042-3.319,4.702c-1.217,1.659-3.429,3.098-5.421,2.434s-3.762-3.43-5.145-5.421
	c-1.383-1.991-2.378-3.209-3.872-4.038c-1.494-0.83-3.485-1.272-5.642-1.715c-2.158-0.442-4.481-0.885-6.307-1.327
	c-1.825-0.443-3.153-0.886-4.894-0.554C201.647,460.137,199.493,461.242,197.641,462.846L197.641,462.846z M260.096,496.588
	c1.079-1.051,2.019-3.208,2.434-4.646c0.415-1.438,0.304-2.157,1.051-2.986c0.747-0.83,2.351-1.771,2.987-3.734
	s0.304-4.951-0.719-6.832c-1.023-1.88-2.738-2.655-3.734-2.046c-0.996,0.608-1.272,2.6-2.434,3.761
	c-1.162,1.162-3.208,1.494-4.453,2.406c-1.245,0.913-1.688,2.406-1.77,4.177c-0.083,1.771,0.193,3.816,0.774,5.67
	c0.581,1.854,1.465,3.513,2.516,4.37S259.017,497.64,260.096,496.588L260.096,496.588z M248.12,534.065
	c1.161,0.471,2.655-0.027,3.263-1.078s0.333-2.655,1.107-2.821c0.774-0.165,2.6,1.106,4.204,1.687
	c1.604,0.581,2.987,0.471,3.734-0.856c0.747-1.328,0.857-3.872,0.913-6.417c0.055-2.545,0.055-5.089,0.719-6.804
	c0.664-1.716,1.991-2.6,2.655-4.066c0.664-1.466,0.664-3.512,0.083-5.421c-0.581-1.908-1.742-3.679-2.738-4.951
	c-0.996-1.271-1.825-2.047-2.683-1.881s-1.742,1.272-3.07,1.854c-1.328,0.581-3.098,0.636-4.951,0.608
	c-1.854-0.027-3.79-0.139-5.173,0.691c-1.383,0.83-2.212,2.6-2.323,3.983c-0.111,1.383,0.498,2.378,0.719,3.65
	s0.055,2.821,0.664,3.457c0.608,0.637,1.991,0.36,2.932,0.526c0.94,0.166,1.438,0.774,1.051,1.963
	c-0.387,1.189-1.66,2.96-2.655,4.592s-1.714,3.125-1.88,4.425c-0.166,1.301,0.221,2.406,0.829,3.679
	C246.128,532.157,246.958,533.596,248.12,534.065L248.12,534.065z M142.751,344.785c3.042-0.774,6.887-3.734,9.473-4.328
	c2.586-0.595,3.914,1.175,5.518,1.507s3.485-0.773,5.974-0.939s5.587,0.607,9.736,1.825c4.149,1.217,9.349,2.877,13.774,3.817
	c4.426,0.939,8.077,1.161,11.783,1.05c3.706-0.11,7.468-0.553,9.625-1.77s2.71-3.208,1.217-4.204
	c-1.494-0.995-5.034-0.995-5.808-1.937c-0.775-0.939,1.216-2.82,4.148-4.48c2.932-1.659,6.804-3.098,8.464-5.089
	c1.659-1.992,1.106-4.536-0.166-6.361c-1.272-1.826-3.264-2.932-5.421-3.043c-2.158-0.11-4.481,0.774-5.975,0.443
	c-1.494-0.332-2.157-1.881-1.438-3.485s2.821-3.264,3.042-4.868s-1.438-3.153-2.434-4.646c-0.996-1.494-1.328-2.932-0.83-3.541
	c0.498-0.608,1.825-0.387,2.932-0.719s1.992-1.217,2.047-3.153s-0.719-4.923-2.268-6.417c-1.549-1.494-3.872-1.494-4.591-2.932
	c-0.72-1.438,0.166-4.315,0.608-6.859c0.443-2.545,0.443-4.757,0.111-6.638c-0.332-1.88-0.996-3.43-2.268-4.646
	c-1.272-1.217-3.153-2.102-5.255-2.821c-2.102-0.719-4.425-1.272-5.642-2.102c-1.217-0.83-1.328-1.936-0.45-2.289
	s2.745,0.047,4.432,0.074c1.687,0.027,3.194-0.318,3.423-1.126c0.229-0.809-0.822-2.081,0.035-2.605
	c0.858-0.525,3.624-0.304,5.338-1.41s2.379-3.54,3.596-5.311c1.217-1.77,2.986-2.876,3.595-4.37
	c0.608-1.494,0.055-3.375-2.821-4.481c-2.876-1.106-8.076-1.438-11.118-0.885c-3.043,0.553-3.928,1.991-4.481,1.438
	c-0.553-0.553-0.774-3.098,1.328-5.255c2.102-2.157,6.527-3.927,9.238-5.477c2.71-1.548,3.706-2.876,2.876-3.816
	c-0.83-0.94-3.485-1.494-5.753-2.158c-2.269-0.664-4.149-1.438-6.085-1.548s-3.927,0.442-4.813,1.382
	c-0.885,0.941-0.664,2.269-0.609,3.596c0.056,1.328-0.055,2.655-1.051,2.655c-0.996,0-2.876-1.327-4.314-1.382
	c-1.438-0.056-2.435,1.161-2.655,2.6c-0.222,1.438,0.332,3.098-0.443,4.979s-2.876,3.982-4.37,6.195
	c-1.493,2.213-2.379,4.536-1.936,5.643c0.443,1.106,2.212,0.996,3.098,2.213c0.885,1.217,0.885,3.761,1.162,5.199
	c0.276,1.439,0.83,1.771,1.826,2.545c0.996,0.774,2.434,1.991,2.102,3.706c-0.332,1.715-2.434,3.928-4.37,5.698
	c-1.936,1.771-3.706,3.098-3.485,4.26c0.222,1.162,2.434,2.157,4.758,2.434c2.323,0.277,4.757-0.166,6.084,0.111
	c1.328,0.276,1.549,1.272,0.774,2.378c-0.774,1.106-2.544,2.324-2.71,3.817c-0.166,1.493,1.272,3.263,2.544,4.646
	c1.272,1.383,2.378,2.379,1.936,3.927c-0.442,1.549-2.434,3.651-3.832,5.423c-1.398,1.772-2.204,3.215-2.606,3.937
	s-0.402,0.721-1.77,0.055c-1.368-0.666-4.103-1.998-6.453-2.561c-2.349-0.562-4.313-0.355-5.875,1.021
	c-1.563,1.376-2.725,3.92-1.741,5.001c0.984,1.08,4.114,0.698,5.732,1.092c1.618,0.395,1.724,1.566,1.003,3.092
	c-0.722,1.527-2.27,3.407-4.842,3.933c-2.572,0.526-6.168-0.305-8.902-0.616c-2.735-0.312-4.607-0.106-5.631,0.918
	c-1.023,1.023-1.197,2.864-0.012,3.95c1.186,1.087,3.73,1.418,6.496,2.082s5.753,1.66,7.468,2.601s2.157,1.825,4.094,1.936
	c1.936,0.11,5.366-0.553,6.804-0.055c1.438,0.497,0.884,2.157-1.217,3.374c-2.103,1.217-5.753,1.991-9.252,1.825
	c-3.499-0.166-6.846-1.272-10.663-1.135c-3.817,0.139-8.104,1.521-11.409,3.568s-5.628,4.758-5.67,6.818
	S139.708,345.56,142.751,344.785L142.751,344.785z M117.637,291.792c-2.877,0.83-5.753,2.489-7.8,4.591
	c-2.047,2.102-3.264,4.646-3.042,6.749c0.221,2.102,1.88,3.761,4.757,4.37c2.876,0.608,6.97,0.165,10.677,0.276
	c3.706,0.11,7.025,0.774,10.289,1.327c3.264,0.554,6.473,0.996,9.072,0.664c2.6-0.332,4.591-1.438,5.919-4.481
	c1.328-3.042,1.991-8.021,3.375-11.616c1.383-3.596,3.485-5.808,5.477-7.634c1.991-1.826,3.872-3.264,4.591-4.868
	c0.719-1.604,0.277-3.374-0.11-5.532c-0.387-2.157-0.719-4.702-2.213-6.361c-1.493-1.66-4.149-2.434-7.025-3.54
	c-2.877-1.106-5.975-2.545-8.851-2.103c-2.876,0.443-5.532,2.766-5.974,4.591c-0.443,1.826,1.328,3.153,0.885,4.924
	c-0.443,1.77-3.098,3.982-5.477,2.932c-2.379-1.051-4.48-5.366-6.251-6.306c-1.77-0.94-3.208,1.494-3.927,3.817
	s-0.719,4.536-0.885,6.583c-0.166,2.046-0.498,3.927,0.332,5.697c0.83,1.771,2.821,3.43,2.378,4.259
	C123.389,290.963,120.513,290.963,117.637,291.792z"/>
</svg>
