<?xml version="1.0" encoding="utf-8"?>
<!-- Generator: Adobe Illustrator 15.1.0, SVG Export Plug-In . SVG Version: 6.00 Build 0)  -->
<!DOCTYPE svg PUBLIC "-//W3C//DTD SVG 1.1//EN" "http://www.w3.org/Graphics/SVG/1.1/DTD/svg11.dtd">
<svg version="1.1" id="Layer_1" xmlns="http://www.w3.org/2000/svg" xmlns:xlink="http://www.w3.org/1999/xlink" x="0px" y="0px"
	 width="612px" height="792px" viewBox="0 0 612 792" enable-background="new 0 0 612 792" xml:space="preserve">
<path fill-rule="evenodd" clip-rule="evenodd" stroke="#000000" stroke-width="2.9999" stroke-linecap="round" stroke-linejoin="round" stroke-miterlimit="22.9256" d="
	M423.488,628.867c-0.979,1.075-2.936,2.51-4.314,3.227s-2.18,0.717-2.98,0.179c-0.8-0.538-1.601-1.613-1.245-2.465
	c0.356-0.852,1.868-1.479,2.98-2.958c1.111-1.479,1.823-3.809,4.313-5.87c2.491-2.062,6.762-3.854,11.742-4.93
	c4.981-1.075,10.675-1.434,16.057-0.717s10.451,2.509,14.988,3.45c4.536,0.941,8.54,1.031,11.52,1.972
	c2.98,0.941,4.937,2.734,8.228,3.72c3.292,0.986,7.917,1.165,11.564,1.703s6.315,1.435,6.449,2.331
	c0.134,0.896-2.269,1.792-4.314,3.047s-3.736,2.868-6.627,3.675s-6.982,0.807-10.274,1.568c-3.291,0.762-5.781,2.285-6.716,1.972
	c-0.934-0.313-0.312-2.465,0.623-4.212c0.934-1.748,2.18-3.093,1.156-3.048c-1.022,0.045-4.314,1.479-6.538,1.345
	c-2.224-0.135-3.38-1.838-4.581-3.406s-2.446-3.003-4.225-3.182c-1.78-0.18-4.093,0.896-6.361,0.896
	c-2.268,0-4.492-1.076-6.938-1.39c-2.445-0.313-5.114,0.135-7.071,0.225c-1.957,0.089-3.202-0.18-3.068-1.165
	c0.133-0.986,1.646-2.689,0.533-3.361c-1.112-0.673-4.849-0.313-7.605,0.672c-2.757,0.986-4.537,2.6-5.427,3.765
	C424.467,627.074,424.467,627.791,423.488,628.867L423.488,628.867z M424.741,41.436c-4.27,2.42-7.472,8.157-11.742,12.638
	c-4.27,4.482-9.606,7.708-11.652,10.129c-2.046,2.419-0.801,4.033-0.623,6.004s-0.711,4.302-2.135,7.26
	c-1.423,2.958-3.38,6.543-4.804,10.039c-1.423,3.495-2.313,6.901-3.202,10.218c-0.89,3.316-1.779,6.542-1.601,9.411
	c0.178,2.868,1.423,5.378,2.223,8.425c0.801,3.047,1.157,6.632,0,9.232c-1.156,2.599-3.824,4.212-5.604,5.915
	s-2.668,3.496-2.49,6.005c0.178,2.509,1.423,5.736,4.27,6.364c2.846,0.627,7.294-1.345,9.606-1.435
	c2.313-0.089,2.491,1.703,0.89,3.406s-4.981,3.316-6.404,5.646c-1.423,2.331-0.89,5.378,0.355,7.26
	c1.246,1.882,3.202,2.599,5.515,2.062c2.313-0.538,4.982-2.331,8.896-4.213c3.914-1.882,9.073-3.854,14.144-2.599
	c5.071,1.255,10.052,5.736,13.699,9.949s5.96,8.156,8.361,12.458c2.402,4.302,4.893,8.963,6.85,10.666
	c1.957,1.703,3.38,0.448,5.604,0.359c2.224-0.09,5.248,0.985,5.781,1.703c0.534,0.717-1.423,1.075-3.113,2.151
	c-1.689,1.075-3.112,2.868-3.469,5.557c-0.355,2.688,0.355,6.274,2.135,8.066s4.625,1.792,6.404,0.269
	c1.779-1.524,2.491-4.571,3.736-6.005s3.024-1.255,4.715,0c1.689,1.255,3.291,3.585,2.846,5.288
	c-0.444,1.703-2.935,2.778-4.181,4.392c-1.245,1.613-1.245,3.764-0.533,6.722c0.711,2.958,2.135,6.723,5.248,9.949
	s7.917,5.916,10.675,8.783c2.758,2.868,3.469,5.916,6.137,8.694c2.669,2.778,7.295,5.288,11.742,8.335s8.718,6.633,12.275,7.619
	s6.405-0.627,9.34-1.524c2.936-0.896,5.961-1.075,9.341-0.269s7.116,2.599,8.717,1.523c1.602-1.075,1.067-5.019-0.267-8.246
	c-1.334-3.226-3.47-5.736-5.604-8.425s-4.27-5.557-5.604-9.231s-1.868-8.156-2.58-11.652c-0.712-3.495-1.602-6.005-2.224-8.694
	c-0.623-2.689-0.979-5.557,0-7.708c0.979-2.151,3.292-3.585,5.07-6.991c1.779-3.406,3.024-8.784,2.936-12.907
	c-0.089-4.123-1.512-6.991-1.156-9.68c0.355-2.689,2.49-5.198,4.98-9.59c2.491-4.392,5.338-10.666,5.871-16.223
	c0.534-5.557-1.245-10.397-2.579-12.189s-2.224-0.538-4.626,0.717c-2.401,1.255-6.315,2.509-9.251,1.882s-4.893-3.137-4.181-4.481
	c0.712-1.344,4.092-1.523,7.472-1.613c3.381-0.09,6.761-0.09,6.494-1.792c-0.267-1.703-4.181-5.109-7.561-7.887
	c-3.381-2.778-6.227-4.929-8.54-7.797c-2.313-2.868-4.092-6.454-5.248-10.128c-1.156-3.674-1.69-7.439-3.914-10.218
	c-2.224-2.778-6.138-4.57-10.052-7.349c-3.914-2.779-7.828-6.543-11.741-9.59c-3.914-3.047-7.829-5.378-11.653-8.515
	c-3.825-3.137-7.562-7.081-9.607-11.563s-2.401-9.5-4.536-13.803s-6.049-7.887-8.185-7.708c-2.135,0.18-2.49,4.123-2.579,7.887
	c-0.089,3.765,0.089,7.35-0.979,9.143c-1.067,1.792-3.38,1.792-6.049,0.627c-2.668-1.166-5.692-3.496-6.938-5.916
	c-1.245-2.42-0.712-4.93-3.113-6.633C434.348,39.912,429.011,39.016,424.741,41.436L424.741,41.436z M323.179,137.046
	c-0.512,1.457-0.378,4.504,0.334,7.328c0.711,2.823,2.001,5.422,3.691,7.17c1.689,1.748,3.78,2.644,5.471,2.577
	c1.689-0.067,2.979-1.098,2.691-2.442c-0.29-1.344-2.158-3.002-3.647-4.885c-1.49-1.882-2.603-3.988-3.492-5.848
	c-0.89-1.86-1.557-3.473-2.468-4.347C324.847,135.724,323.69,135.59,323.179,137.046L323.179,137.046z M308.946,130.123
	c-1.224-0.359-2.824,0-3.603,1.703c-0.778,1.703-0.734,4.75,0.244,7.775c0.979,3.025,2.892,6.027,5.404,8.044
	c2.513,2.017,5.626,3.047,7.25,2.667c1.623-0.381,1.757-2.174,1.534-4.459c-0.223-2.286-0.801-5.064-1.712-6.79
	c-0.912-1.726-2.157-2.397-3.247-3.294s-2.023-2.017-2.914-3.114C311.015,131.557,310.169,130.481,308.946,130.123L308.946,130.123z
	 M319.555,181.121c2.135,0.852,3.291,1.927,5.137,2.622s4.381,1.008,6.071-0.112c1.689-1.121,2.535-3.675,1.845-5.669
	c-0.688-1.994-2.913-3.428-4.937-4.929c-2.023-1.501-3.847-3.07-4.959-4.952s-1.512-4.078-2.824-5.243
	c-1.313-1.166-3.536-1.3-6.338-1.658c-2.803-0.359-6.183-0.941-7.739,0.067s-1.29,3.607-0.4,5.938
	c0.89,2.33,2.402,4.391,3.469,6.318c1.068,1.927,1.69,3.72,3.559,4.93S317.419,180.27,319.555,181.121L319.555,181.121z
	 M383.379,82.015c-2.669-1.658-6.938-2.375-10.541-2.465c-3.603-0.089-6.538,0.448-9.385,1.524
	c-2.847,1.075-5.604,2.688-7.783,4.481c-2.18,1.792-3.78,3.765-5.96,5.736c-2.18,1.972-4.937,3.943-7.428,5.826
	c-2.49,1.882-4.714,3.674-6.004,4.974s-1.646,2.106-0.979,4.078c0.667,1.972,2.356,5.108,4.403,7.215
	c2.046,2.106,4.447,3.182,5.025,3.866c0.578,0.683-0.667,0.974-2.49,0.392c-1.824-0.583-4.226-2.04-5.871-3.664
	s-2.535-3.417-4.537-3.596c-2.001-0.179-5.115,1.255-6.671,3.541c-1.558,2.286-1.558,5.422-1.023,8.515
	c0.534,3.092,1.602,6.14,2.847,8.739c1.246,2.599,2.668,4.75,4.804,7.081c2.135,2.33,4.981,4.84,8.762,5.916
	c3.78,1.075,8.495,0.716,10.318,2.958c1.824,2.241,0.756,7.081-1.379,10.442c-2.135,3.361-5.337,5.243-9.474,4.481
	c-4.136-0.762-9.206-4.168-12.142-4.392c-2.936-0.224-3.736,2.733-2.357,5.467s4.937,5.243,7.473,6.588
	c2.535,1.344,4.047,1.523,4.447,2.958c0.4,1.434-0.312,4.123-0.133,6.274c0.177,2.15,1.244,3.764,5.025,4.974
	c3.78,1.21,10.273,2.017,16.59,1.121c6.315-0.896,12.453-3.496,14.632-6.14c2.18-2.644,0.401-5.333-3.113-6.543
	c-3.514-1.209-8.762-0.941-12.986-0.672c-4.226,0.269-7.428,0.538-7.294-0.807c0.133-1.344,3.602-4.302,7.916-5.781
	c4.314-1.479,9.474-1.479,12.364-3.092c2.892-1.614,3.515-4.84,2.714-6.813c-0.801-1.972-3.024-2.688-3.069-4.302
	c-0.044-1.613,2.091-4.123,3.736-7.081c1.646-2.958,2.802-6.364,2.269-8.873c-0.534-2.51-2.758-4.123-3.336-6.094
	c-0.578-1.972,0.489-4.303,2.135-6.364c1.646-2.062,3.869-3.854,4.848-6.453c0.979-2.6,0.712-6.006,1.424-9.322
	s2.401-6.543,3.735-9.5c1.335-2.958,2.313-5.646,2.269-8.291S386.048,83.673,383.379,82.015L383.379,82.015z M392.609,237.833
	c-0.956,1.21-2.557,3.092-2.379,5.4c0.178,2.308,2.135,5.042,4.314,5.49c2.18,0.448,4.58-1.389,5.403-3.428s0.067-4.28-1.156-5.938
	c-1.223-1.658-2.913-2.733-3.914-3.002S393.566,236.623,392.609,237.833L392.609,237.833z M357.897,189.567
	c-2.401,1.524-4.804,3.048-6.538,6.005s-2.802,7.349-3.158,11.741c-0.355,4.392,0,8.784,0.667,12.234
	c0.667,3.451,1.646,5.96,3.514,7.395s4.626,1.793,8.051,1.838c3.425,0.044,7.517-0.225,10.585-0.986
	c3.069-0.762,5.115-2.017,7.205-3.182c2.091-1.166,4.226-2.241,5.827-2.017c1.602,0.225,2.668,1.748,4.047,3.585
	c1.379,1.837,3.068,3.988,6.183,5.826c3.113,1.837,7.649,3.361,10.273,4.84c2.625,1.479,3.336,2.913,3.87,4.526
	s0.89,3.406,1.022,5.377c0.134,1.972,0.045,4.123-0.756,5.736c-0.801,1.614-2.313,2.689-2.09,3.988
	c0.223,1.3,2.179,2.823,3.068,3.988c0.89,1.166,0.712,1.972-0.578,2.958s-3.691,2.151-5.915,2.779
	c-2.225,0.627-4.271,0.717-5.16,2.196c-0.889,1.479-0.622,4.347,0.712,6.05c1.335,1.703,3.736,2.241,6.983,1.748
	s7.339-2.016,9.873-1.882c2.536,0.134,3.515,1.927,5.471,4.123c1.957,2.195,4.893,4.795,9.163,6.05
	c4.27,1.254,9.873,1.165,14.41,1.165c4.536,0,8.006,0.09,7.917-1.254c-0.09-1.345-3.736-4.123-7.116-5.96
	c-3.38-1.838-6.494-2.734-8.807-4.034s-3.825-3.002-2.758-3.451c1.067-0.448,4.715,0.358,7.517,1.389s4.759,2.286,6.538,2.958
	c1.779,0.672,3.38,0.762,3.647-0.851c0.267-1.613-0.801-4.93-2.892-7.574c-2.09-2.644-5.203-4.616-8.939-6.946
	c-3.736-2.331-8.095-5.02-10.052-7.529c-1.957-2.51-1.513-4.84,0.8-5.154c2.313-0.313,6.494,1.389,10.008,3.271
	c3.514,1.883,6.36,3.944,7.962,3.944c1.601,0,1.956-2.061,2.135-4.123c0.178-2.062,0.178-4.123,0.489-6.453
	c0.312-2.331,0.934-4.93,0.711-6.947c-0.222-2.017-1.289-3.45-3.735-4.212c-2.446-0.762-6.271-0.852-9.074-1.031
	c-2.802-0.179-4.581-0.448-6.805-0.896c-2.224-0.448-4.892-1.075-6.76-2.196c-1.868-1.12-2.936-2.733-2.892-4.392
	c0.045-1.658,1.201-3.361,1.112-5.109c-0.089-1.748-1.423-3.541-4.314-5.244c-2.891-1.703-7.339-3.316-11.119-4.795
	c-3.78-1.479-6.894-2.823-9.74-4.123s-5.426-2.554-7.428-3.988s-3.425-3.047-5.56-5.333c-2.135-2.286-4.981-5.244-7.116-6.319
	c-2.135-1.076-3.558-0.27-6.315,0.448s-6.85,1.345-9.43,1.3S358.965,190.284,357.897,189.567L357.897,189.567z M287.379,153.312
	c-1.045-1.21-2.291-3.182-3.158-5.221c-0.868-2.039-1.356-4.145,0.689-6.364c2.045-2.219,6.627-4.548,9.362-4.929
	c2.735-0.381,3.625,1.187,3.58,3.227c-0.044,2.039-1.023,4.548-1.935,6.834s-1.757,4.347-2.713,5.736
	c-0.956,1.389-2.023,2.106-2.979,2.241C289.27,154.97,288.425,154.522,287.379,153.312L287.379,153.312z M272.769,160.079
	c-1.557,1.076-3.647,2.509-6.116,2.936c-2.469,0.425-5.315-0.157-7.206-1.748s-2.824-4.19-1-7.215
	c1.823-3.025,6.405-6.476,10.03-8.156c3.625-1.681,6.293-1.591,7.983-0.829c1.69,0.762,2.402,2.196,2.046,3.876
	s-1.779,3.607-2.313,5.086c-0.534,1.479-0.178,2.509-0.511,3.383S274.325,159.003,272.769,160.079L272.769,160.079z
	 M301.301,179.573c0.956-0.627,1.089-2.375,0.934-4.84c-0.156-2.465-0.601-5.647-1.357-6.453c-0.756-0.807-1.823,0.762-2.468,0.067
	s-0.867-3.652-1.624-6.027c-0.756-2.375-2.046-4.168-3.136-3.675s-1.979,3.271-2.49,5.535c-0.512,2.263-0.645,4.011-1.846,4.167
	c-1.201,0.157-3.469-1.277-4.759-3.361c-1.29-2.084-1.602-4.818-2.446-6.027c-0.846-1.21-2.224-0.896-4.003,0.269
	c-1.779,1.166-3.958,3.182-5.715,5.714s-3.091,5.58-2.201,7.506c0.889,1.927,4.002,2.733,6.76,3.025
	c2.757,0.291,5.159,0.067,4.981,0.605c-0.178,0.538-2.936,1.837-3.358,3.473c-0.422,1.636,1.49,3.607,3.825,3.944
	c2.335,0.336,5.093-0.964,7.562-1.95c2.468-0.986,4.647-1.658,6.626-1.748C298.565,179.708,300.344,180.201,301.301,179.573
	L301.301,179.573z M320.426,218.628c-1.179-0.516-2.735-1.277-3.58-2.532c-0.846-1.255-0.979-3.002-1.758-4.437
	s-2.201-2.554-3.669-4.302s-2.98-4.123-3.158-5.422s0.979-1.524,2.069-2.084c1.089-0.56,2.111-1.456,2.468-3.025
	c0.355-1.569,0.044-3.809,1.512-5.198c1.468-1.39,4.715-1.927,6.517-1.031c1.801,0.896,2.156,3.226,2.313,5.49
	c0.155,2.263,0.111,4.459,0.312,6.565s0.645,4.123,0.867,6.341c0.222,2.218,0.222,4.638,0,6.453
	c-0.223,1.815-0.667,3.025-1.29,3.496C322.404,219.412,321.604,219.144,320.426,218.628L320.426,218.628z M262.04,196.242
	c-0.07,1.27-0.141,2.54,0.001,3.511c0.143,0.971,0.498,1.643,0.098,2.181c-0.4,0.538-1.556,0.941-2.423,1.457
	c-0.868,0.515-1.446,1.142-1.379,1.77c0.066,0.627,0.778,1.255,1.712,1.815c0.934,0.56,2.09,1.053,3.225,1.613
	c1.134,0.56,2.246,1.188,2.713,1.725c0.467,0.538,0.289,0.986-0.823,1.031c-1.112,0.044-3.158-0.313-4.559,0.336
	c-1.401,0.649-2.158,2.307-1.935,3.652c0.222,1.344,1.423,2.375,3.18,2.891c1.756,0.515,4.069,0.515,6.315,0.941
	c2.246,0.425,4.425,1.277,5.671,2.083s1.557,1.569,0.512,1.591c-1.046,0.022-3.447-0.694-5.804-1.232
	c-2.357-0.538-4.67-0.896-6.605-0.986c-1.935-0.09-3.492,0.09-3.958,1.031c-0.467,0.941,0.156,2.644,0.867,4.101
	s1.512,2.667,2.291,3.496c0.778,0.829,1.534,1.277,3.002,1.546c1.468,0.269,3.647,0.358,4.536,1.77
	c0.89,1.412,0.489,4.145,0.69,5.826c0.2,1.68,1,2.308,3.069,2.621c2.068,0.314,5.404,0.314,7.917,0.224
	c2.513-0.089,4.203-0.269,5.693-0.851s2.78-1.569,3.87-2.51c1.089-0.941,1.979-1.837,3.091-1.635s2.446,1.501,3.803,2.688
	s2.735,2.263,4.781,2.935c2.046,0.672,4.759,0.941,6.272,0.18c1.512-0.762,1.823-2.554,2.69-3.876s2.29-2.173,2.779-3.787
	c0.489-1.613,0.045-3.988-0.89-5.4c-0.934-1.412-2.356-1.86-3.979-2.891c-1.625-1.031-3.447-2.644-4.582-4.1
	c-1.135-1.457-1.58-2.756-1.69-4.817c-0.111-2.062,0.111-4.885-0.022-7.484c-0.134-2.6-0.623-4.974-0.378-6.789
	c0.245-1.815,1.223-3.07,1.446-4.795c0.222-1.725-0.312-3.921-1.446-5.288c-1.134-1.367-2.869-1.905-3.914-1.479
	c-1.045,0.425-1.401,1.814-2.247,2.576c-0.845,0.762-2.179,0.896-2.779,2.219c-0.601,1.322-0.467,3.832-0.045,6.207
	c0.423,2.375,1.134,4.616,1.089,6.499c-0.044,1.882-0.845,3.405-2.157,3.629s-3.135-0.852-3.424-2.868
	c-0.29-2.016,0.956-4.974,0.978-7.372c0.022-2.398-1.178-4.235-2.202-5.042c-1.023-0.807-1.868-0.583-2.224,0.605
	c-0.356,1.188-0.223,3.338-0.756,4.414c-0.534,1.076-1.734,1.076-2.624-0.426s-1.468-4.504-2.313-5.311
	c-0.845-0.807-1.957,0.583-2.98,1.389c-1.023,0.807-1.957,1.031-2.112,0.157s0.467-2.846,0.347-4.25
	c-0.12-1.405-0.983-2.241-2.182-2.428c-1.199-0.187-2.733,0.276-4.112,0.844c-1.379,0.568-2.603,1.24-3.592,1.935
	C263.552,194.808,262.796,195.525,262.04,196.242c-0.689,0.762-1.401,1.613-2.157,2.241c-0.756,0.627-1.557,1.03-2.357,1.344
	c-0.801,0.313-1.602,0.538-2.357,1.344c-0.756,0.807-1.468,2.196-1.89,3.227c-0.423,1.031-0.556,1.703-2.141,2.448
	s-4.62,1.563-6.221,0.891c-1.602-0.672-1.769-2.835-1.829-4.364c-0.061-1.529-0.017-2.425-0.595-3.411s-1.779-2.062-2.935-2.778
	c-1.157-0.717-2.269-1.076-2.468-1.636c-0.2-0.561,0.511-1.322,1.29-1.905c0.778-0.583,1.624-0.986,2.625-2.061
	c1-1.076,2.157-2.823,3.202-4.28c1.045-1.457,1.979-2.622,3.046-3.383c1.067-0.762,2.269-1.12,2.58-1.77
	c0.312-0.65-0.267-1.591-0.686-2.59c-0.419-1-0.679-2.057-0.481-3.102c0.198-1.044,0.854-2.076,2.096-2.354
	c1.242-0.278,3.07,0.198,4.984,0.458c1.915,0.26,3.916,0.305,4.894,0.865c0.979,0.56,0.935,1.635,1.112,2.465
	c0.178,0.829,0.578,1.411,1.535,1.77c0.956,0.358,2.468,0.493,3.603,0.694c1.134,0.202,1.89,0.471,2.468,1.233
	c0.578,0.762,0.979,2.016,1.601,3.271c0.623,1.255,1.468,2.51,1.957,3.518s0.623,1.77-0.333,2.308
	c-0.957,0.538-3.002,0.852-4.604,1.389c-1.601,0.538-2.757,1.299-3.669,2.016C263.396,194.808,262.729,195.48,262.04,196.242
	L262.04,196.242z M323.639,244.887c-1.801-0.829-3.603-1.659-4.993-2.655c-1.39-0.998-2.368-2.162-2.39-3.014
	c-0.022-0.852,0.911-1.389,1.444-1.994c0.534-0.605,0.668-1.277,0.557-2.375c-0.111-1.098-0.468-2.622,0.044-3.518
	s1.891-1.165,3.069-0.649c1.179,0.515,2.157,1.814,3.047,2.868s1.69,1.86,2.49,2.846c0.801,0.986,1.602,2.151,2.079,3.193
	c0.479,1.042,0.634,1.961,0.489,3.104s-0.589,2.509-1.612,2.913C326.841,246.007,325.24,245.447,323.639,244.887L323.639,244.887z
	 M391.225,296.646c-0.578,2.442,0.445,6.028,1.891,6.856c1.445,0.829,3.313-1.098,3.892-3.54s-0.134-5.4-1.579-6.229
	C393.982,292.904,391.803,294.203,391.225,296.646L391.225,296.646z M383.664,291.403c-1.157-0.83-3.069-1.188-4.56,0.224
	c-1.489,1.412-2.558,4.593-2.313,6.521c0.244,1.927,1.802,2.599,3.491,1.837c1.69-0.762,3.514-2.958,4.226-4.706
	C385.22,293.531,384.819,292.231,383.664,291.403L383.664,291.403z M369.343,264.85c-1.766,0.493-3.53,0.986-3.975,2.286
	c-0.445,1.299,0.431,3.405,0.646,5.489s-0.23,4.145-0.274,5.714c-0.044,1.568,0.312,2.644-0.4,4.123s-2.49,3.361-2.713,4.795
	c-0.222,1.434,1.112,2.419,2.269,2.509c1.156,0.089,2.135-0.717,2.847-0.358s1.156,1.882,2.224,2.017s2.757-1.12,4.136-2.778
	s2.446-3.72,4.314-3.943c1.868-0.225,4.537,1.389,6.938,1.613s4.536-0.941,4.804-2.778c0.267-1.837-1.334-4.347-3.336-5.871
	c-2.001-1.524-4.403-2.062-6.582-3.451c-2.18-1.39-4.137-3.63-5.561-5.198c-1.423-1.569-2.313-2.465-3.112-3.047
	C370.767,265.387,370.055,265.118,369.343,264.85L369.343,264.85z M528.912,346.836c-1.525-1.188-4.133-1.859-5.245,0.068
	c-1.112,1.927-0.729,6.453-0.759,10.239c-0.031,3.786-0.476,6.834-0.876,9.836s-0.756,5.96-1.022,8.56
	c-0.268,2.599-0.445,4.84,0.4,6.229c0.845,1.389,2.713,1.927,6.626,0.941c3.915-0.986,9.874-3.495,13.076-3.898
	c3.203-0.403,3.647,1.299,5.026,0.986s3.691-2.644,5.248-3.585c1.557-0.941,2.357-0.493,3.425-0.135s2.401,0.627,2.757-1.613
	c0.356-2.241-0.267-6.991-1.334-8.962c-1.067-1.972-2.579-1.166-3.825-1.792c-1.245-0.628-2.224-2.689-3.602-4.526
	c-1.38-1.837-3.158-3.451-4.893-3.585c-1.735-0.134-3.425,1.21-5.782,1.792c-2.357,0.583-5.382,0.403-6.627-0.717
	c-1.245-1.121-0.712-3.182-0.668-5.064C530.883,349.726,530.438,348.023,528.912,346.836L528.912,346.836z M66.006,165.496
	c-0.779-0.068-1.757,0.201-2.379,0.828c-0.623,0.627-0.89,1.614-0.445,2.577c0.445,0.963,1.601,1.904,2.157,2.711
	c0.556,0.807,0.512,1.479,0.356,2.555c-0.156,1.076-0.423,2.554-0.267,3.518c0.156,0.963,0.734,1.412,1.801,1.681
	c1.068,0.269,2.624,0.358,3.714,0.157s1.712-0.695,1.757-1.86c0.044-1.166-0.49-3.002-0.868-4.772
	c-0.378-1.771-0.601-3.473-1.223-4.549c-0.623-1.076-1.646-1.524-2.446-1.949C67.362,165.965,66.784,165.563,66.006,165.496
	L66.006,165.496z M53.687,199.216c-0.534,1.165-0.779,3.249-0.101,5.053c0.679,1.804,2.279,3.328,3.859,3.63
	c1.579,0.303,3.135-0.616,3.691-2.05c0.556-1.434,0.111-3.384-0.934-4.852c-1.045-1.467-2.691-2.453-3.925-2.823
	C55.043,197.805,54.22,198.051,53.687,199.216L53.687,199.216z M76.214,263.121c-0.401-0.919-0.134-2.219,0.601-3.608
	c0.733-1.389,1.935-2.868,3.713-3.383c1.779-0.516,4.136-0.067,6.227-0.089c2.091-0.023,3.914-0.516,5.56-0.538
	c1.646-0.022,3.114,0.426,3.492,1.188c0.378,0.761-0.334,1.837-1.245,2.688c-0.912,0.852-2.024,1.479-2.646,2.353
	c-0.623,0.874-0.756,1.994-1.69,2.599c-0.934,0.604-2.668,0.694-4.714,0.739s-4.403,0.045-6.115-0.224
	C77.682,264.577,76.614,264.04,76.214,263.121L76.214,263.121z M152.959,333.434c1.089,0.56,2.468,1.411,3.491,2.017
	c1.023,0.604,1.69,0.963,1.757,1.523c0.067,0.56-0.467,1.322-0.912,2.509s-0.801,2.801-0.979,4.616
	c-0.178,1.815-0.178,3.832-0.178,5.535s0,3.092-0.378,3.25c-0.378,0.156-1.135-0.919-1.98-2.577
	c-0.845-1.658-1.778-3.899-2.401-6.184c-0.623-2.286-0.934-4.616-1.067-6.588c-0.134-1.972-0.089-3.585,0.334-4.257
	C151.069,332.604,151.869,332.873,152.959,333.434L152.959,333.434z M315.22,623.584c-0.047-1.927-0.047-4.347,0.442-6.632
	s1.468-4.437,2.135-6.633c0.668-2.195,1.023-4.436,1.067-6.273c0.045-1.838-0.222-3.271-0.578-4.975
	c-0.355-1.703-0.801-3.675-0.444-5.96c0.355-2.285,1.512-4.885,2.535-6.633c1.022-1.747,1.912-2.644,3.78-3.72
	c1.868-1.075,4.715-2.33,6.983-3.719c2.268-1.39,3.958-2.913,5.692-4.437c1.734-1.524,3.514-3.048,5.604-3.541
	c2.09-0.493,4.492,0.045,6.805,1.075c2.313,1.031,4.536,2.555,5.515,2.689c0.979,0.134,0.712-1.12,0.846-2.151
	c0.133-1.03,0.667-1.837,2.135-1.389s3.869,2.15,5.604,2.599c1.735,0.448,2.803-0.358,3.87-0.224
	c1.067,0.134,2.134,1.209,4.358,1.702c2.224,0.493,5.604,0.404,6.716-0.313c1.112-0.717-0.044-2.061-1.067-3.36
	c-1.022-1.3-1.912-2.555-3.646-3.675c-1.734-1.121-4.314-2.106-4.492-3.093c-0.178-0.985,2.046-1.972,5.737-2.599
	c3.692-0.628,8.852-0.896,12.587-0.807c3.736,0.09,6.049,0.537,8.451,1.255c2.401,0.717,4.892,1.702,6.849,2.509
	c1.958,0.807,3.381,1.435,4.671,0.852c1.289-0.582,2.445-2.375,3.424-3.36c0.979-0.986,1.779-1.165,2.714-1.031
	c0.934,0.135,2.001,0.583,2.979,1.793s1.868,3.182,3.024,4.257c1.156,1.076,2.58,1.255,3.514,2.017
	c0.935,0.762,1.379,2.106,1.245,4.123c-0.133,2.017-0.845,4.705-0.444,6.633c0.4,1.927,1.912,3.092,3.336,4.392
	c1.423,1.3,2.757,2.733,3.958,4.571c1.201,1.837,2.269,4.077,4.003,6.005c1.734,1.927,4.137,3.54,5.871,4.258
	c1.734,0.717,2.802,0.537,3.646-0.763c0.846-1.3,1.469-3.72,1.69-6.095c0.223-2.375,0.045-4.705-0.979-7.842
	c-1.022-3.137-2.891-7.081-4.491-9.904c-1.602-2.823-2.936-4.525-5.115-8.245c-2.179-3.72-5.203-9.455-6.226-13.758
	c-1.023-4.303-0.045-7.17,1.201-9.187c1.245-2.018,2.757-3.183,4.58-4.796c1.824-1.613,3.959-3.675,5.026-5.512
	c1.067-1.838,1.067-3.451,3.736-6.408c2.668-2.958,8.006-7.26,11.697-10.173s5.737-4.437,6.138-6.408
	c0.4-1.973-0.845-4.393-1.957-6.229c-1.112-1.838-2.09-3.092-3.38-5.378c-1.29-2.285-2.892-5.602-2.892-7.484
	c0-1.882,1.602-2.33,2.269-3.36c0.667-1.031,0.4-2.644,0.934-3.988c0.534-1.345,1.868-2.42,2.824-4.257
	c0.957-1.838,1.536-4.437,1.714-6.408s-0.045-3.315,0.178-5.198c0.223-1.882,0.89-4.302,2.046-5.915
	c1.157-1.613,2.803-2.42,4.493-3.316c1.689-0.896,3.424-1.882,5.426-2.6c2.001-0.717,4.27-1.165,5.76-1.726
	c1.49-0.56,2.201-1.232,2.18-2.017c-0.022-0.783-0.778-1.68-1.957-3.472s-2.779-4.481-3.18-7.17s0.4-5.378,2.046-7.933
	c1.646-2.554,4.137-4.974,6.271-6.722c2.135-1.747,3.913-2.823,5.56-4.392c1.646-1.568,3.157-3.63,4.136-5.378
	s1.424-3.182,2.446-3.988c1.023-0.807,2.624-0.986,2.758,0.135c0.133,1.12-1.201,3.54-1.512,6.229
	c-0.312,2.688,0.399,5.647,1.823,6.588c1.423,0.941,3.558-0.134,5.604-1.837s4.003-4.033,5.56-6.319
	c1.557-2.285,2.713-4.526,4.759-6.543s4.981-3.809,7.25-6.229c2.269-2.421,3.869-5.468,3.291-8.56
	c-0.578-3.092-3.335-6.229-5.114-6.14c-1.779,0.09-2.58,3.406-3.825,6.185c-1.245,2.778-2.936,5.019-5.159,6.363
	s-4.981,1.793-7.339,1.523c-2.357-0.269-4.314-1.255-5.604-2.285c-1.289-1.031-1.912-2.106-2.891-4.078s-2.313-4.84-2.401-7.305
	s1.067-4.526,0.8-5.826c-0.267-1.3-1.956-1.837-4.136-1.837s-4.848,0.538-7.294,1.972c-2.446,1.434-4.671,3.764-6.36,5.826
	c-1.69,2.061-2.847,3.853-3.78,5.333c-0.935,1.479-1.646,2.644-2.892,5.064c-1.245,2.42-3.023,6.095-3.98,7.73
	c-0.956,1.636-1.09,1.232-0.423-0.426s2.136-4.571,2.824-7.148c0.689-2.576,0.601-4.816,1.313-6.878
	c0.712-2.062,2.224-3.943,3.536-5.624c1.312-1.681,2.424-3.161,2.98-4.528c0.556-1.367,0.556-2.622,0.867-3.832
	c0.311-1.21,0.934-2.375,2.135-3.361c1.2-0.986,2.979-1.793,4.893-2.51c1.912-0.717,3.958-1.344,6.448-2.106
	c2.491-0.762,5.427-1.658,7.517-2.375c2.091-0.717,3.336-1.254,4.403-2.017c1.067-0.762,1.958-1.748,2.936-2.375
	c0.979-0.627,2.046-0.896,3.336-1.435c1.29-0.538,2.802-1.344,3.647-2.464c0.845-1.121,1.022-2.554,1.867-4.078
	c0.846-1.523,2.357-3.137,3.336-4.84s1.424-3.496,2.002-5.108c0.578-1.614,1.29-3.047,2.18-4.347s1.956-2.465,1.867-3.944
	s-1.334-3.271-2.579-4.975c-1.245-1.703-2.491-3.316-4.003-3.764c-1.513-0.448-3.291,0.269-4.492-0.135
	c-1.201-0.403-1.823-1.926-2.847-1.747s-2.446,2.061-3.603,4.033c-1.156,1.972-2.046,4.034-3.069,5.96
	c-1.022,1.927-2.179,3.72-2.445,2.778c-0.268-0.941,0.355-4.616,1.334-6.991s2.313-3.45,3.514-4.794
	c1.2-1.345,2.269-2.958,1.912-3.676c-0.355-0.717-2.135-0.538-4.048-0.044c-1.911,0.493-3.958,1.3-5.959,1.075
	c-2.002-0.224-3.958-1.479-5.782-2.375c-1.823-0.896-3.513-1.434-4.714-2.644c-1.201-1.21-1.913-3.092-2.447-4.616
	c-0.533-1.523-0.89-2.689-2.046-4.078s-3.113-3.002-4.937-4.481s-3.514-2.823-5.737-4.839c-2.224-2.017-4.981-4.706-6.894-6.723
	c-1.913-2.017-2.98-3.361-4.137-3.898c-1.156-0.538-2.401-0.27-2.891,0.448s-0.223,1.882-0.089,3.496
	c0.133,1.613,0.133,3.675-0.179,5.423c-0.312,1.748-0.934,3.182-1.334,4.66c-0.4,1.479-0.578,3.002-1.201,4.213
	c-0.622,1.21-1.689,2.106-2.401,3.182s-1.067,2.33-1.424,2.24c-0.355-0.089-0.711-1.523-1.601-2.733s-2.313-2.196-3.291-1.748
	s-1.513,2.33-2.225,2.33c-0.711,0-1.601-1.882-2.045-3.496c-0.445-1.613-0.445-2.957-0.935-4.257s-1.468-2.555-2.135-3.944
	c-0.667-1.39-1.023-2.913-1.424-4.347c-0.399-1.434-0.845-2.778-1.912-3.227s-2.757,0-4.358,0.09s-3.113-0.179-3.959-1.434
	c-0.845-1.255-1.022-3.496-2.758-4.84c-1.733-1.345-5.025-1.792-6.982-1.299c-1.957,0.493-2.579,1.926-4.181,2.419
	s-4.181,0.045-6.449,0.135c-2.269,0.089-4.225,0.717-5.114,2.017c-0.891,1.3-0.712,3.271-0.267,4.706
	c0.444,1.434,1.155,2.33,1.378,3.54s-0.044,2.733,0.534,4.123c0.578,1.389,2.001,2.644,2.802,4.437
	c0.801,1.792,0.979,4.123,0.489,5.871s-1.646,2.913-2.135,4.437c-0.489,1.523-0.312,3.406,0.667,4.84s2.758,2.42,4.27,3.182
	c1.513,0.762,2.758,1.299,3.825,2.151s1.957,2.017,2.58,3.765c0.622,1.748,0.978,4.078,1.045,6.161s-0.154,3.92-0.376,5.063
	c-0.222,1.142-0.444,1.59-0.8,2.464s-0.846,2.173-1.802,3.361s-2.379,2.263-3.691,3.048c-1.312,0.784-2.513,1.276-3.358,1.994
	c-0.845,0.717-1.334,1.658-1.268,2.644c0.067,0.986,0.689,2.017,1.313,3.092c0.622,1.076,1.245,2.196,1.846,3.518
	s1.179,2.846,2.068,4.593c0.89,1.748,2.091,3.72,2.69,5.467c0.601,1.748,0.601,3.271,0.356,4.729
	c-0.245,1.456-0.734,2.845-1.558,4.055c-0.822,1.21-1.979,2.241-3.291,2.285c-1.312,0.045-2.779-0.896-4.381-2.397
	c-1.601-1.501-3.336-3.563-4.514-4.997c-1.179-1.435-1.801-2.242-2.245-3.183c-0.444-0.941-0.711-2.017-1.334-3.81
	c-0.623-1.792-1.602-4.302-2.313-6.991c-0.712-2.689-1.157-5.557-2.669-6.722c-1.513-1.165-4.092-0.627-6.627-0.448
	s-5.026,0-7.517-0.762c-2.491-0.762-4.981-2.106-7.473-3.63c-2.49-1.524-4.981-3.227-7.16-4.84c-2.18-1.613-4.048-3.137-6.404-3.496
	c-2.357-0.359-5.204,0.448-7.384,0.717c-2.18,0.269-3.691,0-4.625-1.031c-0.934-1.03-1.29-2.823-1.423-4.75
	c-0.134-1.927-0.045-3.988-0.579-5.602c-0.533-1.613-1.689-2.778-3.291-3.764c-1.602-0.986-3.647-1.792-4.714-2.913
	c-1.068-1.121-1.157-2.555-0.757-4.661c0.4-2.107,1.29-4.885,1.957-7.305c0.668-2.419,1.113-4.481,1.291-5.803
	s0.09-1.904,0.334-3.092c0.244-1.188,0.822-2.98,1.867-4.863c1.046-1.882,2.558-3.854,2.38-4.84s-2.046-0.986-1.09-1.389
	s4.737-1.21,6.316-2.218c1.578-1.008,0.956-2.218,1.09-2.913c0.133-0.695,1.022-0.874,1.623-1.837
	c0.601-0.964,0.911-2.711,1.778-3.541c0.868-0.829,2.291-0.739,3.381-0.919c1.09-0.179,1.846-0.627,2.668-1.748
	c0.823-1.121,1.713-2.913,2.18-4.548c0.468-1.636,0.512-3.115-0.4-4.257c-0.911-1.143-2.779-1.95-4.247-2.779
	s-2.535-1.68-1.668-1.68s3.67,0.851,5.626,0.829c1.957-0.022,3.069-0.918,3.87-2.397s1.289-3.54,2.09-4.705
	c0.801-1.166,1.913-1.435,2.491-2.151c0.578-0.717,0.623-1.882,1.468-1.748c0.845,0.134,2.49,1.568,3.758,2.196
	c1.269,0.627,2.158,0.448,2.826-0.157c0.667-0.605,1.111-1.635,1.779-2.42c0.667-0.784,1.556-1.322,2.579-1.927
	s2.18-1.277,2.446-2.622c0.267-1.345-0.355-3.361-1.912-5.781c-1.558-2.42-4.048-5.244-4.537-6.857s1.023-2.017,1.757-2.846
	c0.734-0.829,0.689-2.084-0.445-3.406c-1.134-1.322-3.357-2.711-5.804-3.72s-5.115-1.636-6.894-1.254
	c-1.779,0.381-2.669,1.77-2.691,3.361c-0.021,1.591,0.823,3.383,1.179,4.907c0.356,1.523,0.223,2.778-0.089,4.616
	c-0.312,1.837-0.8,4.257-1.512,6.139c-0.712,1.883-1.646,3.227-2.624,3.182c-0.979-0.045-2.002-1.479-2.514-3.002
	c-0.511-1.524-0.511-3.137-0.378-4.728c0.134-1.591,0.4-3.159-0.155-4.638s-1.936-2.868-3.136-3.115
	c-1.201-0.247-2.224,0.65-2.979,1.972c-0.757,1.322-1.246,3.069-1.49,3.54c-0.245,0.471-0.245-0.336-0.801-1.524
	s-1.667-2.756-2.891-4.167c-1.223-1.412-2.557-2.666-2.802-4.1c-0.244-1.434,0.601-3.047,0.512-5.288
	c-0.089-2.241-1.111-5.109-2.201-8.089c-1.09-2.98-2.246-6.073-2.357-8.291s0.823-3.563,1.223-5.221
	c0.4-1.658,0.268-3.63,1.112-5.557c0.846-1.928,2.669-3.81,3.98-5.916c1.313-2.106,2.113-4.437,0.912-5.713
	c-1.201-1.277-4.403-1.501-7.605-0.784s-6.405,2.375-7.895,4.548c-1.49,2.174-1.268,4.862-1.245,6.632
	c0.021,1.77-0.156,2.622,0.11,4.19s0.979,3.854,0.89,5.758s-0.979,3.428-1.69,4.75c-0.711,1.322-1.245,2.442-1.268,4.234
	c-0.022,1.793,0.467,4.258,0.601,6.521c0.133,2.263-0.089,4.324,0.912,5.982s3.225,2.913,4.625,4.257
	c1.401,1.345,1.979,2.778,2.402,4.459c0.422,1.681,0.689,3.607,0.267,5.086s-1.534,2.51-2.313,3.541s-1.224,2.061-2.18,2.756
	c-0.956,0.694-2.424,1.053-2.936,0.425c-0.511-0.627-0.066-2.24,0-3.092s-0.245-0.941-1.223-1.412
	c-0.979-0.47-2.624-1.322-3.67-0.515c-1.045,0.807-1.489,3.271-2.535,4.392c-1.045,1.121-2.69,0.896-4.781,0.627
	c-2.09-0.269-4.626-0.583-7.116-1.277c-2.491-0.695-4.937-1.771-7.361-2.801c-2.424-1.031-4.826-2.017-7.494-1.703
	c-2.669,0.313-5.604,1.926-7.495,2.263c-1.89,0.336-2.735-0.604-4.87-0.761c-2.135-0.157-5.56,0.47-9.029,0.089
	c-3.469-0.381-6.983-1.771-8.495-3.025c-1.512-1.254-1.023-2.375-0.311-3.674c0.712-1.3,1.646-2.778,1.334-4.168
	c-0.312-1.389-1.868-2.688-3.58-3.54c-1.713-0.852-3.581-1.255-5.093-1.95c-1.512-0.694-2.668-1.68-3.802-2.688
	c-1.134-1.008-2.246-2.039-3.002-2.801c-0.756-0.762-1.156-1.254-1.801-2.151c-0.645-0.896-1.534-2.196-2.735-3.652
	c-1.201-1.457-2.713-3.07-4.114-4.393c-1.401-1.322-2.691-2.352-4.248-2.15c-1.557,0.201-3.38,1.635-4.492,1.814
	c-1.112,0.179-1.512-0.896-1.468-2.913c0.045-2.017,0.534-4.975-0.756-6.162c-1.29-1.188-4.359-0.605-6.494,0.022
	c-2.135,0.628-3.336,1.3-5.026,1.345c-1.69,0.044-3.869-0.539-6.582-0.516c-2.713,0.022-5.96,0.649-8.874,0.896
	c-2.913,0.246-5.493,0.112-6.849-0.807s-1.49-2.621-1.957-4.145c-0.467-1.524-1.268-2.868-2.446-4.011
	c-1.179-1.143-2.735-2.084-3.424-3.429c-0.69-1.344-0.512-3.092-1.402-4.481c-0.889-1.389-2.846-2.42-4.247-2.891
	c-1.401-0.47-2.246-0.381-3.158-0.538s-1.89-0.56-2.491-0.963s-0.823-0.807-1.401-1.524c-0.578-0.717-1.512-1.748-2.112-2.621
	c-0.601-0.875-0.868-1.592-1.734-2.734c-0.868-1.143-2.335-2.711-3.247-3.674c-0.912-0.964-1.268-1.322-2.09-1.86
	c-0.823-0.538-2.113-1.255-2.979-1.905c-0.868-0.65-1.313-1.232-1.557-2.106c-0.245-0.874-0.289-2.039-0.356-3.002
	c-0.066-0.964-0.156-1.726-0.556-2.465c-0.4-0.739-1.111-1.456-1.979-2.464c-0.867-1.009-1.89-2.308-2.379-3.227
	s-0.445-1.457-0.623-2.286c-0.178-0.829-0.578-1.949-1.134-2.622s-1.268-0.896-2.202-0.583c-0.934,0.313-2.09,1.165-3.425,0.941
	c-1.334-0.224-2.846-1.524-4.136-2.106c-1.29-0.583-2.357-0.448-3.158-0.448c-0.801,0-1.334-0.135-2.646-0.493
	s-3.402-0.941-4.914-0.964s-2.446,0.516-4.047,1.244c-1.602,0.728-3.869,1.647-5.638,2.106c-1.768,0.459-3.036,0.459-4.192,0.146
	s-2.202-0.941-2.936-1.703c-0.733-0.762-1.156-1.658-1.468-2.039c-0.311-0.381-0.511-0.247-1.39,0.011
	c-0.879,0.258-2.435,0.639-3.38,1.39c-0.946,0.75-1.279,1.871-1.09,3.394c0.189,1.524,0.901,3.451,1.257,5.143
	c0.355,1.691,0.355,3.148,0.044,4.156c-0.311,1.009-0.934,1.569-1.257,2.241c-0.322,0.672-0.345,1.457-0.1,2.241
	c0.245,0.784,0.756,1.569,1.545,2.219c0.79,0.649,1.856,1.165,2.324,2.14s0.333,2.409-0.189,3.753
	c-0.522,1.345-1.435,2.6-3.269,2.566s-4.592-1.356-6.004-2.633c-1.412-1.277-1.479-2.51-1.023-3.663
	c0.456-1.154,1.435-2.229,1.724-3.249c0.289-1.02-0.111-1.983-1.668-2.835s-4.27-1.591-6.694-2.252
	c-2.424-0.661-4.559-1.243-6.271-1.321c-1.713-0.079-3.002,0.347-3.024,1.512c-0.022,1.165,1.223,3.07,1.467,4.594
	c0.245,1.523-0.512,2.666-1.278,3.663c-0.767,0.997-1.545,1.848-1.756,2.946c-0.211,1.098,0.145,2.442,1.101,3.271
	c0.956,0.829,2.513,1.143,3.736,1.837c1.223,0.695,2.113,1.77,3.024,2.644c0.912,0.874,1.846,1.546,3.002,1.905
	c1.156,0.358,2.535,0.403,3.469,1.232c0.934,0.829,1.423,2.442,1.068,3.204c-0.356,0.762-1.557,0.672-2.201,1.479
	c-0.645,0.807-0.734,2.51-1.268,3.652c-0.534,1.143-1.512,1.726-2.69,1.546c-1.179-0.179-2.558-1.12-4.226-1.411
	c-1.668-0.292-3.625,0.067-4.67-0.224c-1.045-0.292-1.179-1.232-1.535-1.972c-0.356-0.739-0.934-1.277-2.58-1.188
	c-1.646,0.09-4.359,0.807-6.672,1.367c-2.313,0.56-4.225,0.963-5.582,1.523c-1.357,0.56-2.157,1.277-2.401,2.532
	c-0.245,1.255,0.066,3.047-0.112,4.28c-0.178,1.232-0.845,1.904-1.623,1.949c-0.779,0.044-1.668-0.538-2.135,0
	c-0.467,0.538-0.511,2.196-0.645,3.81c-0.134,1.613-0.356,3.181-0.223,4.682c0.133,1.501,0.623,2.936,1.958,3.652
	c1.334,0.717,3.513,0.717,4.959,1.457c1.445,0.739,2.156,2.218,0.8,3.809c-1.356,1.591-4.781,3.293-6.315,4.795
	c-1.535,1.501-1.179,2.801,0.044,3.271c1.223,0.47,3.313,0.112,4.47,0.649c1.156,0.538,1.379,1.972,1.49,3.496
	c0.111,1.523,0.111,3.137,0.934,3.563c0.823,0.426,2.468-0.336,3.313-0.381c0.845-0.044,0.89,0.628,1.69,1.457
	c0.8,0.829,2.357,1.814,2.779,2.487s-0.289,1.031-1.957,1.905s-4.292,2.263-6.604,2.958c-2.313,0.695-4.314,0.695-5.426,0.381
	c-1.112-0.313-1.334-0.941-2.78-1.344c-1.446-0.403-4.114-0.583-6.138-0.269c-2.024,0.313-3.402,1.12-4.314,1.075
	c-0.912-0.045-1.357-0.941-2.291-1.188c-0.934-0.246-2.357,0.157-3.491-0.089c-1.134-0.247-1.979-1.143-3.647-1.166
	c-1.667-0.022-4.159,0.829-5.026,1.882c-0.867,1.053-0.111,2.308,1.068,3.025c1.178,0.717,2.779,0.896,4.358,1.031
	s3.135,0.224,4.403,0.874c1.268,0.649,2.246,1.859,3.136,2.554s1.69,0.874,4.047,1.367c2.357,0.493,6.271,1.299,8.763,1.658
	c2.49,0.359,3.558,0.269,5.159-0.269c1.601-0.538,3.736-1.523,5.737-2.106c2.001-0.583,3.87-0.762,5.515-0.672
	c1.645,0.089,3.068,0.448,4.269,0.358c1.201-0.09,2.18-0.627,3.781-1.166c1.602-0.538,3.825-1.075,4.582-1.882
	c0.756-0.807,0.044-1.882-0.133-3.002c-0.178-1.121,0.177-2.286,1.556-3.002c1.379-0.717,3.781-0.986,5.782-1.614
	c2.001-0.627,3.603-1.613,6.227-2.106c2.625-0.493,6.271-0.493,8.229,0.358c1.957,0.852,2.224,2.554,1.067,2.913
	c-1.156,0.358-3.736-0.628-5.782-0.134c-2.046,0.493-3.558,2.464-5.337,4.257c-1.78,1.792-3.825,3.406-4.092,4.706
	c-0.267,1.3,1.246,2.286,3.292,2.42c2.046,0.134,4.625-0.583,6.805-0.135c2.179,0.448,3.958,2.062,5.826,3.182
	s3.825,1.748,4.181,1.3c0.356-0.448-0.889-1.972-0.756-3.764c0.133-1.793,1.646-3.854,3.158-4.078s3.024,1.389,4.136,3.451
	c1.112,2.061,1.823,4.57,3.069,6.677c1.245,2.106,3.024,3.809,4.492,5.333c1.468,1.523,2.624,2.868,4.537,4.437
	c1.912,1.568,4.581,3.361,6.671,6.319c2.09,2.958,3.602,7.081,4.803,10.396c1.201,3.316,2.09,5.826,2.402,8.111
	c0.311,2.286,0.044,4.347-0.089,6.723c-0.134,2.375-0.134,5.063,0.133,6.946c0.267,1.882,0.8,2.958,1.334,4.033
	s1.067,2.151,1.157,3.541c0.089,1.389-0.267,3.092,0.089,5.288c0.356,2.195,1.423,4.883,2.135,6.183
	c0.712,1.299,1.067,1.209,2.269,1.612c1.201,0.404,3.247,1.3,4.448,2.869c1.201,1.568,1.557,3.809,1.423,5.467
	c-0.133,1.658-0.756,2.733-0.223,4.571c0.534,1.837,2.224,4.437,2.98,7.036c0.756,2.599,0.578,5.198,0.534,7.618
	s0.044,4.661,0.979,6.453s2.713,3.137,4.67,5.378c1.957,2.241,4.092,5.378,6.012,8.753c1.92,3.376,3.625,6.991,4.647,11.204
	c1.023,4.213,1.364,9.022,1.179,11.831c-0.186,2.809-0.897,3.614-1.208,2.449c-0.311-1.165-0.222-4.302-0.712-6.901
	c-0.489-2.599-1.556-4.66-2.268-6.991c-0.712-2.33-1.067-4.93-2.224-7.708c-1.156-2.779-3.113-5.737-5.137-8.671
	c-2.024-2.935-4.114-5.847-6.25-6.564c-2.135-0.717-4.314,0.761-4.736,2.441c-0.423,1.68,0.912,3.562,2.646,6.251
	c1.735,2.688,3.87,6.184,5.471,9.321c1.601,3.137,2.668,5.915,3.247,8.828c0.578,2.913,0.667,5.96,0.534,8.873
	c-0.134,2.913-0.489,5.691-1.201,8.515c-0.711,2.823-1.779,5.691-2.625,8.471c-0.845,2.778-1.468,5.467-2.58,7.708
	c-1.112,2.241-2.713,4.033-3.78,5.691c-1.068,1.658-1.601,3.182-2.001,5.646s-0.667,5.871-1.29,8.47
	c-0.623,2.6-1.601,4.393-2.757,5.558c-1.157,1.165-2.491,1.703-2.179,3.003c0.311,1.3,2.268,3.36,2.446,5.198
	c0.178,1.837-1.423,3.45-1.957,5.063c-0.534,1.613,0,3.227,0.667,4.975c0.667,1.748,1.468,3.63,1.912,5.288
	c0.445,1.658,0.534,3.092,0.934,5.019c0.401,1.928,1.112,4.348,1.156,6.274c0.045,1.927-0.578,3.36-0.133,5.108
	c0.445,1.748,1.958,3.81,3.069,6.05c1.112,2.241,1.824,4.661,1.824,6.319s-0.711,2.555-0.445,3.361
	c0.267,0.807,1.512,1.523,3.514,2.51c2.001,0.985,4.759,2.24,7.117,3.898c2.356,1.658,4.314,3.72,5.515,5.691
	c1.201,1.972,1.646,3.854,1.824,5.78c0.178,1.928,0.089,3.899,0.445,6.14c0.356,2.241,1.156,4.751,1.912,7.036
	c0.756,2.286,1.468,4.347,1.557,6.722c0.089,2.376-0.445,5.064-0.578,6.813c-0.134,1.748,0.133,2.555,1.823,4.302
	c1.69,1.748,4.804,4.437,6.183,6.901c1.378,2.465,1.022,4.705,0.266,6.005c-0.756,1.3-1.912,1.658-3.291,1.838
	s-2.98,0.18-2.268,1.479c0.711,1.3,3.736,3.899,6.494,6.05c2.757,2.151,5.248,3.854,7.116,5.871s3.113,4.347,3.514,6.677
	c0.4,2.331-0.044,4.661-0.579,6.408c-0.533,1.748-1.156,2.914-0.4,4.526c0.756,1.613,2.891,3.675,4.804,5.199
	c1.913,1.523,3.603,2.509,4.537,3.943s1.112,3.316,1.735,5.288c0.623,1.972,1.69,4.033,3.069,4.257
	c1.378,0.225,3.069-1.389,4.002-3.271c0.934-1.882,1.112-4.033,0.445-5.78c-0.667-1.748-2.179-3.093-3.647-3.988
	c-1.467-0.896-2.891-1.345-3.825-2.689s-1.379-3.585-1.824-6.273c-0.445-2.689-0.889-5.826-1.423-8.246
	c-0.534-2.42-1.157-4.123-2.357-6.318c-1.201-2.196-2.98-4.886-4.403-7.171s-2.491-4.168-3.247-6.318
	c-0.755-2.151-1.201-4.571-1.556-6.633c-0.356-2.062-0.623-3.764-1.468-6.005c-0.845-2.24-2.268-5.02-2.935-7.529
	c-0.667-2.509-0.579-4.75-0.934-7.08c-0.356-2.33-1.156-4.75-0.445-5.558c0.712-0.806,2.935,0,5.204,1.435s4.581,3.495,6.049,5.468
	c1.467,1.972,2.09,3.854,2.846,6.812c0.756,2.958,1.646,6.991,3.113,10.755c1.468,3.765,3.514,7.26,4.848,9.456
	c1.334,2.195,1.957,3.092,2.313,4.213c0.356,1.12,0.445,2.465,1.112,3.943c0.667,1.479,1.913,3.092,3.336,4.078
	c1.423,0.986,3.024,1.344,3.87,2.33c0.845,0.986,0.934,2.6,0.444,3.899s-1.556,2.285-1.378,3.182
	c0.178,0.896,1.601,1.703,3.158,2.958c1.557,1.255,3.247,2.957,4.025,4.458c0.778,1.501,0.644,2.801,2.156,5.221
	c1.512,2.42,4.67,5.961,7.45,9.098s5.181,5.87,6.227,7.864c1.045,1.995,0.733,3.249,0.623,4.773
	c-0.112,1.523-0.022,3.315,0.756,4.705s2.246,2.375,2.646,3.451c0.4,1.075-0.267,2.24-1.022,3.271
	c-0.756,1.03-1.602,1.927-2.625,2.509c-1.023,0.583-2.224,0.853-2.402,1.636c-0.178,0.784,0.667,2.084,1.534,3.473
	c0.868,1.39,1.757,2.868,2.713,4.28s1.979,2.756,3.869,3.877c1.89,1.12,4.648,2.017,6.249,3.36c1.601,1.345,2.046,3.137,2.98,4.751
	c0.934,1.613,2.357,3.047,3.937,3.898c1.579,0.852,3.313,1.12,4.736,1.03c1.423-0.089,2.535-0.537,4.181,0.112
	c1.646,0.65,3.825,2.397,5.56,3.563c1.735,1.165,3.024,1.748,4.159,2.734c1.134,0.985,2.112,2.375,3.18,3.271
	c1.067,0.896,2.224,1.3,3.514,1.659c1.29,0.358,2.713,0.672,4.759,1.21c2.046,0.537,4.714,1.299,6.426,2.396
	c1.713,1.099,2.469,2.532,3.714,3.317c1.246,0.784,2.98,0.918,4.715,1.321s3.47,1.076,5.026,1.726
	c1.557,0.65,2.936,1.277,4.047,1.143c1.112-0.135,1.957-1.03,2.735-1.523s1.49-0.583,2.513-1.099
	c1.023-0.515,2.357-1.456,3.492-1.949c1.134-0.493,2.067-0.537,3.225-0.739c1.156-0.202,2.535-0.561,4.024-0.246
	c1.49,0.313,3.091,1.299,5.271,2.554s4.938,2.778,6.895,4.459s3.113,3.518,4.492,5.288c1.378,1.771,2.979,3.473,4.759,4.66
	c1.779,1.188,3.735,1.86,5.337,2.106c1.602,0.247,2.847,0.067,4.314-0.021c1.468-0.09,3.158-0.09,4.715,0.269
	s2.979,1.075,4.358,1.501s2.713,0.561,4.426,0.964c1.712,0.403,3.803,1.075,5.915,1.523c2.113,0.448,4.248,0.672,5.248,0.538
	c1.001-0.135,0.868-0.628,1.001-1.435c0.134-0.807,0.534-1.927,1.579-2.442c1.046-0.515,2.735-0.425,3.491,0.382
	c0.757,0.806,0.579,2.33,0.445,3.473s-0.223,1.904,0.089,2.464c0.312,0.561,1.023,0.919,2.001,1.793
	c0.979,0.874,2.224,2.263,3.647,3.474c1.424,1.21,3.024,2.24,4.514,3.271c1.49,1.031,2.869,2.062,4.004,3.025
	c1.134,0.964,2.023,1.859,2.69,3.025c0.667,1.165,1.112,2.599,0.734,4.145c-0.379,1.547-1.579,3.204-1.713,4.437
	c-0.133,1.232,0.801,2.039,2.18,2.712c1.379,0.672,3.202,1.21,4.448,1.03c1.244-0.179,1.912-1.075,1.778-2.174
	c-0.134-1.098-1.067-2.396-0.934-3.024c0.133-0.627,1.334-0.582,2.356,0.18c1.023,0.762,1.868,2.24,2.646,3.182
	s1.49,1.345,2.802,1.949c1.313,0.605,3.225,1.411,4.359,2.442c1.134,1.03,1.49,2.285,1.557,3.54s-0.155,2.51,1.09,2.936
	s3.958,0.022,6.07-0.246c2.113-0.27,3.625-0.403,5.449-0.516s3.959-0.202,5.314,0.516c1.357,0.717,1.935,2.24,2.603,2.957
	c0.667,0.717,1.423,0.628,2.246,0.336c0.822-0.291,1.712-0.783,2.379,0.135c0.668,0.919,1.112,3.249,2.024,4.347
	c0.911,1.099,2.29,0.964,3.735,0.426c1.446-0.537,2.958-1.479,4.182-2.711c1.223-1.232,2.156-2.756,1.867-3.607
	s-1.801-1.031-3.002-1.973s-2.09-2.644-1.468-3.585c0.623-0.941,2.758-1.12,3.736-2.151s0.801-2.913,2.401-4.078
	c1.602-1.165,4.981-1.613,7.295-1.21c2.313,0.403,3.558,1.658,4.003,3.271c0.444,1.613,0.088,3.585,0.756,5.243
	c0.667,1.658,2.357,3.003,3.157,2.823c0.801-0.179,0.712-1.882,1.513-2.465c0.801-0.582,2.49-0.045,3.603-0.493
	c1.111-0.448,1.646-1.882,1.601-3.271c-0.044-1.389-0.667-2.733-1.823-4.347s-2.847-3.495-5.07-5.153s-4.981-3.092-6.805-3.406
	c-1.823-0.313-2.713,0.493-4.226,0.986c-1.512,0.493-3.646,0.672-5.159,1.165c-1.512,0.493-2.401,1.3-3.647,2.823
	c-1.245,1.523-2.846,3.765-4.759,5.333c-1.912,1.568-4.136,2.465-6.093,2.33s-3.647-1.299-5.916-2.24s-5.114-1.658-7.827-3.093
	c-2.713-1.434-5.293-3.585-7.25-5.467c-1.957-1.883-3.291-3.496-4.181-5.198c-0.89-1.703-1.334-3.496-1.557-6.006
	s-0.223-5.736-0.223-9.142c0-3.406,0-6.991-0.089-10.756c-0.089-3.764-0.267-7.707-0.979-9.858s-1.957-2.51-3.38-3.227
	c-1.423-0.718-3.024-1.793-4.537-2.778c-1.512-0.986-2.936-1.883-5.025-1.973c-2.091-0.09-4.849,0.628-8.763,1.255
	c-3.913,0.628-8.983,1.165-12.809,2.017s-6.405,2.017-8.362,2.42c-1.956,0.403-3.291,0.045-3.824-0.807
	c-0.534-0.852-0.268-2.195,0.89-3.809c1.156-1.613,3.202-3.496,3.913-5.916c0.712-2.42,0.09-5.377-0.267-8.38
	c-0.355-3.003-0.444-6.05,0.179-6.453c0.622-0.403,1.956,1.837,2.935,1.702c0.979-0.134,1.602-2.644,1.602-4.525
	c0-1.883-0.622-3.138-1.022-4.795c-0.4-1.658-0.579-3.72,0.267-6.185c0.845-2.465,2.713-5.333,3.691-7.888
	c0.979-2.554,1.067-4.795,0-5.602s-3.291-0.18-5.159,0.313s-3.381,0.852-5.648,1.12c-2.269,0.27-5.293,0.448-7.695,1.031
	c-2.401,0.583-4.181,1.568-5.826,2.599c-1.646,1.031-3.157,2.106-4.047,4.258s-1.156,5.378-1.424,7.977
	c-0.267,2.6-0.533,4.571-1.289,6.051c-0.757,1.479-2.002,2.464-2.18,3.405s0.711,1.837-0.134,2.868
	c-0.845,1.03-3.425,2.196-4.67,1.748s-1.156-2.51-2.446-3.138c-1.29-0.627-3.958,0.18-5.693,1.211
	c-1.734,1.03-2.535,2.285-3.913,2.464c-1.379,0.18-3.336-0.717-4.849-0.403c-1.512,0.314-2.579,1.838-3.958,2.33
	c-1.379,0.493-3.068-0.044-4.403-1.119c-1.334-1.076-2.313-2.689-3.78-3.586s-3.425-1.075-4.981-2.285s-2.713-3.451-4.358-5.961
	c-1.646-2.509-3.781-5.288-5.472-8.155c-1.689-2.868-2.935-5.826-3.78-8.56c-0.845-2.734-1.289-5.243-1.111-6.991
	s0.979-2.733,1.332-3.942S315.266,625.51,315.22,623.584L315.22,623.584z M460.314,595.569c-0.712,1.479,1.602,4.168,3.825,6.723
	s4.358,4.975,5.248,4.526s0.533-3.765,0.178-6.454c-0.355-2.688-0.712-4.75-2.758-5.646
	C464.763,593.822,461.026,594.091,460.314,595.569L460.314,595.569z M561.454,628.508c0.623-1.613,3.47-3.227,5.782-4.571
	c2.313-1.344,4.092-2.419,5.871-1.702s3.558,3.227,3.38,5.243s-2.313,3.54-4.715,4.437c-2.401,0.896-5.07,1.165-7.205,0.493
	C562.433,631.734,560.832,630.122,561.454,628.508L561.454,628.508z M503.412,644.014c-0.667-1.255-0.311-2.599,1.957-3.271
	c2.269-0.672,6.449-0.672,8.674-1.165c2.224-0.493,2.49-1.479,1.512-2.375s-3.202-1.703-4.715-3.048
	c-1.512-1.344-2.313-3.226-1.734-4.84c0.579-1.613,2.535-2.957,4.448-3.36c1.912-0.403,3.78,0.134,5.959-0.045
	c2.18-0.18,4.671-1.075,7.339-1.479c2.669-0.404,5.516-0.314,7.739,0.357c2.224,0.673,3.825,1.928,6.271,2.331
	s5.737-0.045,8.494,0.538c2.758,0.582,4.982,2.195,4.004,3.629c-0.979,1.435-5.159,2.689-8.674,3.586
	c-3.514,0.896-6.359,1.434-8.05,2.51c-1.69,1.075-2.224,2.688-3.559,4.75c-1.334,2.062-3.469,4.571-5.248,4.885
	s-3.202-1.568-5.604-2.106c-2.402-0.538-5.782,0.269-8.406,0.941c-2.624,0.672-4.492,1.21-6.271,0.896
	C505.77,646.434,504.08,645.269,503.412,644.014L503.412,644.014z M472.279,654.903c-2.091-1.21-5.204-3.182-5.159-4.526
	c0.044-1.344,3.247-2.061,6.493-2.33c3.247-0.269,6.538-0.089,10.052,0.628s7.25,1.972,8.45,3.54
	c1.201,1.568-0.133,3.45-3.157,4.302s-7.739,0.673-10.63,0.359C475.437,656.562,474.37,656.113,472.279,654.903z"/>
</svg>
