<?xml version="1.0" encoding="utf-8"?>
<!-- Generator: Adobe Illustrator 15.1.0, SVG Export Plug-In . SVG Version: 6.00 Build 0)  -->
<!DOCTYPE svg PUBLIC "-//W3C//DTD SVG 1.1//EN" "http://www.w3.org/Graphics/SVG/1.1/DTD/svg11.dtd">
<svg version="1.1" id="Layer_1" xmlns="http://www.w3.org/2000/svg" xmlns:xlink="http://www.w3.org/1999/xlink" x="0px" y="0px"
	 width="612px" height="792px" viewBox="0 0 612 792" enable-background="new 0 0 612 792" xml:space="preserve">
<path fill-rule="evenodd" clip-rule="evenodd" stroke="#000000" stroke-width="2.9999" stroke-linecap="round" stroke-linejoin="round" stroke-miterlimit="22.9256" d="
	M306.266,711.585c-4.989,1.397-9.978,2.794-15.964,2.295c-5.986-0.499-12.97-2.894-13.569-6.585
	c-0.599-3.692,5.188-8.681,11.075-11.175s11.873-2.494,14.019-1.696s0.449,2.395,0.699,3.792c0.25,1.396,2.444,2.594,3.642,4.29
	s1.396,3.891,1.247,5.487S306.765,710.587,306.266,711.585L306.266,711.585z M159.23,563.914c-1.195,3.657-3.036,9.546-3.404,14.976
	s0.736,10.398,2.761,11.319c2.024,0.92,4.969-2.209,6.074-5.798c1.104-3.589,0.368-7.638,1.196-10.398s3.221-4.233,5.062-2.209
	s3.128,7.546,2.76,12.239s-2.392,8.559-2.392,11.688s2.024,5.521,3.037,8.374c1.012,2.853,1.012,6.165-0.552,8.558
	c-1.564,2.393-4.694,3.865-8.099,6.441c-3.405,2.577-7.085,6.258-10.858,8.099c-3.773,1.84-7.638,1.84-9.018,2.944
	c-1.381,1.104-0.276,3.313,1.84,5.245c2.116,1.933,5.245,3.589,5.981,7.454s-0.92,9.938-2.669,14.264s-3.588,6.901-3.957,9.938
	c-0.368,3.036,0.736,6.533,1.749,10.583c1.012,4.049,1.933,8.649,2.485,12.423s0.736,6.718,1.38,9.57s1.749,5.613,2.484,9.019
	c0.736,3.404,1.104,7.454,2.945,11.595s5.153,8.374,9.939,10.95c4.785,2.577,11.042,3.497,15.368,6.811
	c4.325,3.313,6.717,9.018,10.03,12.606s7.546,5.062,13.527,5.613c5.981,0.553,13.711,0.185,21.441-0.184s15.46-0.736,19.049-2.944
	c3.589-2.209,3.037-6.258,0.368-7.639c-2.669-1.38-7.454-0.092-12.423-1.38s-10.123-5.153-14.724-8.466
	c-4.602-3.313-8.65-6.074-9.479-8.927c-0.828-2.853,1.564-5.798,0.46-8.374c-1.104-2.577-5.706-4.785-6.534-6.81
	c-0.828-2.024,2.117-3.865,2.393-6.718s-2.117-6.718-3.129-10.398s-0.644-7.178,1.38-9.938s5.706-4.785,8.558-7.914
	s4.877-7.361,6.441-11.043c1.564-3.681,2.669-6.81,5.89-9.938c3.221-3.129,8.558-6.258,10.306-9.662
	c1.748-3.405-0.092-7.086-1.84-8.927c-1.749-1.84-3.405-1.84-5.89-2.116s-5.797-0.828-7.638-3.957
	c-1.841-3.129-2.208-8.834-0.552-13.159s5.337-7.27,8.742-8.374s6.533-0.368,8.466-3.589c1.933-3.221,2.669-10.398,4.877-15.092
	c2.209-4.693,5.89-6.901,7.178-9.019c1.288-2.116,0.184-4.141-2.484-6.165c-2.669-2.025-6.902-4.05-8.283-7.271
	c-1.38-3.221,0.092-7.638,2.945-9.202c2.853-1.564,7.086-0.276,11.503,0.46s9.018,0.921,11.595-0.69
	c2.576-1.61,3.128-5.015,2.898-9.386c-0.23-4.371-1.242-9.709-0.23-12.332c1.012-2.622,4.049-2.53,8.236-2.393
	c4.187,0.139,9.524,0.322,14.31-0.46s9.019-2.53,12.516-4.232c3.497-1.703,6.257-3.359,8.558-6.396
	c2.301-3.037,4.141-7.455,5.199-10.813s1.334-5.659,0.782-6.993c-0.552-1.335-1.933-1.702-3.635-2.623
	c-1.702-0.92-3.728-2.393-4.003-3.589c-0.276-1.196,1.196-2.116,1.426-3.635c0.23-1.519-0.781-3.635-2.99-4.97
	c-2.208-1.334-5.614-1.886-7.247-3.335s-1.496-3.796-0.852-5.407c0.645-1.609,1.794-2.484,3.244-1.702
	c1.45,0.782,3.198,3.221,4.946,4.21c1.749,0.989,3.497,0.529,5.867,1.357c2.369,0.829,5.36,2.945,7.729,3.889
	c2.37,0.942,4.118,0.713,6.051,0.644s4.049,0.023,5.751,0.092c1.703,0.069,2.991,0.115,4.325-0.874
	c1.335-0.989,2.715-3.014,4.992-6.073c2.278-3.06,5.453-7.154,7.799-10.1c2.348-2.944,3.865-4.738,5.521-6.648
	s3.45-3.934,5.497-6.281c2.048-2.346,4.349-5.015,5.913-6.901c1.564-1.886,2.392-2.99,3.681-4.371
	c1.288-1.38,3.036-3.036,4.003-5.061c0.966-2.024,1.15-4.417,1.841-7.04c0.689-2.623,1.886-5.476,3.221-7.5
	c1.334-2.024,2.807-3.221,4.739-4.877s4.324-3.773,5.566-6.304c1.243-2.531,1.335-5.476,1.197-7.822
	c-0.139-2.347-0.507-4.095-1.243-5.844c-0.735-1.748-1.84-3.496-1.426-5.889s2.347-5.43,4.417-8.973
	c2.07-3.542,4.279-7.592,6.993-10.215c2.715-2.623,5.936-3.819,8.467-5.015c2.53-1.196,4.371-2.393,7.454-3.174
	c3.082-0.783,7.407-1.15,10.168-1.703s3.957-1.289,6.212-2.163c2.254-0.875,5.567-1.886,8.098-2.577
	c2.531-0.69,4.279-1.059,6.534-1.519c2.254-0.46,5.015-1.012,7.039-2.024c2.025-1.012,3.313-2.485,4.004-4.279
	c0.689-1.795,0.781-3.912,1.472-6.074c0.69-2.163,1.979-4.371,4.003-7.315s4.785-6.625,6.764-10.582
	c1.978-3.957,3.174-8.189,4.187-12.193c1.012-4.002,1.84-7.776,2.576-11.548c0.736-3.773,1.381-7.546,1.427-11.411
	c0.046-3.865-0.506-7.822-1.012-11.733c-0.507-3.911-0.967-7.776-0.829-10.859c0.139-3.083,0.875-5.383,2.117-6.441
	s2.99-0.874,5.429-2.807c2.438-1.932,5.567-5.981,9.295-9.708c3.727-3.727,8.052-7.132,11.641-10.491
	c3.589-3.358,6.441-6.672,8.558-9.754c2.117-3.083,3.497-5.936,4.187-8.788c0.69-2.853,0.69-5.706,0.185-8.19
	c-0.506-2.485-1.519-4.601-1.887-8.052c-0.368-3.451-0.092-8.236-1.426-10.997c-1.335-2.761-4.279-3.497-6.811-3.359
	c-2.53,0.138-4.646,1.15-6.533,1.473c-1.887,0.322-3.542-0.046-5.476-1.473c-1.933-1.426-4.141-3.911-8.189-6.58
	c-4.049-2.669-9.938-5.521-12.976-7.592c-3.037-2.071-3.221-3.359-4.831-4.095s-4.647-0.92-7.546-0.782
	c-2.898,0.138-5.659,0.598-9.295-0.046c-3.635-0.644-8.144-2.393-10.996-3.635c-2.853-1.242-4.049-1.979-5.706-1.426
	c-1.656,0.552-3.772,2.393-5.199,2.485c-1.426,0.092-2.162-1.564-2.622-3.267c-0.46-1.703-0.645-3.451-1.841-4.509
	c-1.196-1.059-3.404-1.427-5.752-2.163c-2.346-0.736-4.831-1.84-7.407-3.359c-2.577-1.518-5.246-3.45-8.053-4.6
	c-2.808-1.15-5.752-1.519-7.408,0.506c-1.657,2.024-2.024,6.441-4.51,9.157c-2.484,2.714-7.085,3.727-8.604,3.174
	s0.046-2.668,1.979-5.061s4.232-5.062,5.936-7.592c1.702-2.531,2.807-4.923,1.242-6.442s-5.798-2.163-8.742-2.484
	c-2.944-0.322-4.601-0.322-7.178,1.334s-6.074,4.969-8.742,6.764c-2.669,1.794-4.509,2.07-3.682,0.414
	c0.829-1.656,4.326-5.245,7.132-8.236c2.808-2.99,4.924-5.383,5.982-7.638c1.058-2.254,1.058-4.371,0.229-5.429
	c-0.828-1.058-2.484-1.058-3.543-2.668c-1.058-1.61-1.519-4.832-2.208-7.868c-0.69-3.037-1.61-5.89-2.715-8.558
	c-1.104-2.669-2.393-5.154-4.233-6.948s-4.232-2.898-8.467-4.647c-4.232-1.749-10.306-4.141-15.873-5.383
	c-5.567-1.243-10.629-1.335-14.861-1.381c-4.233-0.046-7.639-0.046-10.262-1.058c-2.622-1.012-4.463-3.037-6.257-4.555
	c-1.795-1.519-3.543-2.53-5.2-2.761c-1.656-0.229-3.221,0.322-4.095-0.414c-0.874-0.736-1.059-2.761-1.657-4.371
	s-1.61-2.807-3.635-4.325c-2.024-1.519-5.061-3.359-7.362-4.463c-2.301-1.104-3.865-1.472-5.752-1.84
	c-1.887-0.368-4.096-0.736-5.108-1.886c-1.012-1.15-0.828-3.082-0.092-4.141c0.736-1.059,2.025-1.243,1.702-2.393
	c-0.322-1.15-2.254-3.267-4.141-4.049c-1.886-0.782-3.727-0.229-5.89-0.828c-2.162-0.598-4.647-2.346-5.383-3.589
	c-0.736-1.242,0.276-1.979,0.966-3.129c0.69-1.15,1.058-2.714-0.506-2.945c-1.564-0.23-5.062,0.875-8.052,0.829
	c-2.99-0.046-5.475-1.242-7.316-1.933c-1.84-0.69-3.037-0.875-2.806-0.138c0.229,0.736,1.886,2.393,1.61,3.819
	c-0.276,1.427-2.484,2.623-4.555,3.221c-2.07,0.598-4.002,0.598-5.889-0.092c-1.887-0.69-3.727-2.07-5.797-2.576
	c-2.071-0.506-4.371-0.138-7.592,0.138c-3.221,0.276-7.362,0.46-9.433-0.69c-2.07-1.15-2.07-3.635-4.739-5.43
	c-2.669-1.794-8.006-2.898-10.491-4.463c-2.485-1.564-2.117-3.589-3.175-4.693c-1.058-1.104-3.542-1.288-4.601,0
	c-1.059,1.288-0.69,4.049-0.92,6.028c-0.23,1.979-1.059,3.174-2.301,4.232c-1.243,1.059-2.899,1.979-3.037,3.589
	c-0.138,1.61,1.242,3.911,1.748,6.396s0.139,5.153-1.334,6.81c-1.473,1.657-4.049,2.301-6.028,1.243
	c-1.979-1.059-3.358-3.819-3.083-6.58c0.276-2.761,2.208-5.522,2.714-7.822c0.506-2.3-0.414-4.141,0.645-5.935
	c1.058-1.795,4.095-3.543,5.337-5.43c1.242-1.887,0.69-3.911-0.506-4.969c-1.196-1.059-3.037-1.15-4.785-0.598
	c-1.749,0.552-3.405,1.748-4.601,2.991c-1.196,1.242-1.933,2.531-3.405,3.359c-1.473,0.829-3.681,1.196-5.89,2.07
	s-4.417,2.254-6.257,3.359c-1.841,1.104-3.313,1.933-5.016,1.84c-1.703-0.092-3.635-1.104-5.291-0.966
	c-1.657,0.138-3.037,1.426-4.233,3.129c-1.196,1.702-2.208,3.818-2.531,5.935c-0.322,2.117,0.046,4.233-0.736,5.614
	c-0.782,1.38-2.715,2.024-4.003,2.807c-1.289,0.782-1.933,1.702-2.761,2.853c-0.828,1.15-1.84,2.53-2.991,3.037
	s-2.439,0.138-3.175,0.552c-0.736,0.414-0.92,1.61-0.829,2.668c0.092,1.058,0.46,1.979-0.184,3.083
	c-0.645,1.104-2.3,2.393-3.635,3.681c-1.334,1.288-2.347,2.576-1.886,4.049c0.459,1.472,2.392,3.128,3.542,4.601
	c1.15,1.472,1.519,2.76,1.38,4.233s-0.782,3.129-1.012,4.601c-0.23,1.473-0.046,2.761,0.322,5.798
	c0.368,3.037,0.92,7.822,2.116,10.261c1.196,2.438,3.037,2.53,2.944,3.773c-0.092,1.242-2.116,3.634-4.095,5.659
	c-1.979,2.024-3.911,3.681-5.843,3.819c-1.933,0.138-3.865-1.242-5.245-0.644c-1.38,0.598-2.209,3.175-2.163,5.061
	c0.046,1.887,0.966,3.083,0.552,4.555s-2.162,3.221-3.957,4.003c-1.794,0.782-3.635,0.599-5.245,0.46
	c-1.611-0.138-2.992-0.23-3.82,1.242c-0.829,1.472-1.104,4.509-1.519,6.764c-0.414,2.254-0.966,3.726-1.564,5.199
	c-0.598,1.472-1.242,2.945-2.254,4.003s-2.392,1.703-3.22,2.668c-0.829,0.967-1.104,2.255-1.15,4.233
	c-0.046,1.979,0.138,4.647,1.334,6.211c1.196,1.565,3.405,2.024,5.567,1.886c2.163-0.138,4.279-0.874,5.476-0.459
	s1.472,1.978,0.92,3.542c-0.552,1.564-1.933,3.129-3.681,4.463c-1.749,1.334-3.865,2.438-5.429,3.911
	c-1.564,1.473-2.577,3.313-3.175,4.832c-0.598,1.518-0.782,2.714-0.322,3.773c0.46,1.058,1.564,1.979,2.024,3.451
	c0.46,1.473,0.276,3.497-0.368,5.015s-1.748,2.531-1.794,3.819c-0.046,1.289,0.966,2.853,3.359,4.049
	c2.393,1.196,6.166,2.024,8.466,3.635c2.301,1.61,3.129,4.003,4.463,6.12c1.334,2.116,3.175,3.957,4.463,5.567
	s2.024,2.991,2.899,5.2c0.875,2.208,1.887,5.245,3.268,8.88c1.38,3.635,3.128,7.868,4.095,10.813s1.15,4.601,2.208,6.12
	c1.059,1.519,2.991,2.898,4.832,5.521c1.84,2.623,3.589,6.488,4.601,10.307c1.012,3.819,1.288,7.592,2.623,10.214
	c1.334,2.623,3.727,4.095,6.671,6.166c2.945,2.07,6.442,4.739,10.168,7.04c3.727,2.301,7.685,4.233,11.826,6.027
	c4.141,1.795,8.466,3.451,10.904,4.877s2.991,2.623,3.681,3.359c0.69,0.736,1.519,1.012,2.071,1.749
	c0.552,0.736,0.828,1.933,1.887,3.359c1.058,1.426,2.898,3.083,4.049,4.969c1.15,1.887,1.61,4.003,2.209,6.166
	c0.598,2.163,1.334,4.371,1.426,7.04c0.092,2.668-0.46,5.797-0.736,8.098c-0.276,2.301-0.276,3.773-0.276,5.706s0,4.325,0,6.441
	c0,2.117,0,3.957-0.184,5.706c-0.184,1.749-0.552,3.405-1.196,5.337c-0.644,1.932-1.564,4.141-1.933,6.258
	c-0.368,2.116-0.184,4.141,0.184,6.165c0.368,2.025,0.92,4.049,1.012,6.166c0.092,2.117-0.276,4.325-1.196,6.81
	c-0.92,2.484-2.393,5.246-2.761,8.098c-0.368,2.853,0.368,5.797,0.46,8.19c0.092,2.392-0.46,4.232-1.518,6.533
	s-2.623,5.062-3.037,6.901c-0.414,1.841,0.322,2.761,0.276,3.911s-0.874,2.531-0.782,4.417c0.092,1.887,1.104,4.279,1.472,5.936
	s0.093,2.577-0.874,4.693s-2.623,5.43-3.083,7.96c-0.46,2.531,0.276,4.279,1.012,6.258c0.736,1.979,1.472,4.187,1.979,6.855
	s0.782,5.798,0.598,9.202c-0.184,3.405-0.828,7.086-1.38,9.847s-1.012,4.602-1.749,6.166s-1.748,2.853-2.668,4.784
	c-0.92,1.933-1.748,4.509-2.668,7.867c-0.92,3.359-1.933,7.5-3.451,10.353c-1.519,2.854-3.543,4.418-5.43,5.706
	s-3.635,2.301-3.911,4.739c-0.276,2.438,0.92,6.304,1.84,9.294c0.92,2.991,1.564,5.107,1.703,7.315
	c0.138,2.209-0.23,4.51-0.552,6.672c-0.322,2.163-0.598,4.188-1.242,5.844s-1.656,2.944-2.163,4.279
	c-0.506,1.334-0.506,2.714-0.781,4.117C160.975,558.832,160.425,560.257,159.23,563.914z"/>
</svg>
